<svg xmlns="http://www.w3.org/2000/svg" width="881.879" height="119.513" viewBox="0 0 881.879 119.513">
  <g id="Group_1158" data-name="Group 1158" transform="translate(-1115 -1962.067)">
    <g id="Group_103" data-name="Group 103" transform="translate(1115 1962.067)">
      <path id="Path_105" data-name="Path 105" d="M217.768,506.743c0,.913-.527,1.7-2.769,1.7H144.311c-7.12,0-26.64.261-38.114,1.436h-.13c-2.375,0-6.2-5.09-6.2-6.788,13.056,1.7,37.718,2.089,45.1,2.089h8.7c0-4.047.133-8.355.133-12.662h-3.429c-7.123,0-19.651.129-31.123,1.3h-.133c-2.373,0-6.2-4.96-6.2-6.527,13.055,1.568,30.727,1.959,38.112,1.959h2.9V475.413h-21.5V479.2c0,1.959-1.846,3.917-5.276,3.917-1.846,0-3.56-.915-3.56-3.134v-.392c.922-10.051,1.055-18.274,1.055-24.541a105.4,105.4,0,0,0-1.714-20.624,2.515,2.515,0,0,1-.133-.915c0-.131,0-.26.133-.26,1.054,0,9.626,3.655,12.659,5.743l.133.131h18.331v-11.88h-8.178c-7.12,0-26.111.261-37.584,1.436h-.133c-2.375,0-6.33-5.091-6.33-6.788,13.056,1.7,37.321,2.088,44.707,2.088h7.518a117.478,117.478,0,0,0-.4-11.879c-10.814.915-22.682,1.568-33.761,1.568-2.373,0-4.747,0-7.121-.132-1.318,0-2.506-.652-2.506-1.174,0-.392.66-.783,2.242-.913,18.464-1.176,48.928-5.744,64.489-9.791a21.314,21.314,0,0,0,7.386-3.524c.528-.392.793-.523.924-.523.264,0,7.913,7.441,7.913,10.314,0,1.043-.791,1.435-1.714,1.435a5.064,5.064,0,0,1-2.242-.522,10.386,10.386,0,0,0-2.9-.522h-.66c-5.142.913-12.4,1.826-20.7,2.741a1.032,1.032,0,0,1,.658.913c0,.653-.658,1.306-1.714,1.828-2.109.915-2.242,1.045-2.375,6.526v3.655h32.576a2.95,2.95,0,0,0,2.242-1.173c3.691-5.223,5.8-8.094,7.253-8.094,2.638,0,12.4,7.831,12.4,10.834,0,.915-.528,1.7-2.769,1.7h-51.83v11.88h21.366a1.943,1.943,0,0,0,1.714-.784c2.9-3.262,3.56-3.524,4.22-3.524.924,0,10.551,4.7,10.551,7.571,0,1.436-1.716,2.219-3.166,3-2.639,1.306-2.639,1.306-2.639,7.963,0,5.613.528,12.923,1.057,20.754v.263c0,2.609-2.638,4.175-5.012,4.175-1.978,0-3.693-.912-3.824-3.132H161.456v13.838h22.156a2.945,2.945,0,0,0,2.242-1.176c.264-.26,5.144-7.309,6.859-7.309,1.978,0,11.737,7.049,11.737,10.05,0,.915-.527,1.7-2.77,1.7H161.456c0,4.437.131,8.615.131,12.662h34.289A2.946,2.946,0,0,0,198.119,504c3.693-5.221,5.8-8.093,7.253-8.093C208.273,495.907,217.768,503.74,217.768,506.743Zm-63.7-64.356H135.345l-.792.522c-2.373,1.436-2.373,1.568-2.373,11.881h21.893Zm0,15.666H132.179c0,4.437,0,9.267.131,14.1h21.761Zm31.65-14.23a1.6,1.6,0,0,0-1.715-1.436H161.456v12.4h24.53C185.986,450.741,185.986,447.086,185.722,443.822Zm-24.266,14.23v14.1h24.266c.131-5.223.264-9.921.264-14.1Z" transform="translate(-99.869 -394.713)" fill="#0069c7"/>
      <path id="Path_106" data-name="Path 106" d="M306.257,442.139c0,.784-.658,1.435-2.9,1.435H223.832a11.181,11.181,0,0,1-2.109,1.437c-1.846.915-1.846.653-1.846,5.225,0,17.368-.924,44.925-25.057,58.9a14.99,14.99,0,0,1-4.484,1.957.468.468,0,0,1-.264-.129c0-.393.792-1.177,2.769-2.744,15.43-12.144,18.6-31.212,18.6-48.06,0-14.626-2.243-23.247-2.243-23.377a2.281,2.281,0,0,1-.131-.784c0-.132,0-.26.263-.26,1.715,0,10.419,3,13.583,4.7h63.831a2.741,2.741,0,0,0,2.242-1.175c4.088-6.53,5.012-7.182,6.2-7.182C297.686,432.083,306.257,439.789,306.257,442.139Zm6.594,60.728c0,.913-12.4,3.264-15.694,6.661a2.125,2.125,0,0,1-1.451.652c-3.429,0-35.87-9.794-35.87-54.457v-1.307c-1.188.262-1.584.522-1.584,2.612v3.265c0,49.627-52.355,52.5-53.148,52.5-.924,0-1.318-.132-1.318-.393,0-.392,1.451-1.175,3.033-1.567,32.31-7.966,43.389-28.732,43.389-50.41a47.292,47.292,0,0,0-1.318-11.622c0-.131-.133-.262-.133-.392,0,0,0-.132,1.451-.132.924,0,13.979,1.306,13.979,3.788,0,.652-.791,1.174-1.978,1.7-.131,0-.264.132-.4.132a56.542,56.542,0,0,0,5.012,21.81c13.056-9.927,14.638-12.407,18.727-19.2.131-.263.264-.392.4-.392.4,0,.658.392.79.522,7.65,6.269,9.363,9.534,9.363,10.317,0,1.045-.791,1.305-1.978,1.305a10.485,10.485,0,0,1-1.846-.26,6.668,6.668,0,0,0-1.846-.393,5.086,5.086,0,0,0-2.241.785c-3.43,1.7-16.486,7.051-20.706,8.749C275,491.9,290.036,501.038,311.8,502.6,312.587,502.6,312.851,502.735,312.851,502.867ZM296.762,404.4c0,.653-.66,1.568-2.637,2.35-2.242,1.045-2.373,1.828-2.373,6.529,0,4.18.131,10.449.263,13.452v.13c0,2.22-2.5,3.788-4.88,3.788-1.714,0-3.3-.915-3.3-3v-.523a25.306,25.306,0,0,0,.265-3.4H218.69c0,1.175.131,2.09.131,2.873,0,2.35-2.506,3.787-4.748,3.787-1.845,0-3.429-.914-3.429-3v-.392c.4-4.18.4-13.059.4-15.542a56.154,56.154,0,0,0-1.054-9.794,5.558,5.558,0,0,0-.133-.652c0-.393.133-.393.528-.393,1.055,0,13.188.785,13.188,3.788,0,.653-.661,1.568-2.637,2.35-2.111.915-2.375,2.352-2.375,6.269,0,2.089,0,4.963.133,7.574H247.7v-9.142a80.241,80.241,0,0,0-1.319-14.625,3.662,3.662,0,0,1-.131-1.045c0-.262.131-.262.4-.262,1.185,0,14.506,1.307,14.506,4.049,0,.915-.922,1.828-2.506,2.743-2.637,1.566-2.637,1.435-3.033,6.137-.131,1.305-.131,2.22-.131,12.145H284.1c.13-3.657.13-7.314.13-8.879a63.733,63.733,0,0,0-1.054-10.057,5.611,5.611,0,0,0-.131-.652c0-.393.131-.393.527-.393C286.079,400.608,296.762,401.653,296.762,404.4Zm-58.818,63.731c0,8.487-4.352,15.279-9.759,15.279a4.425,4.425,0,0,1-4.484-4.44,7.341,7.341,0,0,1,2.9-5.224,23.872,23.872,0,0,0,8.178-15.28c.131-.785.263-1.045.4-1.045S237.944,461.336,237.944,468.128Z" transform="translate(-65.314 -395.516)" fill="#0069c7"/>
      <path id="Path_107" data-name="Path 107" d="M406.295,501.113c0,.913-9.231,3.786-12,6.529a2.078,2.078,0,0,1-1.714.913c-1.055,0-14.507-3.4-24.925-16.581-16.355,15.928-36.663,19.06-39.96,19.06-.529,0-.924,0-.924-.26s1.319-.915,3.56-1.7a67.653,67.653,0,0,0,33.631-22.459,46.129,46.129,0,0,1-6.33-18.8c-6.2,8.878-14.639,18.54-22.684,24.284l.264,5.746v.261a5.081,5.081,0,0,1-4.615,5.222c-1.716,0-3.166-1.175-3.166-4.178v-2.22h-30.07c0,3.263.133,6.528.133,9.4a5.014,5.014,0,0,1-4.88,4.831c-1.715,0-3.3-1.045-3.3-3.916v-.392c.658-12.143.791-29.9.791-45.307,0-29.115-.4-33.163-1.451-39.3a4.579,4.579,0,0,0-.131-.785c0-.261.131-.391.264-.391A53.785,53.785,0,0,1,300,426.822l.131.13H302.9c0-9.4,0-15.8-.658-19.324-4.088.26-8.969.522-13.585.913-1.449,0-5.142-4.961-5.142-6.137,9.364,1.045,21.365,1.828,25.584,1.828h16.221a2.03,2.03,0,0,0,1.451-.783c.133-.26,4.221-6.528,5.672-6.528,2.5,0,10.022,6.919,10.022,9.01,0,.652-.527,1.435-2.24,1.435H323.079c.264.262.4.391.4.653,0,.522-.658,1.045-1.714,1.436-.66.26-1.055.913-1.055,3.393,0,3-.131,8.227-.131,14.1h4.088a2.221,2.221,0,0,0,1.714-1.175c1.582-2.612,2.77-3.656,3.3-3.656.924,0,9.364,3.916,9.364,7.05,0,1.436-1.582,2.35-2.5,3-1.716,1.436-1.846,1.043-1.979,4.308-.133,4.048-.263,10.446-.263,17.759l.526-.261c17.013-7.051,18.86-25.2,18.86-27.81-3.955.783-7.121,1.3-8.572,1.7-1.318.262-1.978,1.7-2.9,1.7-2.242,0-5.669-9.4-5.669-9.4,0-.26,0-.26.263-.26a7.473,7.473,0,0,0,.922.131,66.986,66.986,0,0,0,8.572.52h1.847c1.715-.129,4.088-.392,6.727-.52,0-.131,4.219-13.319,4.219-19.977a11.175,11.175,0,0,0-.131-2.22,2.291,2.291,0,0,1-.131-.785c0-.392.131-.392.4-.392.527,0,13.319,3.4,13.319,5.744,0,.785-.922,1.568-3.3,1.959a3.027,3.027,0,0,0-2.769,1.958,103.831,103.831,0,0,1-8.7,13.579c8.968-.653,20.442-1.828,26.507-2.611a56.026,56.026,0,0,0-7.648-7.312c-.923-.653-1.318-1.045-1.318-1.3,0-.132.133-.132.4-.132,4.22,0,22.156,5.354,22.156,14.493,0,2.481-1.582,4.439-3.691,4.439-1.452,0-3.166-1.045-4.749-3.393a52.658,52.658,0,0,0-3.429-4.7c-5.275,1.7-19.122,4.309-29.408,6.267,6.33,1.176,7.253,1.959,7.253,2.743a2.061,2.061,0,0,1-1.582,1.7c-1.187.392-1.582.261-2.11,2.22-3.427,13.058-14.11,20.761-24.793,23.241a4.067,4.067,0,0,1-1.054.26c0,11.1.4,24.024.659,33.818,11.21-11.881,23.606-33.818,24.133-41.258,0-.655.133-1.436.793-1.436,1.187,0,10.153,3.394,10.153,5.614,0,.783-1.054,1.566-3.032,1.828-1.319.13-1.319.26-2.242,1.958-.661,1.305-1.451,2.613-2.375,4.178H377.15a2.036,2.036,0,0,0,1.714-.652c2.375-2.35,2.638-2.481,3.033-2.481,1.451,0,8.308,4.178,8.308,7.049,0,1.046-.791,1.959-3.032,2.612-1.584.523-1.846.523-2.9,2.35a101.429,101.429,0,0,1-12.131,17.888A51.774,51.774,0,0,0,405.5,500.851C406.032,500.851,406.295,500.983,406.295,501.113Zm-85.589-42.695c-5.275,0-6.066-2.481-6.066-6.529v-1.436c.131-1.958.131-11.62.131-20.237h-5.8c-.661,17.494-4.088,27.81-11.737,35.774v9.14h30.331c0-6.789.133-13.841.133-20.368C327.167,456.068,325.717,458.418,320.706,458.418Zm-20.573-28.2-.924.782c-1.714,1.176-1.714,1.7-1.846,6.267-.13,3.787-.13,14.1-.13,26.375,4.218-8.355,5.935-18.279,6.2-33.424Zm-2.77,48.439v14.754h30.07c0-4.569.131-9.532.131-14.754Zm17.409-62.41c0-1.436-.263-5.876-.4-8.878h-3.164a.929.929,0,0,1,.4.783,1.576,1.576,0,0,1-.924,1.175c-1.582.783-1.714.523-1.714,3v14.623h5.8Zm12.661,15.537c0-.653-.264-1.566-1.055-1.566h-6.595c-.13,6.136-.13,12.533-.13,16.581,0,4.961,0,5.484,1.185,5.484,2.111,0,2.638-1.958,3.166-8.1.131-1.045.131-1.436.263-1.436.264,0,.792,6.137,1.584,6.66a5.353,5.353,0,0,1,1.847,2.741C327.7,443.794,327.563,436.482,327.432,431.782Zm50.641,32.771c0-.391-.4-.783-1.055-.783H360.4l-1.187,1.828a41.263,41.263,0,0,0,8.175,16.712C373.59,473.825,378.073,464.945,378.073,464.554Zm22.42-21.413c0,4.569-8.968,5.746-19.122,5.746-8.968,0-12.265-2.09-12.265-7.965v-.652c.131-2.741.131-7.052.131-9.4a47,47,0,0,0-.263-6.269c0-.26-.131-.52-.131-.783s.131-.26.527-.26c.528,0,9.759.913,9.759,2.741,0,.523-.4,1.045-1.319,1.436-1.978.783-1.978,1.436-1.978,11.358,0,3,.4,3.656,6.859,3.656a42.993,42.993,0,0,0,6.593-.392c2.769-.522,4.088-5.613,5.8-11.228.131-.653.4-.913.527-.913.791,0,1.055,9.4,2.242,9.792A3.566,3.566,0,0,1,400.493,443.141Z" transform="translate(-32.332 -395.078)" fill="#0069c7"/>
      <path id="Path_108" data-name="Path 108" d="M410,459.132c0,16-18.2,30.03-25.14,30.03-3.393,0-5.86-2.134-5.86-4.726,0-2.134,1.542-4.574,5.4-6.4,12.647-5.946,19.434-12.195,22.981-20.885.617-1.372,1.079-2.287,1.542-2.287C409.075,454.863,410,454.863,410,459.132Zm72.951-23.78c0,1.982-2.005,3.506-5.707,3.506a17.452,17.452,0,0,1-2.621-.3,90.479,90.479,0,0,0-17.12-1.526,138.993,138.993,0,0,0-18.662,1.373c-.155,4.879-.155,10.366-.155,15.854,0,5.334,0,10.671.155,15.548.307,7.318,1.389,12.2,1.389,17.225,0,9.145-3.394,15.09-7.1,15.09-2.314,0-4.626-2.439-5.243-7.011-.925-5.793-5.861-14.177-11.876-21.646-.617-.763-.925-1.219-.925-1.524a.406.406,0,0,1,.463-.457,3.283,3.283,0,0,1,1.542.608c3.083,1.982,8.946,6.708,11.875,8.232a3.569,3.569,0,0,0,1.389.456c.617,0,1.079-.609,1.079-1.829.153-3.2.308-8.689.308-39.633-4.473.611-8.636,1.372-12.647,2.135-6.785,1.371-9.1,2.744-13.109,2.744-6.478,0-20.049-4.116-20.049-9.908,0-2.44,1.079-2.44,1.386-2.44a10.444,10.444,0,0,1,3.4,1.067,46.918,46.918,0,0,0,18.044,3.506c2.776,0,3.856,0,23.135-2.287v-11.28c0-8.382-2.622-13.108-9.254-13.108-.462,0-.925.152-1.542.152h-.155c-.772,0-2.158-.61-2.158-1.677s1.232-3.963,6.167-3.963c4.474,0,16.812,4.268,16.812,10.214,0,2.284-1.542,5.182-2.005,9.6-.308,2.439-.462,5.64-.618,9.146,4.628-.61,8.792-1.22,11.877-1.676,7.4-1.068,7.4-3.964,13.881-3.964C473.08,427.578,482.951,431.542,482.951,435.352Zm5.552,42.376c0,3.659-2.622,6.708-5.705,6.708-1.7,0-3.7-1.219-5.4-3.811-5.553-8.842-14.652-18.445-24.37-24.085-2-1.219-2.929-1.981-2.929-2.439,0-.153.155-.3.618-.3C456.885,453.8,488.5,465.84,488.5,477.728Z" transform="translate(2.855 -392.168)" fill="#0069c7"/>
      <path id="Path_109" data-name="Path 109" d="M490.735,456.7c0,2.929-1.7,5.09-4.011,5.09-1.542,0-3.393-1.079-5.243-3.393a88.923,88.923,0,0,0-11.258-11.567c-.772-.618-1.234-1.235-1.234-1.7,0-.617.772-1.08,2.159-1.08C477.933,444.207,490.735,448.525,490.735,456.7ZM539.78,440.5c0,3.086-3.7,5.553-5.091,8.329-24.984,46.885-57.99,52.745-60.764,52.745-.772,0-1.082-.154-1.082-.462,0-.617,1.235-1.542,3.7-2.621,31-13.572,50.586-52.592,50.586-57.528,0-1.852-1.232-2.622-3.7-3.239-1.851-.308-2.469-1.08-2.469-1.851,0-1.08,1.7-3.856,5.707-3.856C531.914,432.022,539.78,436.8,539.78,440.5ZM509.4,449.142c0,3.084-1.852,5.243-4.164,5.243-1.7,0-3.548-1.079-5.244-4.009a75.381,75.381,0,0,0-9.561-13.11,3.663,3.663,0,0,1-.925-1.7q0-.926,1.387-.925C496.442,434.644,509.4,440.968,509.4,449.142Z" transform="translate(36.236 -382.684)" fill="#0069c7"/>
      <path id="Path_110" data-name="Path 110" d="M582.5,458.108a5.279,5.279,0,0,1-5.4,5.5,10.283,10.283,0,0,1-6.016-2.444c-8.019-6.412-17.582-11.91-26.218-14.048v10.994c0,18.933.462,38.174.616,40.463.31,10.078-2.313,15.117-5.4,15.117-3.239,0-6.787-5.191-6.787-13.591a39.111,39.111,0,0,1,.772-7.023c.925-4.886,1.234-4.123,1.851-9.468.925-7.33,1.387-26.415,1.387-42.6,0-30.54-1.851-36.342-7.248-36.647-2.159-.152-3.084-.764-3.084-1.832a4.655,4.655,0,0,1,4.781-3.512c4.935,0,16.347,6.261,16.347,13.742,0,3.207-1.541,6.718-2.159,12.52-.617,4.887-.925,12.217-1.079,20.308.616,0,1.387-.152,2.159-.152,2.314,0,4.781-.152,7.249-.152C577.1,445.282,582.5,453.374,582.5,458.108Z" transform="translate(57.729 -394.176)" fill="#0069c7"/>
      <path id="Path_111" data-name="Path 111" d="M678.153,420.831c0,1.526-1.54,2.9-4.471,3.814-2.776.764-5.09,4.122-8.329,8.851-4.935,7.326-9.87,14.193-14.96,20.755,5.552,2.595,13.726,7.478,13.726,13.734,0,3.053-1.851,5.341-4.626,5.341-1.851,0-4.01-1.069-6.17-3.358a69.147,69.147,0,0,0-9.253-7.935c-36.09,42.27-74.647,46.849-74.8,46.849-.618,0-.925-.152-.925-.305,0-.61,1.7-1.678,4.781-2.9,23.905-9.765,45.8-27.926,63.234-48.832a122.433,122.433,0,0,0-14.807-7.478c-2.467-.915-3.7-1.679-3.7-1.984s.617-.457,1.85-.457a84.943,84.943,0,0,1,21.438,3.967c7.249-9.155,18.2-25.332,18.2-28.232,0-1.526-1.235-2.29-4.011-2.29-3.238,0-8.327,1.07-15.731,3.357a14.23,14.23,0,0,1-3.856.764,9.1,9.1,0,0,1-2.005-.305c-17.273,20.908-30.537,34.641-47.965,42.423a13.943,13.943,0,0,1-3.7,1.222c-.31,0-.463,0-.463-.154q0-.685,2.774-2.746c22.673-16.788,44.727-49.138,44.727-53.716,0-2.442-2.159-3.969-5.4-4.731-1.387-.305-2-.916-2-1.679,0-.61,1.542-4.119,6.323-4.119,6.322,0,13.726,5.8,13.726,10.529,0,2.289-1.234,4.424-2.93,6.562.307,0,17.889-1.983,21.283-4.272,1.7-1.069,2.931-1.986,4.318-1.986C666.125,411.521,678.153,417.016,678.153,420.831Z" transform="translate(71.089 -393.535)" fill="#0069c7"/>
      <path id="Path_112" data-name="Path 112" d="M751.9,424.263c0,1.373-1.08,2.9-3.394,4.428a18.2,18.2,0,0,0-6.786,7.176c-20.051,35.271-44.573,62.6-80.352,73.291a14.2,14.2,0,0,1-4.011.764c-.617,0-.924-.152-.924-.307,0-.609,1.541-1.679,4.163-2.9,42.722-19.085,72.334-75.734,72.334-78.94,0-2.139-1.7-3.664-4.473-3.664-7.4,0-28.069,5.8-34.393,7.787-6.478,1.985-10.026,3.664-13.882,3.664-6.322,0-20.2-7.482-20.2-12.214,0-2.444,1.234-3.362,2.621-3.362a3.453,3.453,0,0,1,2.776,1.528c1.389,2.137,6.632,3.054,13.11,3.054,3.393,0,6.94-.305,10.488-.611,6.324-.764,28.995-4.123,35.627-5.039,4.009-.611,5.706-4.123,9.1-4.123C738.794,414.8,751.9,420.142,751.9,424.263Zm9.1-11.146A4.663,4.663,0,0,1,756.531,418a5.82,5.82,0,0,1-4.165-2.137A48.618,48.618,0,0,0,739.1,405.177c-1.234-.609-2.314-1.068-2.314-1.527,0-.153,2.16-.916,6.016-.916C750.052,402.734,761,405.484,761,413.118Zm16.04-7.482a4.663,4.663,0,0,1-4.473,4.886,5.871,5.871,0,0,1-4.009-1.985,52.781,52.781,0,0,0-13.574-10.382c-1.232-.611-2.467-1.069-2.467-1.375,0-1.221,6.478-1.221,6.787-1.221C767.789,395.558,777.043,399.07,777.043,405.636Z" transform="translate(104.836 -395.5)" fill="#0069c7"/>
    </g>
    <g id="Group_107" data-name="Group 107" transform="translate(1956.619 2060.242)">
      <circle id="Ellipse_7" data-name="Ellipse 7" cx="9.625" cy="9.625" r="9.625" transform="translate(0 0)" fill="none" stroke="#0069c7" stroke-miterlimit="10" stroke-width="0.992"/>
      <g id="Group_106" data-name="Group 106" transform="translate(5.608 3.268)">
        <g id="Group_105" data-name="Group 105">
          <path id="Path_119" data-name="Path 119" d="M720.361,482.411h-1.778V469.7h4.078a7.793,7.793,0,0,1,1.741.188,4.3,4.3,0,0,1,1.445.6,2.949,2.949,0,0,1,.979,1.087,3.432,3.432,0,0,1,.36,1.643,3.06,3.06,0,0,1-.862,2.263,4,4,0,0,1-2.228,1.1l3.556,5.838H725.5l-3.233-5.658h-1.9Zm0-7.149h2.048a5.953,5.953,0,0,0,1.167-.106,2.969,2.969,0,0,0,.943-.351,1.949,1.949,0,0,0,.638-2.55,1.813,1.813,0,0,0-.621-.62,2.734,2.734,0,0,0-.906-.332,5.936,5.936,0,0,0-1.1-.1h-2.174Z" transform="translate(-718.584 -469.695)" fill="#0069c7"/>
        </g>
      </g>
    </g>
  </g>
</svg>
