<svg xmlns="http://www.w3.org/2000/svg" width="219.303" height="46.624" viewBox="0 0 219.303 46.624">
  <g id="Group_58" data-name="Group 58" transform="translate(-696.697 -1227.837)">
    <g id="Group_57" data-name="Group 57" transform="translate(696.697 1227.837)">
      <g id="Group_54" data-name="Group 54" transform="translate(0)">
        <g id="Group_53" data-name="Group 53">
          <g id="Group_35" data-name="Group 35" transform="translate(136.835)">
            <path id="Path_48" data-name="Path 48" d="M337.753,582.294a1.9,1.9,0,0,1-1.72-2.114c0,.009-.005.012-.01.012-.04,0-.221-.218-.768-.733-.877-.828-1.412-1.383-1.422-2.111a1.484,1.484,0,0,1,.48-1.1,1.7,1.7,0,0,1,1.231-.523,3.257,3.257,0,0,1,2.228,1.237c1.677,1.7,2.178,3.587,1.247,4.7a1.642,1.642,0,0,1-1.266.63Z" transform="translate(-333.833 -575.726)" fill="#0069c7"/>
          </g>
          <g id="Group_36" data-name="Group 36" transform="translate(130.235 7.334)">
            <path id="Path_49" data-name="Path 49" d="M332.012,585.819a2.121,2.121,0,0,1-1.378-.538,1.554,1.554,0,0,1-.733-1.088,1.4,1.4,0,0,1,.439-1.082,2.135,2.135,0,0,1,1.626-.654,16.073,16.073,0,0,0,3.578-.925c.536-.174,1.908-.555,3.073-.855.973-.251,2.183-.555,2.418-.577h.018a2.238,2.238,0,0,1,2.155,1.336,2.012,2.012,0,0,1-.473,1.794c-.448.615-1.576,1.777-2.637,1.777h-.193l-.305-.09a1.325,1.325,0,0,1-.827-.8c-.778.223-1.856.518-2.8.765l-2.932.765a4.049,4.049,0,0,1-1.03.173Z" transform="translate(-329.896 -580.1)" fill="#0069c7"/>
          </g>
          <g id="Group_37" data-name="Group 37" transform="translate(75.938 8.491)">
            <path id="Path_50" data-name="Path 50" d="M305.29,594.722a1.609,1.609,0,0,1-1.467-.87,1.7,1.7,0,0,1,.221-1.789c.848-1.117,1.809-6.8,1.471-7.787h0a2.709,2.709,0,0,0-.874-.146c-.1,0-.206.007-.313.015a6.78,6.78,0,0,0-3.7,2.143c-.746.763-1.269,1.073-1.811,1.073a1.34,1.34,0,0,1-1.3-1.492c0-.788.86-1.844,2.555-3.135a15.137,15.137,0,0,1,3.181-1.715,3.775,3.775,0,0,1,1.351-.228,4.558,4.558,0,0,1,3.7,1.72c.8,1.311.848,2.2.573,4.378a20.347,20.347,0,0,1-.5,2.756c-.116.339-.324,1.075-.471,1.665C307.627,592.416,307.05,594.722,305.29,594.722Z" transform="translate(-297.513 -580.79)" fill="#0069c7"/>
          </g>
          <g id="Group_38" data-name="Group 38" transform="translate(193.118 9.058)">
            <path id="Path_51" data-name="Path 51" d="M369.8,596.381a2.238,2.238,0,0,1-1.652-.758c-.989-1-.855-1.839-.428-3.8a28.854,28.854,0,0,1,3.806-8.513,9.016,9.016,0,0,0,.47-.8,1.743,1.743,0,0,1,.469-.874,1.769,1.769,0,0,1,1.2-.5,1.682,1.682,0,0,1,1.574,1.152,1.781,1.781,0,0,1-.5,1.977c0,.018-.305.471-.652,1.1s-.85,1.475-1.11,1.826a28.008,28.008,0,0,0-2.012,4.519,5.367,5.367,0,0,0-.151.813,13.653,13.653,0,0,0,2.926-1.818,63.917,63.917,0,0,0,5.651-5.345c1.913-1.928,2.768-2.612,3.752-2.612a1.978,1.978,0,0,1,.483.062c.273.072.736.194,2.111,2.046a10.552,10.552,0,0,0,2.394,2.72c.055.045,5.458,4.831,5.458,5.947,0,1.881-3.421,2.084-4.891,2.084-1.626,0-2.45-.552-2.45-1.64,0-.894.615-1.177,1.844-1.471-.225-.24-.5-.521-.82-.842a39.013,39.013,0,0,1-3.02-3.362c-.535-.7-1.169-1.5-1.5-1.891a45.255,45.255,0,0,0-3.268,3.31c-2.928,3.234-5.706,5.406-8.031,6.279a4.869,4.869,0,0,1-1.648.394Z" transform="translate(-367.4 -581.128)" fill="#0069c7"/>
          </g>
          <g id="Group_39" data-name="Group 39" transform="translate(69.791 13.657)">
            <path id="Path_52" data-name="Path 52" d="M297.613,595.174a2.424,2.424,0,0,1-2.084-1.5,15.075,15.075,0,0,1-.733-2.857c-.193-1.078-.451-2.446-.58-3.053l-.325-1.533a2.275,2.275,0,0,1,.2-1.477,1.468,1.468,0,0,1,1.251-.879c1.123,0,1.725,1.44,2.032,2.649.146.572.369,1.4.491,1.807a6.725,6.725,0,0,1,.283,1.466,7.826,7.826,0,0,0,.184,1.073l.022.092a1.609,1.609,0,0,1,.967.513,1.887,1.887,0,0,1,.349,1.554,2.2,2.2,0,0,1-2.057,2.148Z" transform="translate(-293.847 -583.871)" fill="#0069c7"/>
          </g>
          <g id="Group_40" data-name="Group 40" transform="translate(77.021 14.322)">
            <path id="Path_53" data-name="Path 53" d="M299.842,588.861a1.689,1.689,0,0,1-1.626-2.056c.285-1,1.464-1.62,4.351-2.294a7.4,7.4,0,0,1,1.628-.243A1.623,1.623,0,0,1,306,585.923c0,1.371-1.561,1.685-2.7,1.915a10.823,10.823,0,0,0-1.87.56,4.018,4.018,0,0,1-1.589.463Z" transform="translate(-298.159 -584.268)" fill="#0069c7"/>
          </g>
          <g id="Group_41" data-name="Group 41" transform="translate(126.793 15.283)">
            <path id="Path_54" data-name="Path 54" d="M341.612,608c-.887,0-1.841-.783-1.841-2.5a2.581,2.581,0,0,0-.012-.28,7.108,7.108,0,0,0-1.346-.119c-1.023-.032-2.079-.065-2.25-1.315a1.427,1.427,0,0,1,.288-1.117c.463-.578,1.221-.7,2.718-.82.285-.023.535-.049.738-.075.075-.726.132-1.977.139-2.856a10.348,10.348,0,0,1-1.947.247l-.434.007a2.744,2.744,0,0,1-1.844-.51,1.9,1.9,0,0,1-.882-2.037,1.3,1.3,0,0,1,1.273-.884,3.025,3.025,0,0,1,1.125.265s.106,0,.2,0a7.274,7.274,0,0,0,2.485-.52l.206-.1.049-.5a6.905,6.905,0,0,0,.028-1.239c-.193.035-.443.081-.718.143a6.724,6.724,0,0,1-1.341.225,1.518,1.518,0,0,1-1.147-.5,1.37,1.37,0,0,1-.491-1.061,1.175,1.175,0,0,1,.218-.627l0,0a7.645,7.645,0,0,0-2.124,3.7,26.173,26.173,0,0,1-1.8,3.89c-.223.407-.811,1.491-1.923,1.491a1.832,1.832,0,0,1-1.137-.424c-.907-.7-1.13-2.037-1.236-3.373-.047-.6-.183-1.687-.3-2.455-.612-3.851-.8-5.015.652-5.57a1.885,1.885,0,0,1,.664-.136c1.419,0,1.479,1.574,1.519,2.614a21.739,21.739,0,0,0,.384,2.946l.035.173c.287-.646.594-1.29.823-1.72A12,12,0,0,1,334.3,590.1a15.621,15.621,0,0,1,4.738-3.382,26.958,26.958,0,0,1,5.9-1.739,9.76,9.76,0,0,1,1.526-.143,3.66,3.66,0,0,1,2.7,1.036,2.067,2.067,0,0,1,.763,2.123c-.151,1.571-.952,2.746-2.478,4.494-.453.516-.5.662-.5.7,0,1.358-1.159,2.892-3.1,4.106a2.431,2.431,0,0,0-.376.285c-.082.644-.21,2.518-.25,3.64.112-.007.236-.013.367-.023.481-.035.81-.055,1.043-.055a1.543,1.543,0,0,1,1.529.82,1.393,1.393,0,0,1,.086,1.306c-.367.768-1.259.944-3.2,1.313l.005.055a6.141,6.141,0,0,0,.2.942,1.6,1.6,0,0,1-.327,1.781A1.758,1.758,0,0,1,341.612,608Zm4.1-20.137a23.944,23.944,0,0,0-5.042,1.573,11.179,11.179,0,0,0-3.291,1.87,7.028,7.028,0,0,1,1.945-.714c.159-.035.542-.121.733-.183a1.619,1.619,0,0,1,1.677-1.07l.233,0a7.62,7.62,0,0,1,3.343.582c.037-.045.074-.094.116-.144a7.3,7.3,0,0,0,1.071-1.766A1.937,1.937,0,0,0,345.708,587.859Z" transform="translate(-327.844 -584.841)" fill="#0069c7"/>
          </g>
          <g id="Group_42" data-name="Group 42" transform="translate(182.564 15.577)">
            <path id="Path_55" data-name="Path 55" d="M365.472,591.664c-.528,0-1.249-.273-1.68-1.57-.134-.4-.428-.816-1.427-1.551-.609-.449-1.881-1.382-.9-2.768a1.612,1.612,0,0,1,1.35-.76,3.254,3.254,0,0,1,1.935.956,5.874,5.874,0,0,1,2.1,2.416,2.251,2.251,0,0,1-.287,2.819,1.611,1.611,0,0,1-1.093.458Z" transform="translate(-361.106 -585.016)" fill="#0069c7"/>
          </g>
          <g id="Group_43" data-name="Group 43" transform="translate(75.378 19.565)">
            <path id="Path_56" data-name="Path 56" d="M299.094,591.531a1.736,1.736,0,0,1-1.806-1.046,1.508,1.508,0,0,1,.069-1.273,2.964,2.964,0,0,1,2.121-1.266c.617-.143,1.2-.305,1.32-.354a4.369,4.369,0,0,1,1.385-.2l.221,0c.587.025,1.806.075,1.806,1.467,0,1.088-.921,1.466-1.531,1.712a10.326,10.326,0,0,1-3.585.954Z" transform="translate(-297.179 -587.395)" fill="#0069c7"/>
          </g>
          <g id="Group_44" data-name="Group 44" transform="translate(11.576 19.961)">
            <path id="Path_57" data-name="Path 57" d="M262.081,612.864a1.424,1.424,0,0,1-.931-.359,1.729,1.729,0,0,1-.6-1.266,2.509,2.509,0,0,1,.743-1.841,10.164,10.164,0,0,0,2.7-4.239,9.8,9.8,0,0,0,.531-5.106c-.511-4.314-2.019-7.684-4.135-9.245a2.528,2.528,0,0,1-1.261-1.667,1.365,1.365,0,0,1,.414-1.07,1.551,1.551,0,0,1,1.12-.441c1.351,0,3.1,1.5,4.056,2.907,3.288,4.841,4.116,12.287,1.883,16.95a18.606,18.606,0,0,1-2.471,3.764c-.754,1-1.259,1.611-2.051,1.611Z" transform="translate(-259.127 -587.631)" fill="#0069c7"/>
          </g>
          <g id="Group_45" data-name="Group 45" transform="translate(180.571 24.76)">
            <path id="Path_58" data-name="Path 58" d="M364.635,594.286c-.283,0-.677-.015-1.231-.047-1.635-.092-3.488-.194-3.488-2.049a1.865,1.865,0,0,1,.411-1.289,1.344,1.344,0,0,1,1.028-.408c.23,0,.677.042,1.645.144,1.75.185,2.728.59,3.176,1.316a1.64,1.64,0,0,1,.121,1.467A1.587,1.587,0,0,1,364.635,594.286Z" transform="translate(-359.917 -590.493)" fill="#0069c7"/>
          </g>
          <g id="Group_46" data-name="Group 46" transform="translate(176.466 25.813)">
            <path id="Path_59" data-name="Path 59" d="M360.368,604.935a2.7,2.7,0,0,1-2.684-2.086c-.359-1.2-.268-2.081.268-2.617a1.52,1.52,0,0,1,1.083-.5c.491,0,1.32.339,1.32,1.61a.442.442,0,0,0,.178.3c1.1-.029,5.989-3.955,8.677-7.8.485-.693,1.3-1.831,1.573-2.128a1.582,1.582,0,0,1,1.16-.594h.438l.4.344c.815.822.5,1.771-3.187,6.484-3.417,4.375-6.866,6.987-9.222,6.987Z" transform="translate(-357.469 -591.121)" fill="#0069c7"/>
          </g>
          <g id="Group_47" data-name="Group 47" transform="translate(30.86 26.981)">
            <path id="Path_60" data-name="Path 60" d="M273.212,600.086a1.447,1.447,0,0,1-1.442-1.029,17.315,17.315,0,0,1-.221-1.984,5.417,5.417,0,0,0-.473-2.153,2.5,2.5,0,0,1-.261-2.257,1.5,1.5,0,0,1,1.338-.845c.978,0,1.895.979,2.456,2.622.392,1.147.786,3.9.116,4.862a1.868,1.868,0,0,1-1.512.783Z" transform="translate(-270.628 -591.818)" fill="#0069c7"/>
          </g>
          <g id="Group_48" data-name="Group 48" transform="translate(69.36 27.173)">
            <path id="Path_61" data-name="Path 61" d="M307.021,609.055c-1.444,0-1.62-1.688-1.806-3.474-.027-.262-.054-.495-.082-.7a7.75,7.75,0,0,0-1.2.5,3.1,3.1,0,0,1-1.457.466A1.463,1.463,0,0,1,301,604.484c-.139-1.16.637-1.514,2.513-2.368l1.363-.622.074-1.558c.017-.349.025-.661.032-.929-.644.242-1.655.654-3.13,1.33a5.318,5.318,0,0,1-1.244.469,21.826,21.826,0,0,0-2.445,1.107,6.439,6.439,0,0,1-2.726,1.123,1.853,1.853,0,0,1-1.527-.865c-.64-1-.257-2.192.624-3.917.525-1.036.941-1.854,1.878-1.854h.2l.344.112a1.389,1.389,0,0,1,.825.817,1.638,1.638,0,0,1,.022,1.029,19.143,19.143,0,0,1,1.9-.867c.263-.079.914-.31,1.462-.516.572-.215,1.781-.662,2.706-1,.521-.188.934-.357,1.2-.474a4.68,4.68,0,0,0-.141-1.073,3.131,3.131,0,0,1-.049-1.606,1.3,1.3,0,0,1,1.258-.894,2.108,2.108,0,0,1,.545.082,6.469,6.469,0,0,0,.988.055l.83-.015a2.359,2.359,0,0,1,2.022.939,2.58,2.58,0,0,1,.914,2.168c-.188,1.061-1.231,1.68-2.227,2.146-.371.173-.677.337-.87.453-.018.233-.034.7-.013,1.606l.023.964s.738-.025.914-.025c.584,0,2.361,0,2.361,1.677,0,.768-1.174,2.322-2.133,2.322a1.579,1.579,0,0,1-1.023-.431,10.608,10.608,0,0,0,.206,2.307c.246,1.046.394,1.677-.473,2.374A1.905,1.905,0,0,1,307.021,609.055Zm1.3-5.307,0-.007Z" transform="translate(-293.59 -591.932)" fill="#0069c7"/>
          </g>
          <g id="Group_49" data-name="Group 49" transform="translate(198.728 27.803)">
            <path id="Path_62" data-name="Path 62" d="M375.243,606.049l-.287-.054a5.608,5.608,0,0,0-.724-.126l-.594-.06c-.7-.084-1-.716-1.227-1.175a10.938,10.938,0,0,1-1.179-3.89h-.01a10.491,10.491,0,0,0-.228-1.165c-.243-1.039-.654-2.777.766-3.337l.184-.074.324-.023a1.877,1.877,0,0,1,1.591,1.078,5.1,5.1,0,0,1,2.151-3.459,12.294,12.294,0,0,1,3.578-1.238,15.54,15.54,0,0,1,2.864-.218,7.8,7.8,0,0,1,3.508.486,5.2,5.2,0,0,1,1.714,3.162,5.95,5.95,0,0,1-1.266,3.088,32.686,32.686,0,0,1-4.893,4.3,30.468,30.468,0,0,1-3.221,1.685,7.9,7.9,0,0,1-2.912,1.018ZM382.9,595.2a5.756,5.756,0,0,0-1.972.364,4.4,4.4,0,0,1-1.3.26,5.979,5.979,0,0,0-1.169.359c-.884.359-1.306.708-1.64,2.52a15.2,15.2,0,0,0-.24,1.925,8.392,8.392,0,0,1-.2,1.584,23.959,23.959,0,0,0,4.7-2.53c2.237-1.709,3.213-3.261,3.216-3.677a1.263,1.263,0,0,0-.545-.686A2.28,2.28,0,0,0,382.9,595.2Z" transform="translate(-370.746 -592.308)" fill="#0069c7"/>
          </g>
          <g id="Group_50" data-name="Group 50" transform="translate(0 34.309)">
            <path id="Path_63" data-name="Path 63" d="M256.321,602.218a2.845,2.845,0,0,1-2.116-.971c-.7-.629-1.982-2.384-1.982-3.365a1.8,1.8,0,0,1,.577-1.2,1.563,1.563,0,0,1,1.107-.5c.855,0,1.392.7,2.061,1.69a8.452,8.452,0,0,0,.568.79c-.01-.013.008-.018.04-.018l.079,0a1.6,1.6,0,0,0,.567-.086,2.236,2.236,0,0,1,1.026-.27,1.434,1.434,0,0,1,1.383.9,1.732,1.732,0,0,1-.6,1.907A4.155,4.155,0,0,1,256.321,602.218Z" transform="translate(-252.223 -596.188)" fill="#0069c7"/>
          </g>
          <g id="Group_51" data-name="Group 51" transform="translate(137.132 39.584)">
            <path id="Path_64" data-name="Path 64" d="M335.358,602.765a1.251,1.251,0,0,1-1.348-1.321c0-1.066,1.029-1.425,1.854-1.717a5.47,5.47,0,0,1,1.854-.392,3.573,3.573,0,0,1,.5.035c.382.049,1.3.129,2.071.181,1.321.089,2.28.151,2.45,1.348a1.478,1.478,0,0,1-.332,1.226,2.571,2.571,0,0,1-2.084.632h0c-.309,0-.671-.012-1.1-.037-1.048-.059-1.618-.089-2.054-.089a8.96,8.96,0,0,0-1.159.084A6.307,6.307,0,0,1,335.358,602.765Z" transform="translate(-334.01 -599.334)" fill="#0069c7"/>
          </g>
          <g id="Group_52" data-name="Group 52" transform="translate(79.585 41.837)">
            <path id="Path_65" data-name="Path 65" d="M302.238,605.465a3.194,3.194,0,0,1-.495-.035c-.915-.139-2.056-.31-2.056-1.693,0-1.71,1.8-1.71,2.762-1.71l.221,1.055v-1.055a2.545,2.545,0,0,0,1.558-.322,10.362,10.362,0,0,0,1.083-.634,1.728,1.728,0,0,1,1.065-.392,1.334,1.334,0,0,1,1.117.572,1.462,1.462,0,0,1,.134,1.363,4.258,4.258,0,0,1-2.389,1.935,5.294,5.294,0,0,1-3,.917Z" transform="translate(-299.688 -600.678)" fill="#0069c7"/>
          </g>
        </g>
      </g>
    </g>
  </g>
</svg>
