<svg xmlns="http://www.w3.org/2000/svg" width="401.263" height="299.542" viewBox="0 0 401.263 299.542">
  <g id="Group_847" data-name="Group 847" transform="translate(-1381.792 -805.826)">
    <g id="Group_808" data-name="Group 808">
      <path id="Path_1615" data-name="Path 1615" d="M1480.97,823.69c-1.76,0-2.361.021-2.481.021-.2,0-.2-.021-.2-.2v-1.3c0-.2,0-.221.2-.221.12,0,.721.04,2.481.04h5.081v-.979h-3.4c-1.94,0-2.6.039-2.72.039-.2,0-.22-.02-.22-.24v-1.14c0-.22.019-.24.22-.24.12,0,.78.04,2.72.04h3.4v-1h-2.441c-1.96,0-2.66.039-2.78.039-.22,0-.24-.02-.24-.219,0-.121.04-.58.04-1.781v-2.66c0-1.12-.04-1.6-.04-1.721,0-.22.02-.24.24-.24.12,0,.82.041,2.78.041h2.441v-.942h-5.081c-1.781,0-2.38.041-2.5.041-.181,0-.2-.02-.2-.22v-1.26c0-.2.019-.221.2-.221.12,0,.719.041,2.5.041h5.081v-1c-1.8.12-3.561.181-5.3.2-.42,0-.42,0-.58-.5a3.675,3.675,0,0,0-.62-1.1c2.5,0,4.7-.079,6.821-.22,1.941-.141,3.5-.36,4.721-.56a11.017,11.017,0,0,0,1.68-.38,10.365,10.365,0,0,1,1.241,1.219.428.428,0,0,1,.16.341c0,.16-.18.24-.4.24a9.815,9.815,0,0,0-1.2.121c-1.4.24-2.9.359-4.52.48v1.16h5.381c1.78,0,2.38-.041,2.5-.041.2,0,.2.021.2.221v1.26c0,.2,0,.22-.2.22-.121,0-.721-.041-2.5-.041h-5.381v.942h2.74c1.961,0,2.661-.041,2.78-.041.221,0,.24.02.24.24,0,.12-.04.6-.04,1.721v2.66c0,1.2.04,1.66.04,1.781,0,.2-.019.219-.24.219-.119,0-.819-.039-2.78-.039h-2.74v1h3.7c1.94,0,2.6-.04,2.721-.04.22,0,.24.02.24.24v1.14c0,.22-.02.24-.24.24-.12,0-.781-.039-2.721-.039h-3.7v.979h5.421c1.76,0,2.36-.04,2.48-.04.18,0,.2.02.2.221v1.3c0,.179-.02.2-.2.2-.12,0-.72-.021-2.48-.021Zm5.081-9.141v-1.121h-3.481v1.121Zm0,2.52v-1.16h-3.481v1.16Zm2-3.641v1.121h3.74v-1.121Zm3.74,2.481h-3.74v1.16h3.74Z" fill="#0069c7"/>
      <path id="Path_1616" data-name="Path 1616" d="M1502.71,814.869a25.308,25.308,0,0,1-.36,4.5,12.423,12.423,0,0,1-1.68,4.5c-.141.26-.24.38-.34.38s-.2-.1-.381-.32a5.8,5.8,0,0,0-1.22-1.14,10.067,10.067,0,0,0,1.7-4.142,21.724,21.724,0,0,0,.28-3.92c0-1.881-.04-2.641-.04-2.76,0-.221.019-.24.22-.24.12,0,.8.039,2.7.039h10.181c1.9,0,2.541-.039,2.661-.039.22,0,.24.019.24.24v1.439c0,.221-.02.24-.24.24-.12,0-.76-.04-2.661-.04H1502.71Zm10.942-6.922a7.14,7.14,0,0,0-.12-1.4c.721.019,1.5.06,2.141.12.16.021.26.08.26.2a.776.776,0,0,1-.1.279,2.494,2.494,0,0,0-.1.961v.76c0,.9.04,1.321.04,1.42,0,.2-.02.221-.22.221-.12,0-.821-.04-2.781-.04h-8.622c-1.96,0-2.66.04-2.78.04-.2,0-.221-.02-.221-.221,0-.119.04-.559.04-1.42v-.72a10.014,10.014,0,0,0-.1-1.581c.74.021,1.42.061,2.08.122.2.039.28.1.28.2,0,.14-.08.22-.12.36a1.877,1.877,0,0,0-.08.74v.72h4.021v-.64a12.185,12.185,0,0,0-.12-2.12c.72.02,1.54.06,2.161.14.179.02.28.1.28.2a1.344,1.344,0,0,1-.12.4,4.418,4.418,0,0,0-.1,1.359v.66h4.28Zm-3.44,8.542a6.684,6.684,0,0,0,2.46,3.822,9.845,9.845,0,0,0,4.461,1.939,6.813,6.813,0,0,0-.739,1.48c-.141.381-.181.521-.361.521a1.534,1.534,0,0,1-.46-.12,11.329,11.329,0,0,1-3.921-2.061,8.007,8.007,0,0,1-2.18-2.841,7.752,7.752,0,0,1-1.3,2.021,9.58,9.58,0,0,1-4.7,2.861,1.536,1.536,0,0,1-.461.119c-.18,0-.26-.139-.42-.48a5.112,5.112,0,0,0-.9-1.26,8.94,8.94,0,0,0,5.141-2.621,6.816,6.816,0,0,0,1.34-4.06,7.762,7.762,0,0,0-.079-1.621c.72.041,1.4.081,2.059.161.241.02.381.12.381.26a1.264,1.264,0,0,1-.14.44,4.009,4.009,0,0,0-.14.92Zm-3.721-.6c.26.08.3.1.22.3a11.928,11.928,0,0,1-1.6,3.34c-.12.181-.139.181-.38.061l-1.32-.62c-.26-.12-.26-.2-.139-.341a8.611,8.611,0,0,0,1.54-3.08c.04-.22.1-.22.36-.12Zm6.821.22a2.7,2.7,0,0,0,.34-.94,14.979,14.979,0,0,1,1.721.62c.32.141.4.22.4.34s-.06.18-.18.28a1.724,1.724,0,0,0-.361.4,14.08,14.08,0,0,1-1.559,2.121c-.221.24-.32.359-.441.359s-.24-.08-.46-.239a7.22,7.22,0,0,0-1.26-.6A11.609,11.609,0,0,0,1513.312,816.109Z" fill="#0069c7"/>
      <path id="Path_1617" data-name="Path 1617" d="M1526.03,808.348v1.9c1.16,0,1.6-.04,1.741-.04.2,0,.22.02.22.22,0,.12-.04,1.02-.04,3.64v.08a3.983,3.983,0,0,0,2.341-2.24,2.346,2.346,0,0,0,.22-.92,15.637,15.637,0,0,1,1.56.42c.24.08.3.16.3.24a.313.313,0,0,1-.12.26,2.546,2.546,0,0,0-.36.68,6.388,6.388,0,0,1-2.441,2.9.812.812,0,0,1-.4.181c-.16,0-.281-.16-.481-.521a4.755,4.755,0,0,0-.62-.8v4.641a9.383,9.383,0,0,0,3.341-3.741,4.86,4.86,0,0,0,.439-1.24,12.914,12.914,0,0,1,1.541.38c.22.08.34.16.34.28,0,.14-.08.22-.219.38a2.693,2.693,0,0,0-.481.74l-.08.16h2.341a1.063,1.063,0,0,0,.439-.08.864.864,0,0,1,.261-.06c.16,0,.359.121.78.58.34.381.52.6.52.76a.444.444,0,0,1-.22.34,2.173,2.173,0,0,0-.44.681,10.635,10.635,0,0,1-1.7,2.54,12.82,12.82,0,0,0,4.042,1.44,5.357,5.357,0,0,0-.661,1.441c-.179.559-.2.559-.82.4a11.543,11.543,0,0,1-3.94-1.96,12.751,12.751,0,0,1-4.022,2.081,1.518,1.518,0,0,1-.46.119c-.18,0-.24-.119-.4-.48a4.5,4.5,0,0,0-.58-.939c0,.419.02.6.02.64,0,.2-.02.219-.22.219h-1.18c-.18,0-.2-.02-.2-.219v-.841h-4.061v1.3c0,.181-.02.2-.221.2h-1.179c-.2,0-.22-.02-.22-.2,0-.139.04-1.039.04-5.82v-3.361c0-3.221-.04-4.161-.04-4.3,0-.2.019-.22.22-.22.12,0,.58.04,1.84.04v-1.9h-.08c-1.621,0-2.14.039-2.26.039-.2,0-.221-.02-.221-.24v-1.379c0-.221.02-.241.221-.241.12,0,.639.039,2.26.039h3.521c1.62,0,2.16-.039,2.28-.039.18,0,.2.02.2.241v1.379c0,.22-.02.24-.2.24-.12,0-.66-.039-2.28-.039Zm-1.92,3.52c-.02.92-.06,1.64-.08,2.181a6.594,6.594,0,0,1-.74,2.881q-.12.24-.24.24c-.06,0-.12-.061-.2-.181a4.513,4.513,0,0,0-.52-.66v1.561h4.061v-1.54h-.38a1.577,1.577,0,0,1-.92-.181c-.261-.2-.4-.48-.4-1.12v-3.181Zm-1.78,4.12a5.667,5.667,0,0,0,.62-2.54c.02-.42.04-.96.04-1.58h-.66Zm4.061,4.922v-1.36h-4.061v1.36Zm-1.7-10.662v-1.9h-.58v1.9Zm1.1,1.62v2.04a1.4,1.4,0,0,0,.08.7.532.532,0,0,0,.42.139h.1v-2.88Zm6.3,8.9a10.279,10.279,0,0,1-1.321-1.84c-.36.359-.78.72-1.24,1.1-.24.181-.36.282-.46.282-.12,0-.2-.122-.38-.421a2.951,2.951,0,0,0-.74-.84c0,1.761,0,2.9.02,3.52A11.009,11.009,0,0,0,1532.092,820.77Zm3.281-13.922c.2-.121.239-.1.38.039a14.942,14.942,0,0,1,2.54,3.22c.12.2.12.281-.14.42l-1.02.6c-.26.14-.3.14-.42-.08-.16-.3-.32-.6-.5-.9-2.021.28-4.041.48-6.2.64a1.753,1.753,0,0,0-.741.159.611.611,0,0,1-.339.1c-.12,0-.241-.06-.281-.28-.12-.58-.219-1.121-.3-1.741.6.04,1.08.04,1.6.04a15.55,15.55,0,0,0,.861-1.9,6.136,6.136,0,0,0,.379-1.341,13.293,13.293,0,0,1,1.742.481c.219.08.319.16.319.32a.41.41,0,0,1-.18.32,3.813,3.813,0,0,0-.5.741c-.24.459-.46.839-.7,1.279,1.1-.059,2.221-.159,3.36-.279-.259-.34-.54-.661-.82-.961-.14-.16-.12-.24.08-.36Zm-3.441,10.641-.08.12a8.081,8.081,0,0,0,1.52,2,9.791,9.791,0,0,0,1.461-2.12Zm3.14-4.921a.517.517,0,0,0,.141.42c.1.1.3.12.7.12a1.093,1.093,0,0,0,.76-.18c.2-.159.26-.56.3-1.38a2.986,2.986,0,0,0,1.06.56c.46.14.5.16.42.68-.12.921-.26,1.261-.72,1.54a3.264,3.264,0,0,1-1.921.4c-1.48,0-1.679-.1-1.959-.28a1.309,1.309,0,0,1-.481-1.2v-.92a10.332,10.332,0,0,0-.08-1.58c.641.04,1.08.08,1.66.14.24.02.3.1.3.18a.508.508,0,0,1-.08.28,1.385,1.385,0,0,0-.1.68Z" fill="#0069c7"/>
      <path id="Path_1618" data-name="Path 1618" d="M1551.252,818.949c0,1.381.02,2.561.06,4.161.02.261-.08.341-.3.341a17.108,17.108,0,0,1-2,0c-.22,0-.3-.08-.281-.32.021-1.441.081-2.74.081-4.1v-4.66a34.586,34.586,0,0,1-5.5,3.84.566.566,0,0,1-.721-.119,7.458,7.458,0,0,0-1.72-1.181,32.178,32.178,0,0,0,6.3-4.1,32.608,32.608,0,0,0,4.262-4.182,5.794,5.794,0,0,0,1.259-2.061,17.725,17.725,0,0,1,2.221,1.4.355.355,0,0,1,.16.3.571.571,0,0,1-.28.439,6.646,6.646,0,0,0-1.2,1.1,32.023,32.023,0,0,1-2.341,2.52Z" fill="#0069c7"/>
      <path id="Path_1619" data-name="Path 1619" d="M1567.893,814.609a16.577,16.577,0,0,1-2.822,3.08,22.519,22.519,0,0,1-3.78,2.8.854.854,0,0,1-.46.18.423.423,0,0,1-.341-.2,4.537,4.537,0,0,0-1.639-1.181,23.526,23.526,0,0,0,4.66-3.16,19.241,19.241,0,0,0,2.941-3.1l-3.5.021c-1.04,0-2.16.039-3.2.1-.18.02-.26-.12-.279-.339a17.921,17.921,0,0,1-.16-1.942c1.2.08,2.379.1,3.58.1h4.761l-.08-1.78a10.034,10.034,0,0,0-.32-2.361,17.663,17.663,0,0,1,2.52.22c.2.04.26.12.26.24a1.142,1.142,0,0,1-.08.3,5.687,5.687,0,0,0-.079,1.84l.06,1.519h1.74c1.4,0,2.4-.039,3.881-.1.2,0,.3.1.3.24.02.56.02,1.18,0,1.74a.253.253,0,0,1-.28.28c-1.461-.059-2.6-.1-3.841-.1h-1.621l.361,7.521a2.1,2.1,0,0,1-.96,2.121,6.121,6.121,0,0,1-2.761.7c-.38,0-.521-.08-.62-.34a4.06,4.06,0,0,0-1.4-1.781,14.351,14.351,0,0,0,2.821-.2c.46-.1.62-.3.58-1.18Z" fill="#0069c7"/>
      <path id="Path_1620" data-name="Path 1620" d="M1580.591,808.668a.37.37,0,0,1,.279-.16.537.537,0,0,1,.261.1,20.818,20.818,0,0,1,3.82,2.841c.12.12.181.2.181.281a.425.425,0,0,1-.12.259c-.3.4-.961,1.2-1.241,1.5-.1.1-.16.16-.24.16s-.16-.06-.26-.16a21.138,21.138,0,0,0-4.081-3.26C1579.63,809.688,1580.21,809.067,1580.591,808.668Zm1.74,10.541a29.641,29.641,0,0,0,5.761-3.721,30.021,30.021,0,0,0,5.481-5.44,8.935,8.935,0,0,0,.56,2.341.971.971,0,0,1,.1.38c0,.179-.1.339-.32.6a32.643,32.643,0,0,1-4.6,4.24,42.961,42.961,0,0,1-6.041,3.921,6.911,6.911,0,0,0-1.34.92.555.555,0,0,1-.361.2.523.523,0,0,1-.34-.22,13.811,13.811,0,0,1-1.6-2.22A12.014,12.014,0,0,0,1582.331,819.209Z" fill="#0069c7"/>
      <path id="Path_1621" data-name="Path 1621" d="M1603.251,819.33c.22.16.28.24.28.359s-.1.2-.26.3a2.889,2.889,0,0,0-.661.56,21.04,21.04,0,0,1-3.16,2.741c-.24.16-.36.24-.48.24-.14,0-.22-.14-.44-.441a5.232,5.232,0,0,0-1.06-1.119,14.537,14.537,0,0,0,3.3-2.461,5.99,5.99,0,0,0,.879-1.12A10.446,10.446,0,0,1,1603.251,819.33Zm8.441-6.222c.241-.139.3-.12.441.021a20.675,20.675,0,0,1,3.341,4.2c.12.181.1.24-.12.38l-1.361.761a.868.868,0,0,1-.24.1c-.06,0-.1-.04-.16-.139-.26-.481-.54-.961-.821-1.42-1.7.16-3.52.319-5.34.439v3.5c0,2.22.04,2.96.04,3.061,0,.2-.02.219-.22.219h-1.82c-.2,0-.221-.019-.221-.219,0-.12.04-.841.04-3.061v-3.36c-1.8.119-3.6.2-5.32.24a3.957,3.957,0,0,0-1.041.139,1.159,1.159,0,0,1-.4.08c-.1,0-.2-.08-.24-.279a18.719,18.719,0,0,1-.4-2.021c.839.06,1.52.06,2.14.06,1.1,0,2.321-.02,3.581-.06.26-.22.52-.44.781-.64a29.867,29.867,0,0,0-3.982-3.241c-.16-.12-.18-.139.021-.341l.939-.9c.2-.181.24-.2.4-.08l1.021.72a19.681,19.681,0,0,0,2.061-2.281c-1.721.16-3.322.261-4.9.3-.6.021-.66,0-.82-.519a4.653,4.653,0,0,0-.64-1.381c2.42-.02,4.861-.14,7.4-.4a44.333,44.333,0,0,0,4.6-.639,9.486,9.486,0,0,0,1.6-.421,11.088,11.088,0,0,1,1.4,1.341.776.776,0,0,1,.2.459c0,.16-.18.24-.34.24a7.342,7.342,0,0,0-1.041.08c-1.6.26-3.26.52-5.44.74l.3.18c.22.121.28.221.28.32,0,.181-.12.24-.261.32a1.776,1.776,0,0,0-.559.441,33.124,33.124,0,0,1-2.341,2.4c.54.441,1.061.88,1.58,1.361a32.144,32.144,0,0,0,2.761-2.942,6.483,6.483,0,0,0,.761-1.119,14.719,14.719,0,0,1,1.78.859c.22.141.28.221.28.34,0,.16-.1.282-.3.381a1.872,1.872,0,0,0-.66.52,33.974,33.974,0,0,1-3.82,3.781c1.78-.08,3.5-.2,4.98-.32a14.447,14.447,0,0,0-1.04-1.221c-.16-.139-.139-.2.1-.34Zm-1.139,5.121c.219-.139.259-.12.4.041a17.66,17.66,0,0,0,4.381,3.46,5.689,5.689,0,0,0-1.08,1.18c-.2.3-.279.441-.42.441-.1,0-.22-.1-.439-.261a21.982,21.982,0,0,1-4.1-3.76c-.12-.16-.1-.2.141-.36Z" fill="#0069c7"/>
      <path id="Path_1622" data-name="Path 1622" d="M1628.532,810.428a25.061,25.061,0,0,1-2.5,8.622,3.8,3.8,0,0,1-3.4,2.3c-1.761,0-3.541-1.88-3.541-5.141a7.368,7.368,0,0,1,2.261-5.2,8.754,8.754,0,0,1,6.5-2.561c4.8,0,7.622,2.961,7.622,6.942,0,3.72-2.1,6.061-6.162,7.281-.419.121-.6.041-.86-.359a4.231,4.231,0,0,0-1.4-1.26c3.381-.8,6.041-2.2,6.041-5.983a4.543,4.543,0,0,0-4.481-4.64Zm-5.741,1.94a5.763,5.763,0,0,0-1.561,3.7c0,1.841.741,2.862,1.361,2.862.52,0,.96-.26,1.5-1.221a22.821,22.821,0,0,0,2.121-7.161A6.032,6.032,0,0,0,1622.791,812.368Z" fill="#0069c7"/>
      <path id="Path_1623" data-name="Path 1623" d="M1639.83,811.288c.16-.2.22-.2.4-.1a15.553,15.553,0,0,1,2.88,2.1c.08.06.12.1.12.159s-.04.12-.12.24l-.9,1.321c-.061.1-.1.139-.16.139-.04,0-.1-.039-.181-.119a15.052,15.052,0,0,0-2.84-2.241c-.1-.059-.14-.1-.14-.159a.473.473,0,0,1,.12-.221Zm.04,9.942a33.363,33.363,0,0,0,1.76-4.761,6.643,6.643,0,0,0,1.181.98c.32.221.419.3.419.481a2.2,2.2,0,0,1-.1.46c-.521,1.62-1.12,3.161-1.7,4.52a2.489,2.489,0,0,0-.281.78.255.255,0,0,1-.24.281.9.9,0,0,1-.38-.12,12.062,12.062,0,0,1-1.64-1A9.921,9.921,0,0,0,1639.87,821.23Zm.86-15.023c.161-.18.22-.18.4-.1a19.729,19.729,0,0,1,2.841,2.2c.08.06.12.121.12.16,0,.06-.04.121-.12.24l-.9,1.3c-.139.2-.2.18-.359.06a18.486,18.486,0,0,0-2.9-2.361c-.1-.06-.14-.1-.14-.14,0-.059.04-.12.14-.24Zm4.941,17.264c-1.96,0-2.62.04-2.74.04-.2,0-.22-.021-.22-.22V821.85c0-.2.019-.219.22-.219.08,0,.48.039,1.42.039v-3.74c0-1.261-.04-1.862-.04-1.981,0-.2.02-.22.22-.22.12,0,.781.041,2.7.041h5.822c1.921,0,2.581-.041,2.7-.041.221,0,.24.02.24.22,0,.1-.04.72-.04,1.96v3.761c.7-.02,1.021-.039,1.08-.039.221,0,.24.019.24.219v1.441c0,.2-.019.22-.24.22-.1,0-.78-.04-2.72-.04Zm6.582-16.664c1.8,0,2.42-.039,2.54-.039.2,0,.2.019.2.239,0,.12-.019.66-.019,1.921v3.28c0,1.261.019,1.8.019,1.921,0,.2,0,.22-.2.22-.12,0-.74-.04-2.54-.04h-4.4c-1.781,0-2.42.04-2.54.04-.2,0-.221-.021-.221-.22,0-.12.04-.66.04-1.921v-3.28c0-1.261-.04-1.8-.04-1.921,0-.22.02-.239.221-.239.12,0,.759.039,2.54.039Zm-4.621,14.863v-4.181h-1.441v4.181Zm-.561-13.2v1.3h5.9v-1.3Zm5.9,2.881h-5.9v1.34h5.9Zm-2.181,10.322v-4.181h-1.42v4.181Zm1.74-4.181v4.181h1.5v-4.181Z" fill="#0069c7"/>
      <path id="Path_1624" data-name="Path 1624" d="M1660.97,811.448c.179-.219.24-.24.42-.139a16.472,16.472,0,0,1,2.9,2.08c.08.08.141.139.141.2s-.04.121-.12.221l-.92,1.22c-.161.22-.221.26-.381.1a14.027,14.027,0,0,0-2.88-2.24c-.1-.061-.141-.12-.141-.16,0-.061.04-.1.1-.18Zm.139,9.9a32.341,32.341,0,0,0,1.782-4.781,9.966,9.966,0,0,0,1.16,1.021c.5.359.5.359.34.959a29.741,29.741,0,0,1-1.7,4.481,3.238,3.238,0,0,0-.28.8.255.255,0,0,1-.24.281.816.816,0,0,1-.38-.14,16.963,16.963,0,0,1-1.6-1.1A9.223,9.223,0,0,0,1661.109,821.35Zm.62-14.963c.161-.2.241-.18.421-.1a17.365,17.365,0,0,1,2.781,2.18c.08.08.12.121.12.16,0,.061-.04.121-.12.24l-.9,1.221c-.179.24-.219.24-.38.1a13.866,13.866,0,0,0-2.82-2.361c-.181-.12-.181-.139,0-.36Zm4.042,11.363a1.379,1.379,0,0,1-.44.239c-.141,0-.2-.159-.36-.479a3.446,3.446,0,0,0-.88-1.181,15.909,15.909,0,0,0,5.52-5.241,5.42,5.42,0,0,0,.7-1.481c.64.1,1.4.281,1.94.42.16.061.24.141.24.241a.224.224,0,0,1-.16.24l-.08.06a15.805,15.805,0,0,0,6.382,5.341,4.815,4.815,0,0,0-.78,1.54c-.1.321-.161.46-.321.46a1.1,1.1,0,0,1-.46-.22c-.4-.259-.78-.5-1.14-.759v3.4c0,2.92.04,3.461.04,3.58,0,.2-.02.2-.24.2h-1.64c-.2,0-.221,0-.221-.2v-.76h-5.161v.861c0,.18-.02.2-.22.2h-1.66c-.2,0-.22-.02-.22-.2,0-.14.04-.681.04-3.6v-1.761c0-.639,0-1.12-.02-1.479Zm4.281-10.482c.16.1.2.179.2.279,0,.16-.08.24-.24.3a1.621,1.621,0,0,0-.54.559,14.8,14.8,0,0,1-3.141,3.261c-.22.18-.36.26-.46.26-.141,0-.221-.119-.4-.42a4,4,0,0,0-.96-1.1,12.606,12.606,0,0,0,3.2-3,6.134,6.134,0,0,0,.6-1.12A13.08,13.08,0,0,1,1670.052,807.268Zm4.661,8.741a15.787,15.787,0,0,1-3.481-3.761,17.656,17.656,0,0,1-3.161,3.761Zm-6,5.281h5.161v-3.4h-5.161Zm4.9-14.843a.58.58,0,0,1,.2-.1c.06,0,.1.039.18.119a12.081,12.081,0,0,0,4.041,3.5,6.362,6.362,0,0,0-.8,1.4c-.14.34-.2.48-.339.48a1.2,1.2,0,0,1-.5-.22,14.274,14.274,0,0,1-4.061-4.061c-.1-.18-.06-.2.141-.34Z" fill="#0069c7"/>
      <path id="Path_1625" data-name="Path 1625" d="M1684.151,815.369c.2-.18.26-.2.42-.08.5.38,1,.8,1.5,1.24l.241-.58a6.755,6.755,0,0,0,.44-1.761,11.085,11.085,0,0,1,1.76.741c.2.1.26.18.26.3a.548.548,0,0,1-.22.38,2.435,2.435,0,0,0-.42.86,15.133,15.133,0,0,1-.6,1.421,23.688,23.688,0,0,1,1.78,2c.14.139.14.2-.04.38l-1,1.08c-.1.1-.16.16-.22.16s-.12-.06-.18-.14a20.376,20.376,0,0,0-1.36-1.7,14.41,14.41,0,0,1-3.981,3.941c-.24.16-.36.24-.461.24-.139,0-.219-.14-.42-.46a3.994,3.994,0,0,0-.9-1,11.985,11.985,0,0,0,4.422-4.141c-.62-.621-1.261-1.2-1.881-1.721-.16-.12-.14-.179.02-.34Zm-1.1-3.461a6.767,6.767,0,0,0,.34-.98,12.847,12.847,0,0,1,1.64.72c.2.1.3.2.3.321s-.08.179-.22.3a2.9,2.9,0,0,0-.44.66,14.033,14.033,0,0,1-2.04,2.781c-.22.2-.34.32-.441.32s-.2-.12-.359-.36a3.733,3.733,0,0,0-1.02-.96A8.787,8.787,0,0,0,1683.051,811.908Zm.9-1.381c-1.74,0-2.32.041-2.44.041-.2,0-.22-.02-.22-.22v-1.44c0-.22.02-.24.22-.24.12,0,.7.039,2.44.039h1.061v-.66a11.545,11.545,0,0,0-.12-2.12c.74.02,1.339.059,2,.139.22.021.339.1.339.2a1.054,1.054,0,0,1-.139.42,4.019,4.019,0,0,0-.1,1.359v.66h.82c1.741,0,2.321-.039,2.441-.039.2,0,.22.02.22.24v1.44c0,.2-.021.22-.22.22-.12,0-.7-.041-2.441-.041Zm4.381.561c.22-.1.26-.1.36.08a13.907,13.907,0,0,0,2.521,3.421,5.991,5.991,0,0,0-1.08.86c-.221.22-.341.34-.441.34-.12,0-.219-.12-.42-.381a22.323,22.323,0,0,1-2.28-3.46c-.1-.2-.06-.24.16-.341Zm6.361,1.28a23.908,23.908,0,0,1-1.02,5.621,12.406,12.406,0,0,1-4,5.841c-.261.2-.381.3-.5.3-.1,0-.2-.1-.4-.36a3.469,3.469,0,0,0-1.14-1,10.325,10.325,0,0,0,4.221-5.462,21.805,21.805,0,0,0,.86-4.941c-1.441,0-1.941.04-2.04.04-.221,0-.24-.019-.24-.22v-1.459c0-.2.019-.221.24-.221.1,0,.6.04,2.14.04.02-.54.041-1.1.041-1.681a19.513,19.513,0,0,0-.161-2.82c.741.019,1.361.06,2.061.12.2.04.3.12.3.239a2.345,2.345,0,0,1-.141.541,10.645,10.645,0,0,0-.1,1.981c0,.56-.019,1.1-.04,1.62h1.4c1.62,0,2.16-.04,2.28-.04.181,0,.22.04.22.24-.02.7-.039,1.28-.039,1.9a62.29,62.29,0,0,1-.561,9.122,2.213,2.213,0,0,1-2.52,2.181,11.947,11.947,0,0,1-1.221-.041c-.56-.019-.56-.019-.68-.68a4,4,0,0,0-.46-1.38,11.847,11.847,0,0,0,1.92.16c.62,0,.881-.22,1.04-1.24a60.657,60.657,0,0,0,.5-8.4Z" fill="#0069c7"/>
      <path id="Path_1626" data-name="Path 1626" d="M1704.951,818.01c-1.78,0-2.381.039-2.5.039-.22,0-.239-.02-.239-.239v-1.421c0-.2.019-.22.239-.22.12,0,.721.04,2.5.04h4.982v-1.461h-2.362c-1.92,0-2.62.041-2.759.041-.2,0-.221-.02-.221-.221,0-.119.04-.679.04-1.98v-3.561c0-1.3-.04-1.86-.04-2,0-.2.02-.22.221-.22.139,0,.839.041,2.759.041h7.082c1.941,0,2.641-.041,2.781-.041.2,0,.22.02.22.22,0,.119-.04.7-.04,2v3.561c0,1.3.04,1.881.04,1.98,0,.2-.02.221-.22.221-.14,0-.84-.041-2.781-.041h-2.661v1.461h5.321c1.781,0,2.381-.04,2.5-.04.2,0,.22.02.22.22v1.421c0,.219-.019.239-.22.239-.12,0-.72-.039-2.5-.039h-4.06a17.057,17.057,0,0,0,7.182,3.68,5.692,5.692,0,0,0-.9,1.38c-.18.361-.24.5-.4.5a1.663,1.663,0,0,1-.48-.139,15.563,15.563,0,0,1-6.721-4.581c0,2.6.139,4.8.139,5.241,0,.2-.019.22-.219.22h-1.761c-.22,0-.239-.02-.239-.22,0-.441.12-2.581.139-5.161a16.024,16.024,0,0,1-6.381,4.541,1.636,1.636,0,0,1-.48.16c-.14,0-.22-.12-.38-.481a4.974,4.974,0,0,0-.961-1.28,15.276,15.276,0,0,0,6.742-3.86Zm4.982-7.942v-1.56h-3.282v1.56Zm0,3.1v-1.54h-3.282v1.54Zm2.059-4.66v1.56h3.6v-1.56Zm3.6,3.12h-3.6v1.54h3.6Z" fill="#0069c7"/>
    </g>
    <path id="Path_1627" data-name="Path 1627" d="M1412,868v212h370" fill="none" stroke="#0069c7" stroke-miterlimit="10" stroke-width="1"/>
    <g id="Group_810" data-name="Group 810">
      <g id="Group_809" data-name="Group 809">
        <path id="Path_1628" data-name="Path 1628" d="M1389.964,962.027c-1.765,0-2.359.036-2.467.036-.18,0-.2-.017-.2-.2v-1.386c0-.2.018-.2.2-.2.108,0,.7.018,2.467.018h1.818v-1.17a19.923,19.923,0,0,0-.126-2.557,16.075,16.075,0,0,1,1.891.144c.18,0,.288.09.288.18a.941.941,0,0,1-.126.378,6.179,6.179,0,0,0-.108,1.819V960.3h2.556c1.747,0,2.36-.018,2.486-.018.162,0,.179,0,.179.2v1.386c0,.181-.017.2-.179.2-.126,0-.739-.036-2.486-.036h-1.872a18.256,18.256,0,0,0,5.006,6.159,4.57,4.57,0,0,0-.883,1.206c-.126.252-.2.378-.288.378s-.2-.108-.378-.289a17.778,17.778,0,0,1-4.195-6.049c0,1.621.017,3.223.036,4.628H1394c1.4,0,1.855-.037,1.963-.037.18,0,.2.018.2.2v1.314c0,.2-.017.216-.2.216-.108,0-.559-.036-1.963-.036h-.4c.018,1.711.054,2.9.054,3.079s-.018.2-.2.2h-1.549c-.2,0-.216-.018-.216-.2s.037-1.387.073-3.079h-.325c-1.4,0-1.854.036-1.962.036-.18,0-.2-.019-.2-.216v-1.314c0-.181.019-.2.2-.2.108,0,.558.037,1.962.037h.342c.036-1.4.054-3.007.054-4.61a16.817,16.817,0,0,1-4.105,6.014c-.18.162-.288.269-.377.269s-.163-.107-.29-.341a5.9,5.9,0,0,0-.809-1.063v1.729c0,1.764.036,2.647.036,2.737,0,.18-.019.2-.2.2h-1.531c-.162,0-.18-.018-.18-.2,0-.108.036-.973.036-2.737v-4.087c0-.6,0-1.315.019-2.034-.343.449-.685.9-1.045,1.313-.126.145-.234.234-.325.234s-.143-.108-.2-.324a5.17,5.17,0,0,0-.612-1.548,15.936,15.936,0,0,0,3.421-5.852,6.2,6.2,0,0,0,.269-1.279,12.56,12.56,0,0,1,1.747.559c.2.09.288.144.288.27s-.053.2-.2.324a1.743,1.743,0,0,0-.36.72,26.074,26.074,0,0,1-1.17,2.629v7.292a16.647,16.647,0,0,0,4.717-6.248Z" fill="#0069c7"/>
        <path id="Path_1629" data-name="Path 1629" d="M1383.284,979.84c.144-.181.2-.181.36-.091a13.907,13.907,0,0,1,2.592,1.891c.073.054.109.09.109.144s-.036.108-.109.216l-.809,1.188c-.055.09-.091.126-.145.126q-.054,0-.162-.108a13.6,13.6,0,0,0-2.557-2.017c-.089-.053-.126-.089-.126-.143a.433.433,0,0,1,.109-.2Zm.036,8.948a30.082,30.082,0,0,0,1.584-4.285,5.972,5.972,0,0,0,1.063.882c.288.2.378.27.378.432a1.929,1.929,0,0,1-.09.414c-.469,1.458-1.009,2.845-1.53,4.07a2.191,2.191,0,0,0-.252.7.23.23,0,0,1-.217.252.8.8,0,0,1-.342-.109,10.74,10.74,0,0,1-1.477-.9A9.019,9.019,0,0,0,1383.32,988.788Zm.774-13.521c.144-.163.2-.163.36-.091a17.82,17.82,0,0,1,2.557,1.98c.072.055.108.109.108.145,0,.053-.036.108-.108.216l-.81,1.171c-.127.179-.18.162-.324.053a16.722,16.722,0,0,0-2.611-2.125c-.09-.053-.126-.09-.126-.126,0-.053.036-.107.126-.216Zm4.447,15.538c-1.764,0-2.358.036-2.467.036-.179,0-.2-.018-.2-.2v-1.3c0-.181.018-.2.2-.2.072,0,.433.037,1.28.037v-3.368c0-1.134-.037-1.674-.037-1.782,0-.181.018-.2.2-.2.108,0,.7.036,2.43.036h5.241c1.728,0,2.322-.036,2.43-.036.2,0,.216.017.216.2,0,.09-.036.648-.036,1.764v3.386c.631-.019.919-.037.973-.037.2,0,.215.018.215.2v1.3c0,.18-.017.2-.215.2-.09,0-.7-.036-2.45-.036Zm5.924-15c1.621,0,2.179-.036,2.287-.036.18,0,.18.017.18.215,0,.109-.018.594-.018,1.729v2.953c0,1.134.018,1.62.018,1.728,0,.18,0,.2-.18.2-.108,0-.666-.036-2.287-.036H1390.5c-1.6,0-2.179.036-2.287.036-.18,0-.2-.019-.2-.2,0-.108.036-.594.036-1.728v-2.953c0-1.135-.036-1.62-.036-1.729,0-.2.017-.215.2-.215.108,0,.684.036,2.287.036Zm-4.159,13.378v-3.764h-1.3v3.764Zm-.5-11.884v1.17h5.311V977.3Zm5.311,2.593H1389.8V981.1h5.311Zm-1.963,9.291v-3.764h-1.278v3.764Zm1.567-3.764v3.764h1.35v-3.764Z" fill="#0069c7"/>
      </g>
    </g>
    <g id="Group_812" data-name="Group 812">
      <g id="Group_811" data-name="Group 811">
        <path id="Path_1630" data-name="Path 1630" d="M1382,871.252a3.332,3.332,0,0,1,3.346-2.337c1.9,0,3.264,1.169,3.264,2.85a2.581,2.581,0,0,1-2.209,2.673v.143a2.877,2.877,0,0,1,2.466,2.945,3.266,3.266,0,0,1-3.506,3.394,3.393,3.393,0,0,1-3.569-2.321l1.28-.48a2.184,2.184,0,0,0,2.289,1.712,2.07,2.07,0,0,0,2.129-2.288c0-1.505-.848-2.386-2.625-2.386h-.9v-1.136h.8c1.648,0,2.48-.816,2.48-2.145a1.776,1.776,0,0,0-1.921-1.872,2.046,2.046,0,0,0-2.049,1.681Z" fill="#0069c7"/>
        <path id="Path_1631" data-name="Path 1631" d="M1397.906,877.734c0,1.986-1.456,3.186-3.617,3.186-2.144,0-3.6-1.168-3.6-3.138,0-1.376.753-2.224,2.482-3.041-1.585-.784-2.161-1.664-2.161-2.945a2.991,2.991,0,0,1,3.281-2.881c1.953,0,3.329,1.185,3.329,2.833,0,1.28-.624,2.081-2.192,2.77C1397.282,875.366,1397.906,876.294,1397.906,877.734Zm-3.793-2.528c-1.537.72-2.144,1.44-2.144,2.513a2.1,2.1,0,0,0,2.32,2.161,2.06,2.06,0,0,0,2.337-2.113c0-1.025-.5-1.7-2.177-2.417Zm.384-1.137c1.44-.624,1.857-1.3,1.857-2.289a1.862,1.862,0,0,0-2.065-1.825,1.825,1.825,0,0,0-2.017,1.841c0,.9.433,1.473,1.905,2.129Z" fill="#0069c7"/>
        <path id="Path_1632" data-name="Path 1632" d="M1389.456,886.614a1.538,1.538,0,0,1-1.549,1.55,1.557,1.557,0,0,1-1.561-1.55,1.538,1.538,0,0,1,1.561-1.536A1.52,1.52,0,0,1,1389.456,886.614Zm-2.521,0a.956.956,0,0,0,.972.974.946.946,0,0,0,.96-.974.935.935,0,0,0-.96-.96A.945.945,0,0,0,1386.935,886.614Zm10.1,1.55a2.282,2.282,0,0,0-2.292-2.074c-1.6,0-2.777,1.37-2.777,3.969s1.19,3.968,2.777,3.968a2.289,2.289,0,0,0,2.395-2.112l1.062.358a3.31,3.31,0,0,1-3.47,2.676c-2.265,0-3.943-1.78-3.943-4.878s1.691-4.9,3.943-4.9a3.313,3.313,0,0,1,3.406,2.7Z" fill="#0069c7"/>
      </g>
    </g>
    <g id="Group_814" data-name="Group 814">
      <g id="Group_813" data-name="Group 813">
        <path id="Path_1633" data-name="Path 1633" d="M1382,1057.252a3.332,3.332,0,0,1,3.346-2.337c1.9,0,3.264,1.169,3.264,2.85a2.581,2.581,0,0,1-2.209,2.673v.143a2.877,2.877,0,0,1,2.466,2.945,3.266,3.266,0,0,1-3.506,3.394,3.393,3.393,0,0,1-3.569-2.321l1.28-.48a2.184,2.184,0,0,0,2.289,1.712,2.07,2.07,0,0,0,2.129-2.288c0-1.505-.848-2.386-2.625-2.386h-.9v-1.136h.8c1.648,0,2.48-.816,2.48-2.145a1.776,1.776,0,0,0-1.921-1.872,2.046,2.046,0,0,0-2.049,1.681Z" fill="#0069c7"/>
        <path id="Path_1634" data-name="Path 1634" d="M1397.667,1056.1a22.11,22.11,0,0,0-3.378,10.612h-1.473a22.953,22.953,0,0,1,3.522-10.484h-5.49v-1.121h6.819Z" fill="#0069c7"/>
        <path id="Path_1635" data-name="Path 1635" d="M1389.456,1072.614a1.538,1.538,0,0,1-1.549,1.55,1.557,1.557,0,0,1-1.561-1.55,1.538,1.538,0,0,1,1.561-1.536A1.52,1.52,0,0,1,1389.456,1072.614Zm-2.521,0a.956.956,0,0,0,.972.974.946.946,0,0,0,.96-.974.935.935,0,0,0-.96-.96A.945.945,0,0,0,1386.935,1072.614Zm10.1,1.55a2.282,2.282,0,0,0-2.292-2.074c-1.6,0-2.777,1.37-2.777,3.969s1.19,3.968,2.777,3.968a2.289,2.289,0,0,0,2.395-2.112l1.062.358a3.31,3.31,0,0,1-3.47,2.676c-2.265,0-3.943-1.78-3.943-4.878s1.691-4.9,3.943-4.9a3.313,3.313,0,0,1,3.406,2.7Z" fill="#0069c7"/>
      </g>
    </g>
    <g id="Group_816" data-name="Group 816">
      <g id="Group_815" data-name="Group 815">
        <path id="Path_1636" data-name="Path 1636" d="M1419.69,1097.854c0,4.242-1.248,6.066-3.521,6.066s-3.505-1.793-3.505-6.034c0-4.226,1.3-5.971,3.537-5.971S1419.69,1093.628,1419.69,1097.854Zm-5.666.015c0,3.586.7,4.946,2.145,4.946,1.457,0,2.161-1.36,2.161-4.946s-.688-4.849-2.129-4.849C1414.776,1093.02,1414.024,1094.269,1414.024,1097.869Z" fill="#0069c7"/>
        <path id="Path_1637" data-name="Path 1637" d="M1423.336,1097.021a3.291,3.291,0,0,1,2.674-1.665,1.945,1.945,0,0,1,2.049,1.649,3.416,3.416,0,0,1,2.72-1.649,2.11,2.11,0,0,1,2.194,2.337v6.019h-1.313v-5.555c0-1.152-.5-1.664-1.345-1.664a2.812,2.812,0,0,0-2.176,1.616v5.6h-1.282v-5.555c0-1.183-.479-1.664-1.28-1.664a2.868,2.868,0,0,0-2.209,1.616v5.6h-1.28v-8.18h1.248Z" fill="#0069c7"/>
        <path id="Path_1638" data-name="Path 1638" d="M1437.319,1093.964h-1.6v-1.585h1.6Zm-.143,9.748h-1.313v-8.18h1.313Z" fill="#0069c7"/>
        <path id="Path_1639" data-name="Path 1639" d="M1441.367,1097.021a3.789,3.789,0,0,1,2.865-1.665,2.145,2.145,0,0,1,2.274,2.337v6.019h-1.329v-5.555c0-1.168-.5-1.664-1.376-1.664a3.251,3.251,0,0,0-2.385,1.616v5.6h-1.3v-8.18h1.248Z" fill="#0069c7"/>
      </g>
    </g>
    <g id="Group_818" data-name="Group 818">
      <g id="Group_817" data-name="Group 817">
        <path id="Path_1640" data-name="Path 1640" d="M1562.23,1097.86c0,4.484.037,5.293.037,5.4,0,.179-.019.2-.2.2h-1.3c-.162,0-.18-.019-.18-.2v-.792h-1.656v1.422c0,.18-.019.2-.181.2h-1.332c-.18,0-.2-.018-.2-.2,0-.108.036-1.027.036-5.545v-3.926c0-3.259-.036-4.213-.036-4.321,0-.18.018-.2.2-.2.126,0,.469.037,1.549.037h1.548c1.081,0,1.422-.037,1.548-.037.18,0,.2.019.2.2,0,.108-.037.99-.037,3.637Zm-3.294-6.284v3.728h1.656v-3.728Zm1.656,9.255v-3.889h-1.656v3.889Zm4.79-4.789c-1.711,0-2.3.035-2.413.035-.2,0-.216-.017-.216-.216v-1.242c0-.18.018-.2.216-.2.108,0,.7.036,2.413.036h1.3V1092.6h-.847c-1.6,0-2.16.036-2.269.036-.2,0-.215-.019-.215-.2v-1.259c0-.2.017-.217.215-.217.109,0,.667.036,2.269.036h.847a15.066,15.066,0,0,0-.126-2.034c.7.017,1.188.054,1.854.126.18.017.288.09.288.179a.975.975,0,0,1-.108.378,4.184,4.184,0,0,0-.09,1.351h1.206c1.639,0,2.179-.036,2.287-.036.18,0,.2.018.2.217v1.259c0,.18-.018.2-.2.2-.108,0-.648-.036-2.287-.036H1568.5v1.854h1.909c1.71,0,2.3-.036,2.412-.036.2,0,.216.018.216.2v1.242c0,.2-.017.216-.216.216-.107,0-.7-.035-2.412-.035Zm.071,3.385c-1.71,0-2.286.036-2.394.036-.2,0-.216-.019-.216-.2V1098c0-.18.017-.2.216-.2.108,0,.684.036,2.394.036H1569a13.157,13.157,0,0,0-.126-1.584c.685.036,1.333.09,1.819.162.2.036.306.107.306.2a.61.61,0,0,1-.09.306,2.282,2.282,0,0,0-.09.918c1.224,0,1.71-.036,1.8-.036.2,0,.217.018.217.2v1.261c0,.179-.019.2-.217.2-.09,0-.576-.019-1.8-.036v1.782c0,.828.018,1.6.018,2.215a1.673,1.673,0,0,1-.63,1.53,4.144,4.144,0,0,1-2.341.4c-.54,0-.558,0-.684-.54a4.016,4.016,0,0,0-.54-1.315c.629.054,1.17.071,1.764.071.433,0,.594-.143.594-.557v-3.583Zm-.306.5c.18-.108.235-.108.378.018a14.292,14.292,0,0,1,1.657,2.071c.108.162.089.215-.09.341l-1.1.757c-.107.071-.162.108-.216.108s-.09-.037-.143-.126a15.151,15.151,0,0,0-1.585-2.215c-.126-.144-.126-.2.09-.324Z" fill="#0069c7"/>
        <path id="Path_1641" data-name="Path 1641" d="M1580.555,1089.487c1.17,0,1.71-.035,1.818-.035.162,0,.18.018.18.216,0,.107-.036.63-.036,1.71v2.233c0,1.1.036,1.6.036,1.71,0,.2-.018.216-.18.216-.108,0-.648-.036-1.818-.036h-2.917v5.834c0,2.485.036,3.709.036,3.835,0,.181-.019.2-.2.2h-1.531c-.18,0-.2-.017-.2-.2,0-.126.036-1.35.036-3.835v-7.8c0-2.5-.036-3.764-.036-3.871,0-.2.018-.216.2-.216.126,0,.81.035,2.124.035Zm-2.917,1.351v1.062h3.115v-1.062Zm3.115,2.287h-3.115v1.08h3.115Zm-.685,11c-.18,0-.2-.018-.2-.216,0-.108.036-.6.036-3.259v-1.585c0-1.584-.036-2.124-.036-2.251,0-.179.018-.2.2-.2.126,0,.558.035,1.927.035h2.431c1.368,0,1.8-.035,1.927-.035.179,0,.2.018.2.2,0,.109-.035.649-.035,1.946v1.782c0,2.61.035,3.1.035,3.186,0,.181-.018.2-.2.2h-1.3c-.18,0-.2-.018-.2-.2v-.557h-3.3v.738c0,.2-.017.216-.215.216Zm1.494-4.879h3.3v-1.207h-3.3Zm3.3,2.557v-1.261h-3.3v1.261Zm5.924-2.36c0,1.261.073,2.7.073,3.583a1.958,1.958,0,0,1-.523,1.658c-.378.341-.882.485-2.574.485-.54,0-.54.018-.649-.558a5.63,5.63,0,0,0-.432-1.314,12.414,12.414,0,0,0,1.512.09c.595,0,.739-.162.739-.7V1095.5h-2.953c-1.405,0-1.872.036-1.981.036-.18,0-.2-.017-.2-.216,0-.107.036-.522.036-1.584v-2.485c0-1.044-.036-1.477-.036-1.584,0-.2.018-.216.2-.216.109,0,.576.035,1.981.035h2.647c1.4,0,1.891-.035,2-.035.181,0,.2.018.2.216,0,.107-.036.846-.036,2.376Zm-5.185-8.606v1.062h3.331v-1.062Zm3.331,3.367v-1.08H1585.6v1.08Z" fill="#0069c7"/>
      </g>
    </g>
    <g id="Group_820" data-name="Group 820">
      <g id="Group_819" data-name="Group 819">
        <path id="Path_1642" data-name="Path 1642" d="M1738.775,1095.021a3.373,3.373,0,0,1,3.474-3.106,2.944,2.944,0,0,1,3.249,3.025c0,1.281-.479,2.242-2.417,3.938a10.924,10.924,0,0,0-3.073,3.729h5.507v1.1h-6.835v-.992a13.029,13.029,0,0,1,3.425-4.546c1.649-1.537,2.017-2.209,2.017-3.234a1.789,1.789,0,0,0-1.889-1.92c-1.169,0-1.936.768-2.145,2.3Z" fill="#0069c7"/>
        <path id="Path_1643" data-name="Path 1643" d="M1754.57,1097.854c0,4.242-1.248,6.066-3.521,6.066s-3.505-1.793-3.505-6.034c0-4.226,1.3-5.971,3.537-5.971S1754.57,1093.628,1754.57,1097.854Zm-5.666.015c0,3.586.7,4.946,2.145,4.946,1.457,0,2.161-1.36,2.161-4.946s-.689-4.849-2.129-4.849S1748.9,1094.269,1748.9,1097.869Z" fill="#0069c7"/>
        <path id="Path_1644" data-name="Path 1644" d="M1758.216,1097.021a3.29,3.29,0,0,1,2.674-1.665,1.943,1.943,0,0,1,2.048,1.649,3.419,3.419,0,0,1,2.721-1.649,2.11,2.11,0,0,1,2.194,2.337v6.019h-1.313v-5.555c0-1.152-.5-1.664-1.345-1.664a2.812,2.812,0,0,0-2.176,1.616v5.6h-1.282v-5.555c0-1.183-.479-1.664-1.28-1.664a2.867,2.867,0,0,0-2.209,1.616v5.6h-1.28v-8.18h1.248Z" fill="#0069c7"/>
        <path id="Path_1645" data-name="Path 1645" d="M1772.2,1093.964h-1.6v-1.585h1.6Zm-.143,9.748h-1.313v-8.18h1.313Z" fill="#0069c7"/>
        <path id="Path_1646" data-name="Path 1646" d="M1776.248,1097.021a3.788,3.788,0,0,1,2.865-1.665,2.145,2.145,0,0,1,2.274,2.337v6.019h-1.329v-5.555c0-1.168-.5-1.664-1.376-1.664a3.251,3.251,0,0,0-2.385,1.616v5.6H1775v-8.18h1.248Z" fill="#0069c7"/>
      </g>
    </g>
    <path id="Path_1647" data-name="Path 1647" d="M1412,1058.919l53,3.081,53-3,52-39,53-64,53-56,53-28,53,12" fill="none" stroke="#0069c7" stroke-miterlimit="10" stroke-width="2"/>
    <path id="Path_1648" data-name="Path 1648" d="M1411.735,1059,1465,1069l53-10,52-11,53-26,53-17h53l53,3" fill="none" stroke="#0069c7" stroke-linecap="round" stroke-miterlimit="10" stroke-width="2" stroke-dasharray="0 5"/>
    <path id="Path_1649" data-name="Path 1649" d="M1412,1065l53,10,53-13,52-20,53-1,53-8h106" fill="none" stroke="#0069c7" stroke-miterlimit="10" stroke-width="2" opacity="0.5"/>
    <g id="Group_822" data-name="Group 822">
      <g id="Group_821" data-name="Group 821">
        <path id="Path_1650" data-name="Path 1650" d="M1647.61,977.084a20.276,20.276,0,0,1-.288,3.6,9.942,9.942,0,0,1-1.344,3.6c-.113.208-.193.3-.272.3s-.161-.08-.305-.256a4.664,4.664,0,0,0-.976-.912,8.049,8.049,0,0,0,1.36-3.314,17.308,17.308,0,0,0,.224-3.137c0-1.5-.031-2.113-.031-2.209,0-.176.016-.192.175-.192.1,0,.641.032,2.161.032h8.148c1.52,0,2.033-.032,2.129-.032.176,0,.192.016.192.192v1.153c0,.176-.016.192-.192.192-.1,0-.609-.033-2.129-.033h-8.852Zm8.756-5.539a5.777,5.777,0,0,0-.1-1.12c.576.015,1.2.048,1.712.1.128.016.208.063.208.16a.608.608,0,0,1-.08.223,2,2,0,0,0-.08.769v.608c0,.721.032,1.057.032,1.137,0,.16-.016.176-.176.176-.1,0-.656-.031-2.224-.031h-6.9c-1.569,0-2.129.031-2.225.031-.161,0-.176-.016-.176-.176,0-.1.032-.448.032-1.137v-.576a8.013,8.013,0,0,0-.081-1.265c.593.017,1.137.048,1.666.1.159.031.223.08.223.16,0,.112-.064.176-.1.287a1.492,1.492,0,0,0-.064.593v.576h3.218v-.512a9.761,9.761,0,0,0-.1-1.7c.576.017,1.232.048,1.728.113.144.015.224.08.224.16a1.09,1.09,0,0,1-.095.32,3.522,3.522,0,0,0-.081,1.088v.528h3.426Zm-2.753,6.835a5.343,5.343,0,0,0,1.969,3.058,7.88,7.88,0,0,0,3.569,1.552,5.455,5.455,0,0,0-.592,1.184c-.113.3-.144.416-.288.416a1.194,1.194,0,0,1-.369-.1,9.081,9.081,0,0,1-3.137-1.648,6.418,6.418,0,0,1-1.744-2.274,6.228,6.228,0,0,1-1.041,1.617,7.668,7.668,0,0,1-3.762,2.29,1.216,1.216,0,0,1-.368.095c-.144,0-.208-.111-.336-.385a4.09,4.09,0,0,0-.72-1.007,7.163,7.163,0,0,0,4.113-2.1,5.449,5.449,0,0,0,1.073-3.249,6.166,6.166,0,0,0-.064-1.3c.576.032,1.12.065,1.648.128.193.017.305.1.305.208a1.012,1.012,0,0,1-.112.353,3.185,3.185,0,0,0-.112.736Zm-2.978-.481c.208.065.24.08.177.241a9.582,9.582,0,0,1-1.281,2.673c-.1.144-.112.144-.3.048l-1.057-.5c-.208-.1-.208-.16-.112-.273a6.85,6.85,0,0,0,1.233-2.465c.032-.176.08-.176.288-.1Zm5.459.177a2.178,2.178,0,0,0,.272-.753,12.35,12.35,0,0,1,1.376.5c.257.113.32.177.32.273s-.048.144-.144.224a1.376,1.376,0,0,0-.288.32,11.153,11.153,0,0,1-1.248,1.7c-.176.192-.257.289-.353.289s-.192-.064-.367-.192a5.806,5.806,0,0,0-1.009-.481A9.385,9.385,0,0,0,1656.094,978.076Z" fill="#0069c7"/>
        <path id="Path_1651" data-name="Path 1651" d="M1665.467,971.865v1.521c.929,0,1.281-.032,1.392-.032.161,0,.177.015.177.175,0,.1-.033.817-.033,2.914v.064a3.187,3.187,0,0,0,1.873-1.792,1.867,1.867,0,0,0,.176-.736,12.161,12.161,0,0,1,1.249.335c.192.064.24.128.24.192a.254.254,0,0,1-.1.209,2,2,0,0,0-.288.543,5.124,5.124,0,0,1-1.953,2.322.653.653,0,0,1-.32.144c-.128,0-.224-.128-.384-.417a3.845,3.845,0,0,0-.5-.64v3.714a7.5,7.5,0,0,0,2.674-2.994,3.914,3.914,0,0,0,.352-.992,10.669,10.669,0,0,1,1.232.3c.176.065.272.128.272.225s-.064.176-.176.3a2.173,2.173,0,0,0-.384.591l-.064.128h1.873a.859.859,0,0,0,.352-.063.638.638,0,0,1,.208-.048c.128,0,.288.1.624.464.272.3.416.479.416.608a.357.357,0,0,1-.175.272,1.739,1.739,0,0,0-.353.545,8.543,8.543,0,0,1-1.36,2.033,10.32,10.32,0,0,0,3.233,1.152,4.256,4.256,0,0,0-.528,1.153c-.144.447-.16.447-.657.32a9.265,9.265,0,0,1-3.153-1.57,10.2,10.2,0,0,1-3.217,1.666,1.216,1.216,0,0,1-.368.095c-.144,0-.192-.095-.32-.385a3.775,3.775,0,0,0-.464-.751c0,.335.016.48.016.512,0,.16-.016.176-.177.176h-.944c-.144,0-.16-.016-.16-.176v-.673h-3.249v1.041c0,.145-.016.161-.176.161h-.945c-.16,0-.176-.016-.176-.161,0-.112.032-.832.032-4.658v-2.689c0-2.576-.032-3.328-.032-3.442,0-.16.016-.175.176-.175.1,0,.465.032,1.473.032v-1.521h-.064c-1.3,0-1.713.031-1.809.031-.16,0-.176-.015-.176-.191v-1.1c0-.176.016-.193.176-.193.1,0,.512.032,1.809.032h2.817c1.3,0,1.729-.032,1.825-.032.144,0,.16.017.16.193v1.1c0,.176-.016.191-.16.191-.1,0-.529-.031-1.825-.031Zm-1.537,2.817c-.016.736-.048,1.312-.064,1.745a5.281,5.281,0,0,1-.592,2.3c-.064.127-.128.192-.192.192-.048,0-.1-.048-.16-.145a3.61,3.61,0,0,0-.416-.527V979.5h3.249v-1.232h-.3a1.261,1.261,0,0,1-.737-.145c-.208-.159-.319-.383-.319-.895v-2.546Zm-1.424,3.3a4.536,4.536,0,0,0,.5-2.032c.016-.336.032-.768.032-1.265h-.528Zm3.249,3.938v-1.089h-3.249v1.089Zm-1.36-8.531v-1.521h-.465v1.521Zm.88,1.3v1.632a1.118,1.118,0,0,0,.064.561.428.428,0,0,0,.336.112h.08v-2.3Zm5.042,7.123a8.163,8.163,0,0,1-1.057-1.473c-.288.289-.624.576-.992.881-.192.144-.288.225-.368.225-.1,0-.16-.1-.3-.336a2.339,2.339,0,0,0-.593-.673c0,1.409,0,2.321.017,2.817A8.827,8.827,0,0,0,1670.317,981.8Zm2.625-11.141c.16-.1.192-.08.3.033a11.908,11.908,0,0,1,2.033,2.576c.1.161.1.225-.112.336l-.816.481c-.208.112-.241.112-.337-.065-.128-.239-.256-.479-.4-.719-1.616.223-3.233.383-4.962.512a1.411,1.411,0,0,0-.592.127.488.488,0,0,1-.272.08c-.1,0-.192-.046-.224-.223-.1-.464-.176-.9-.24-1.393.48.032.864.032,1.28.032a12.248,12.248,0,0,0,.688-1.52,4.959,4.959,0,0,0,.305-1.073,10.911,10.911,0,0,1,1.392.384c.176.065.256.128.256.256a.329.329,0,0,1-.144.256,3.135,3.135,0,0,0-.4.593c-.192.368-.368.673-.56,1.024.88-.048,1.776-.128,2.689-.224-.208-.272-.433-.528-.656-.768-.112-.129-.1-.192.064-.288Zm-2.753,8.516-.064.1a6.5,6.5,0,0,0,1.216,1.6,7.837,7.837,0,0,0,1.169-1.7Zm2.513-3.938a.412.412,0,0,0,.112.336c.08.08.24.1.56.1a.874.874,0,0,0,.608-.144c.161-.129.208-.449.241-1.1a2.4,2.4,0,0,0,.848.449c.368.111.4.127.336.543-.1.736-.208,1.009-.576,1.232a2.614,2.614,0,0,1-1.537.321c-1.185,0-1.344-.08-1.568-.224a1.045,1.045,0,0,1-.385-.96v-.736a8.272,8.272,0,0,0-.064-1.265c.513.032.865.064,1.329.112.192.016.24.081.24.144a.4.4,0,0,1-.064.224,1.124,1.124,0,0,0-.08.545Z" fill="#0069c7"/>
        <path id="Path_1652" data-name="Path 1652" d="M1682.331,974.139c.065-.785.1-1.3.112-2.162a6.155,6.155,0,0,0-.112-1.264,12.42,12.42,0,0,1,2.081.336.33.33,0,0,1,.272.336.718.718,0,0,1-.08.3,1.5,1.5,0,0,0-.208.752c-.048.512-.064.9-.144,1.681h2.433c.736,0,1.489-.032,2.225-.032.256,0,.336.049.336.224,0,.208-.032.848-.064,1.7a27.287,27.287,0,0,1-.592,5.266,2.55,2.55,0,0,1-1.889,2.161,6.826,6.826,0,0,1-1.617.175.388.388,0,0,1-.384-.319,3.343,3.343,0,0,0-.928-1.456,6.56,6.56,0,0,0,2.177-.145c.432-.144.64-.4.832-1.121a22.423,22.423,0,0,0,.48-4.8h-3.233a11.939,11.939,0,0,1-1.424,4.434,10.344,10.344,0,0,1-3.394,3.3.729.729,0,0,1-.368.128.411.411,0,0,1-.3-.16,4.072,4.072,0,0,0-1.345-.929,8.915,8.915,0,0,0,3.762-3.265,9.328,9.328,0,0,0,1.152-3.458h-1.44c-.785,0-1.553.033-2.3.08-.16.017-.224-.08-.24-.271-.064-.385-.1-.961-.128-1.553,1.008.065,1.728.065,2.656.065Zm6-2.93c.081-.064.145-.049.241.031a7.413,7.413,0,0,1,1.52,1.713.161.161,0,0,1-.048.256l-.672.5a.167.167,0,0,1-.272-.048,7.949,7.949,0,0,0-1.617-1.857Zm1.425-1.041c.1-.064.144-.047.241.033a6.654,6.654,0,0,1,1.52,1.649.184.184,0,0,1-.048.287l-.64.5a.164.164,0,0,1-.272-.047,7.584,7.584,0,0,0-1.6-1.842Z" fill="#0069c7"/>
        <path id="Path_1653" data-name="Path 1653" d="M1701.933,972.217a2.35,2.35,0,0,0,1.1-.144.267.267,0,0,1,.176-.063.526.526,0,0,1,.272.127,5.8,5.8,0,0,1,1.04,1.121.417.417,0,0,1,.08.208.437.437,0,0,1-.208.32,2.9,2.9,0,0,0-.591.7,25.289,25.289,0,0,1-2.049,2.993,37.643,37.643,0,0,1,4.433,3.874.364.364,0,0,1,.128.224.393.393,0,0,1-.111.24,8.722,8.722,0,0,1-1.073,1.089.277.277,0,0,1-.193.1.328.328,0,0,1-.223-.129,29.3,29.3,0,0,0-4.161-3.969,23.042,23.042,0,0,1-5.379,4.226,1.031,1.031,0,0,1-.368.128.356.356,0,0,1-.272-.145,4.4,4.4,0,0,0-1.345-1.04,19.455,19.455,0,0,0,5.635-4.081,19.691,19.691,0,0,0,3.008-4.017l-4.129.015c-.832,0-1.665.031-2.529.1-.128.015-.176-.1-.208-.272a9.339,9.339,0,0,1-.144-1.665c.864.064,1.665.064,2.7.064Z" fill="#0069c7"/>
        <path id="Path_1654" data-name="Path 1654" d="M1713.436,980.652c.175.129.223.193.223.289s-.08.161-.208.241a2.259,2.259,0,0,0-.528.447,16.792,16.792,0,0,1-2.529,2.193c-.193.128-.289.192-.384.192-.113,0-.176-.112-.353-.352a4.144,4.144,0,0,0-.848-.9,11.563,11.563,0,0,0,2.641-1.969,4.764,4.764,0,0,0,.7-.9A8.571,8.571,0,0,1,1713.436,980.652Zm6.753-4.977c.193-.112.241-.1.353.016a16.582,16.582,0,0,1,2.673,3.362c.1.143.08.191-.1.3l-1.089.61a.681.681,0,0,1-.192.08c-.048,0-.08-.032-.127-.112-.209-.384-.434-.769-.657-1.137-1.361.128-2.818.257-4.274.352v2.8c0,1.778.032,2.369.032,2.449,0,.161-.015.176-.175.176h-1.457c-.16,0-.176-.015-.176-.176,0-.1.031-.671.031-2.449V979.26c-1.44.095-2.881.16-4.258.192a3.2,3.2,0,0,0-.832.112.946.946,0,0,1-.32.065c-.08,0-.16-.065-.191-.225a14.932,14.932,0,0,1-.321-1.617c.672.049,1.217.049,1.713.049.88,0,1.857-.017,2.865-.049.207-.176.416-.351.624-.512a23.868,23.868,0,0,0-3.185-2.593c-.128-.1-.144-.112.016-.272l.752-.721c.161-.143.192-.16.321-.063l.816.576a15.751,15.751,0,0,0,1.649-1.825c-1.377.129-2.658.209-3.922.24-.481.016-.529,0-.657-.416a3.729,3.729,0,0,0-.511-1.1c1.936-.016,3.888-.113,5.922-.32a35.168,35.168,0,0,0,3.681-.512,7.533,7.533,0,0,0,1.281-.337A8.864,8.864,0,0,1,1721.6,971a.621.621,0,0,1,.16.368c0,.128-.144.192-.272.192a5.857,5.857,0,0,0-.832.064c-1.281.208-2.609.416-4.354.592l.24.144c.177.1.224.176.224.256,0,.145-.1.193-.207.256a1.437,1.437,0,0,0-.45.353,25.948,25.948,0,0,1-1.872,1.92c.433.352.849.705,1.265,1.088a25.989,25.989,0,0,0,2.209-2.352,5.246,5.246,0,0,0,.607-.9,11.539,11.539,0,0,1,1.425.688c.177.112.224.176.224.271,0,.129-.08.225-.239.3a1.5,1.5,0,0,0-.529.416,27.017,27.017,0,0,1-3.056,3.025c1.423-.064,2.8-.16,3.984-.255a11.509,11.509,0,0,0-.832-.977c-.128-.111-.111-.16.08-.271Zm-.912,4.1c.176-.112.208-.1.321.033a14.055,14.055,0,0,0,3.505,2.768,4.51,4.51,0,0,0-.865.945c-.16.24-.224.352-.336.352-.08,0-.175-.08-.351-.208a17.494,17.494,0,0,1-3.281-3.01c-.1-.128-.081-.16.111-.287Z" fill="#0069c7"/>
        <path id="Path_1655" data-name="Path 1655" d="M1731.228,970.857c1.152,0,1.5-.033,1.6-.033.145,0,.208.033.208.193a8.866,8.866,0,0,0,.1,1.776,12.54,12.54,0,0,0,6.226,9.893,4.662,4.662,0,0,0-.945,1.216c-.128.256-.191.368-.288.368-.08,0-.191-.081-.368-.207a13.762,13.762,0,0,1-5.49-7.94,13.474,13.474,0,0,1-5.891,7.971c-.191.112-.287.192-.367.192-.113,0-.176-.128-.336-.384a3.832,3.832,0,0,0-.945-1.056,11.677,11.677,0,0,0,6.435-10.357h-1.985c-1.153,0-1.505.032-1.6.032-.176,0-.191-.015-.191-.175V971c0-.16.015-.177.191-.177.1,0,.448.033,1.6.033Z" fill="#0069c7"/>
        <path id="Path_1656" data-name="Path 1656" d="M1741.48,974.346c.145-.176.193-.192.337-.112a13.326,13.326,0,0,1,2.321,1.664c.064.065.112.113.112.161s-.032.095-.1.175l-.736.977c-.129.176-.177.209-.3.08a11.238,11.238,0,0,0-2.3-1.793c-.08-.047-.113-.1-.113-.127,0-.049.033-.08.08-.144Zm.113,7.924a26.024,26.024,0,0,0,1.425-3.827,7.922,7.922,0,0,0,.927.817c.4.289.4.289.273.768a23.71,23.71,0,0,1-1.361,3.585,2.581,2.581,0,0,0-.224.641.2.2,0,0,1-.192.225.649.649,0,0,1-.3-.113,13.3,13.3,0,0,1-1.281-.88A7.4,7.4,0,0,0,1741.593,982.27Zm.5-11.973c.128-.16.192-.145.336-.08a13.8,13.8,0,0,1,2.225,1.744c.064.064.1.1.1.129s-.032.1-.1.191l-.72.977c-.144.191-.176.191-.3.08a11.111,11.111,0,0,0-2.257-1.889c-.144-.095-.144-.112,0-.289Zm3.233,9.092a1.123,1.123,0,0,1-.352.191c-.112,0-.159-.128-.288-.384a2.743,2.743,0,0,0-.7-.944,12.759,12.759,0,0,0,4.418-4.193,4.382,4.382,0,0,0,.56-1.186c.512.08,1.12.225,1.553.336.128.049.191.113.191.193a.178.178,0,0,1-.128.192l-.063.049a12.651,12.651,0,0,0,5.1,4.273,3.9,3.9,0,0,0-.624,1.232c-.08.256-.128.368-.256.368a.886.886,0,0,1-.368-.176c-.32-.207-.624-.4-.912-.608v2.721c0,2.337.031,2.77.031,2.865,0,.161-.015.161-.191.161h-1.313c-.16,0-.176,0-.176-.161v-.608h-4.129v.688c0,.145-.017.161-.177.161h-1.328c-.16,0-.177-.016-.177-.161,0-.112.032-.544.032-2.88v-1.41c0-.512,0-.9-.015-1.184Zm3.426-8.388c.128.08.16.144.16.224,0,.129-.064.192-.192.24a1.287,1.287,0,0,0-.433.448,11.837,11.837,0,0,1-2.512,2.609c-.176.144-.289.208-.369.208-.112,0-.175-.095-.32-.335a3.179,3.179,0,0,0-.769-.881,10.063,10.063,0,0,0,2.562-2.4,4.765,4.765,0,0,0,.48-.9A10.353,10.353,0,0,1,1748.748,971Zm3.73,6.995a12.638,12.638,0,0,1-2.786-3.01,14.2,14.2,0,0,1-2.529,3.01Zm-4.8,4.225h4.129V979.5h-4.129Zm3.921-11.876a.465.465,0,0,1,.16-.08c.048,0,.08.032.144.095a9.634,9.634,0,0,0,3.234,2.8,5.06,5.06,0,0,0-.641,1.12c-.112.273-.16.384-.272.384a.958.958,0,0,1-.4-.176,11.4,11.4,0,0,1-3.25-3.25c-.08-.143-.048-.159.113-.271Z" fill="#0069c7"/>
        <path id="Path_1657" data-name="Path 1657" d="M1759.562,981.8a6.874,6.874,0,0,1-1.2,2.418c-.144.191-.224.287-.32.287-.08,0-.16-.08-.32-.224a4.287,4.287,0,0,0-1.1-.768,5.1,5.1,0,0,0,1.345-2.114,13.477,13.477,0,0,0,.368-3.793c-.256.1-.512.16-.768.241-.48.144-.48.127-.624-.369a4.251,4.251,0,0,0-.481-1.008,13.929,13.929,0,0,0,3.826-1.248,9.173,9.173,0,0,1-2.049-2.337c-.72.016-1.024.032-1.1.032-.16,0-.177-.016-.177-.176v-1.073c0-.159.017-.176.177-.176.111,0,.624.032,2.112.032h1.377v-.049a7.437,7.437,0,0,0-.112-1.519c.608.016,1.169.063,1.681.111.16.016.255.065.255.145a.661.661,0,0,1-.095.3,2.13,2.13,0,0,0-.08.8v.209h1.024c1.488,0,2-.032,2.1-.032.16,0,.176.017.176.176v1.073c0,.16-.016.176-.176.176-.064,0-.3-.016-.832-.016a8.513,8.513,0,0,1-1.745,2.24,15.9,15.9,0,0,0,3.217.945,6,6,0,0,0-.416,1.024c-.128.512-.128.512-.624.385l-.465-.145v5.026c0,1.265.033,1.889.033,1.985,0,.144-.016.16-.16.16h-1.3c-.16,0-.176-.016-.176-.16,0-.112.032-.72.032-1.985v-.768h-3.361Zm3.393-1.5v-1.265h-3.089c-.016.464-.032.88-.08,1.265Zm-3.058-7.411a7.466,7.466,0,0,0,1.633,1.552,6.406,6.406,0,0,0,1.393-1.552Zm0,4.834h3.058v-.945a11.143,11.143,0,0,1-1.393-.688,12.9,12.9,0,0,1-1.665.913Zm6.372-3.97a14.6,14.6,0,0,0-.113-2.369c.592.015,1.073.049,1.617.112.16.017.224.08.224.176a1.444,1.444,0,0,1-.1.352,8.23,8.23,0,0,0-.064,1.713v4.418c0,1.36.032,2.016.032,2.113,0,.176-.016.192-.176.192h-1.281c-.16,0-.176-.016-.176-.192,0-.1.033-.753.033-2.113Zm4.481,5.458c0,1.12.032,2.386.032,3.185s-.112,1.249-.576,1.569c-.448.288-.816.4-2.321.4-.48,0-.48-.016-.592-.512a3.5,3.5,0,0,0-.513-1.216,15.3,15.3,0,0,0,1.633.08c.513,0,.7-.128.7-.641v-9.6a13.5,13.5,0,0,0-.128-2.289c.593.016,1.137.047,1.7.112.143.016.239.1.239.176a.81.81,0,0,1-.1.351,5.884,5.884,0,0,0-.08,1.617Z" fill="#0069c7"/>
      </g>
    </g>
    <g id="Group_824" data-name="Group 824">
      <g id="Group_823" data-name="Group 823">
        <path id="Path_1658" data-name="Path 1658" d="M1675.228,1043.857c1.152,0,1.5-.033,1.6-.033.144,0,.208.033.208.193a8.938,8.938,0,0,0,.1,1.776,12.539,12.539,0,0,0,6.227,9.893,4.682,4.682,0,0,0-.944,1.216c-.128.256-.192.368-.289.368-.08,0-.192-.081-.368-.207a13.762,13.762,0,0,1-5.49-7.94,13.466,13.466,0,0,1-5.891,7.971c-.191.112-.288.192-.368.192-.112,0-.176-.128-.336-.384a3.831,3.831,0,0,0-.944-1.056,11.675,11.675,0,0,0,6.435-10.357h-1.985c-1.153,0-1.505.032-1.6.032-.176,0-.192-.015-.192-.175V1044c0-.16.016-.177.192-.177.1,0,.448.033,1.6.033Z" fill="#0069c7"/>
        <path id="Path_1659" data-name="Path 1659" d="M1685.481,1047.346c.144-.176.192-.192.336-.112a13.289,13.289,0,0,1,2.321,1.664c.064.065.112.113.112.161s-.032.1-.1.175l-.736.977c-.128.176-.176.209-.3.08a11.269,11.269,0,0,0-2.305-1.793c-.08-.047-.112-.1-.112-.127,0-.049.032-.08.08-.144Zm.112,7.924a25.8,25.8,0,0,0,1.425-3.827,7.934,7.934,0,0,0,.928.817c.4.289.4.289.272.768a23.709,23.709,0,0,1-1.36,3.585,2.58,2.58,0,0,0-.224.641.2.2,0,0,1-.192.225.648.648,0,0,1-.3-.113,13.149,13.149,0,0,1-1.281-.88A7.474,7.474,0,0,0,1685.593,1055.27Zm.5-11.973c.129-.16.193-.145.337-.08a13.778,13.778,0,0,1,2.224,1.744c.064.064.1.1.1.129s-.033.1-.1.191l-.72.977c-.144.191-.176.191-.3.08a11.057,11.057,0,0,0-2.257-1.889c-.144-.095-.144-.112,0-.289Zm3.234,9.092a1.133,1.133,0,0,1-.352.191c-.113,0-.16-.128-.288-.384a2.756,2.756,0,0,0-.7-.944,12.747,12.747,0,0,0,4.417-4.193,4.354,4.354,0,0,0,.56-1.186c.513.08,1.121.225,1.553.336.128.049.192.113.192.193a.179.179,0,0,1-.128.192l-.064.049a12.654,12.654,0,0,0,5.106,4.273,3.878,3.878,0,0,0-.624,1.232c-.08.256-.129.368-.257.368a.891.891,0,0,1-.368-.176c-.32-.207-.624-.4-.912-.608v2.721c0,2.337.032,2.77.032,2.865,0,.161-.016.161-.192.161h-1.313c-.16,0-.175,0-.175-.161v-.608h-4.13v.688c0,.145-.016.161-.176.161h-1.329c-.16,0-.176-.016-.176-.161,0-.112.032-.544.032-2.88v-1.41c0-.512,0-.9-.016-1.184Zm3.425-8.388c.128.08.16.144.16.224,0,.129-.063.192-.192.24a1.294,1.294,0,0,0-.432.448,11.843,11.843,0,0,1-2.513,2.609c-.176.144-.289.208-.368.208-.112,0-.176-.095-.32-.335a3.2,3.2,0,0,0-.769-.881,10.059,10.059,0,0,0,2.561-2.4,4.771,4.771,0,0,0,.48-.9A10.34,10.34,0,0,1,1692.748,1044Zm3.73,6.995a12.636,12.636,0,0,1-2.786-3.01,14.189,14.189,0,0,1-2.528,3.01Zm-4.8,4.225h4.13V1052.5h-4.13Zm3.922-11.876a.464.464,0,0,1,.16-.08c.048,0,.08.032.143.095a9.643,9.643,0,0,0,3.234,2.8,5.1,5.1,0,0,0-.641,1.12c-.111.273-.16.384-.271.384a.96.96,0,0,1-.4-.176,11.409,11.409,0,0,1-3.249-3.25c-.08-.143-.048-.159.112-.271Z" fill="#0069c7"/>
        <path id="Path_1660" data-name="Path 1660" d="M1703.562,1054.805a6.874,6.874,0,0,1-1.2,2.418c-.144.191-.224.287-.32.287-.08,0-.16-.08-.32-.224a4.287,4.287,0,0,0-1.1-.768,5.1,5.1,0,0,0,1.345-2.114,13.478,13.478,0,0,0,.368-3.793c-.256.1-.512.16-.768.241-.48.144-.48.127-.624-.369a4.251,4.251,0,0,0-.481-1.008,13.931,13.931,0,0,0,3.826-1.248,9.174,9.174,0,0,1-2.049-2.337c-.72.016-1.024.032-1.1.032-.16,0-.177-.016-.177-.176v-1.073c0-.159.017-.176.177-.176.111,0,.624.032,2.112.032h1.377v-.049a7.437,7.437,0,0,0-.112-1.519c.608.016,1.169.063,1.681.111.16.016.255.065.255.145a.661.661,0,0,1-.095.3,2.13,2.13,0,0,0-.08.8v.209h1.024c1.488,0,2-.032,2.1-.032.16,0,.176.017.176.176v1.073c0,.16-.016.176-.176.176-.064,0-.3-.016-.832-.016a8.513,8.513,0,0,1-1.745,2.24,15.9,15.9,0,0,0,3.217.945,6,6,0,0,0-.416,1.024c-.128.512-.128.512-.624.385l-.465-.145v5.026c0,1.265.033,1.889.033,1.985,0,.144-.016.16-.16.16h-1.3c-.16,0-.176-.016-.176-.16,0-.112.032-.72.032-1.985v-.768h-3.361Zm3.393-1.5v-1.265h-3.089c-.016.464-.032.88-.08,1.265Zm-3.058-7.411a7.465,7.465,0,0,0,1.633,1.552,6.405,6.405,0,0,0,1.393-1.552Zm0,4.834h3.058v-.945a11.135,11.135,0,0,1-1.393-.688,12.891,12.891,0,0,1-1.665.913Zm6.372-3.97a14.6,14.6,0,0,0-.113-2.369c.592.015,1.073.049,1.617.112.16.017.224.08.224.176a1.444,1.444,0,0,1-.1.352,8.231,8.231,0,0,0-.064,1.713v4.418c0,1.36.032,2.016.032,2.113,0,.176-.016.192-.176.192h-1.281c-.16,0-.176-.016-.176-.192,0-.1.033-.753.033-2.113Zm4.481,5.458c0,1.12.032,2.386.032,3.185s-.112,1.249-.576,1.569c-.448.288-.816.4-2.321.4-.48,0-.48-.016-.592-.512a3.5,3.5,0,0,0-.513-1.216,15.266,15.266,0,0,0,1.633.08c.513,0,.7-.128.7-.641v-9.6a13.5,13.5,0,0,0-.128-2.289c.593.016,1.137.047,1.7.112.143.016.239.1.239.176a.81.81,0,0,1-.1.351,5.884,5.884,0,0,0-.08,1.617Z" fill="#0069c7"/>
        <path id="Path_1661" data-name="Path 1661" d="M1724.779,1045.729c.145-.047.209-.047.241.128a8.845,8.845,0,0,1,.144,1.3c0,.145-.064.176-.192.192-.865.176-1.649.289-2.641.432a44.244,44.244,0,0,1-3.121,6.867c-.064.113-.112.16-.177.16a.437.437,0,0,1-.191-.08,7.528,7.528,0,0,1-1.1-.817c-.08-.063-.112-.111-.112-.176a.306.306,0,0,1,.08-.191,32.328,32.328,0,0,0,2.769-5.586c-.608.031-1.1.031-1.6.031-.352,0-.479,0-.88-.015-.16,0-.192-.049-.224-.256a8.36,8.36,0,0,1-.161-1.361c.657.048,1.025.064,1.49.064.624,0,1.1-.016,1.84-.08.192-.672.3-1.217.416-1.793a6.21,6.21,0,0,0,.1-1.3,14.938,14.938,0,0,1,1.873.336c.16.033.256.129.256.24a.4.4,0,0,1-.143.305,1.725,1.725,0,0,0-.257.592c-.112.384-.24.881-.384,1.361A17.215,17.215,0,0,0,1724.779,1045.729Zm.449,4.291a5.615,5.615,0,0,0-.128-1.137,8.578,8.578,0,0,1,1.745.3.244.244,0,0,1,.223.255,1.953,1.953,0,0,1-.095.336,1.662,1.662,0,0,0-.065.657,20.919,20.919,0,0,0,.177,2.72,12.611,12.611,0,0,1,2.881,1.489c.16.113.176.176.1.336a9.66,9.66,0,0,1-.737,1.3c-.048.08-.1.113-.143.113s-.1-.033-.161-.1a11.942,11.942,0,0,0-1.953-1.345c0,1.6-1.152,2.337-2.976,2.337-1.761,0-2.946-.9-2.946-2.272,0-1.393,1.153-2.338,2.961-2.338a8.269,8.269,0,0,1,1.265.1C1725.276,1051.748,1725.244,1050.771,1725.228,1050.02Zm-1.136,4.033c-.8,0-1.425.32-1.425.928,0,.513.448.769,1.36.769.865,0,1.393-.465,1.393-1.137a1.845,1.845,0,0,0-.016-.32A4.08,4.08,0,0,0,1724.092,1054.053Zm2.976-7.7a.224.224,0,0,1,.337-.112,12.529,12.529,0,0,1,3.137,1.5c.1.065.145.112.145.176a.379.379,0,0,1-.065.192,9.649,9.649,0,0,1-.672,1.185c-.049.08-.1.112-.144.112a.226.226,0,0,1-.144-.063,13.819,13.819,0,0,0-3.313-1.746C1726.62,1047.122,1726.86,1046.643,1727.068,1046.354Z" fill="#0069c7"/>
        <path id="Path_1662" data-name="Path 1662" d="M1738.267,1044c.272.063.383.144.383.3a1.556,1.556,0,0,1-.159.528,9.6,9.6,0,0,0-.224,1.953c-.161,2.465-.241,4.1-.241,6.194,0,1.618.193,1.985,1.473,1.985a8.438,8.438,0,0,0,5.6-2.945,5.537,5.537,0,0,0,.368,1.521,1.045,1.045,0,0,1,.128.384c0,.143-.065.272-.321.5a9.14,9.14,0,0,1-6.066,2.4c-2.049,0-3.009-.816-3.009-3.265,0-2.69.144-4.994.224-6.914a10.648,10.648,0,0,0-.16-2.93A16.574,16.574,0,0,1,1738.267,1044Z" fill="#0069c7"/>
      </g>
    </g>
    <rect id="Rectangle_133" data-name="Rectangle 133" width="148" height="32.65" transform="translate(1632.5 960.35)" fill="none" stroke="#0069c7" stroke-miterlimit="10" stroke-width="1"/>
    <g id="Group_829" data-name="Group 829">
      <g id="Group_825" data-name="Group 825">
        <path id="Path_1663" data-name="Path 1663" d="M1491.137,921.736c0,.157-.09.292-.472.292h-12.052c-1.213,0-4.541.045-6.5.247h-.023c-.4,0-1.056-.877-1.056-1.169,2.225.292,6.43.36,7.689.36h1.484c0-.7.023-1.439.023-2.181h-.585c-1.214,0-3.35.022-5.306.225h-.023c-.4,0-1.057-.855-1.057-1.124a63.781,63.781,0,0,0,6.5.337h.495V916.34h-3.665v.652c0,.337-.315.674-.9.674a.537.537,0,0,1-.607-.54v-.067c.157-1.731.18-3.148.18-4.227a18.24,18.24,0,0,0-.293-3.552.453.453,0,0,1-.022-.158c0-.022,0-.045.022-.045a9.912,9.912,0,0,1,2.159.99l.022.022h3.125v-2.046h-1.394c-1.214,0-4.451.045-6.407.247h-.023c-.405,0-1.079-.876-1.079-1.169,2.226.293,6.363.36,7.622.36h1.281c0-.674,0-1.394-.067-2.046-1.844.158-3.867.27-5.756.27-.405,0-.809,0-1.214-.023-.225,0-.427-.112-.427-.2,0-.068.112-.135.382-.157a73.224,73.224,0,0,0,10.994-1.687,3.614,3.614,0,0,0,1.26-.607c.09-.067.135-.09.157-.09.045,0,1.349,1.282,1.349,1.777,0,.18-.135.247-.292.247a.858.858,0,0,1-.382-.09,1.759,1.759,0,0,0-.495-.09h-.112c-.877.157-2.114.315-3.53.472a.178.178,0,0,1,.112.157c0,.113-.112.225-.292.315-.36.158-.383.18-.405,1.124v.63h5.553a.5.5,0,0,0,.383-.2c.629-.9.989-1.394,1.236-1.394.45,0,2.114,1.349,2.114,1.866,0,.157-.09.292-.472.292h-8.836v2.046h3.642a.328.328,0,0,0,.292-.135c.495-.562.607-.607.719-.607.158,0,1.8.81,1.8,1.3,0,.248-.292.383-.539.517-.45.225-.45.225-.45,1.372,0,.967.09,2.226.18,3.575v.045a.8.8,0,0,1-.855.719.574.574,0,0,1-.651-.539h-4.137v2.383h3.777a.5.5,0,0,0,.382-.2c.045-.045.877-1.26,1.169-1.26.337,0,2,1.215,2,1.732,0,.157-.09.292-.472.292h-6.857c0,.764.022,1.484.022,2.181h5.846a.5.5,0,0,0,.382-.2c.63-.9.989-1.394,1.236-1.394C1489.518,919.869,1491.137,921.219,1491.137,921.736Zm-10.86-11.085h-3.192l-.135.09c-.4.247-.4.27-.4,2.046h3.732Zm0,2.7h-3.732c0,.765,0,1.6.023,2.429h3.709Zm5.4-2.45a.275.275,0,0,0-.293-.248h-3.844v2.136h4.181C1485.718,912.09,1485.718,911.461,1485.674,910.9Zm-4.137,2.45v2.429h4.137c.022-.9.044-1.709.044-2.429Z" fill="#fff"/>
        <path id="Path_1664" data-name="Path 1664" d="M1512.114,910.472c0,.135-.112.247-.495.247h-13.557a1.93,1.93,0,0,1-.36.248c-.315.157-.315.112-.315.9,0,2.99-.157,7.734-4.272,10.14a2.54,2.54,0,0,1-.764.337.081.081,0,0,1-.045-.022c0-.068.135-.2.472-.472,2.631-2.091,3.17-5.374,3.17-8.274a18.278,18.278,0,0,0-.382-4.025.4.4,0,0,1-.022-.135c0-.022,0-.045.044-.045a10.208,10.208,0,0,1,2.316.81h10.882a.467.467,0,0,0,.383-.2c.7-1.124.854-1.236,1.056-1.236C1510.653,908.741,1512.114,910.067,1512.114,910.472Zm1.124,10.455c0,.157-2.113.562-2.675,1.147a.365.365,0,0,1-.248.112c-.584,0-6.115-1.686-6.115-9.376v-.225c-.2.045-.27.09-.27.45v.562c0,8.544-8.926,9.039-9.061,9.039-.157,0-.225-.023-.225-.068,0-.067.248-.2.517-.27,5.509-1.371,7.4-4.946,7.4-8.678a8.242,8.242,0,0,0-.224-2c0-.023-.023-.045-.023-.068,0,0,0-.022.247-.022.158,0,2.384.225,2.384.652,0,.112-.135.2-.338.292-.022,0-.044.023-.067.023a9.816,9.816,0,0,0,.854,3.754c2.226-1.709,2.5-2.136,3.193-3.3.022-.045.045-.067.068-.067.067,0,.112.067.134.09,1.3,1.079,1.6,1.641,1.6,1.776,0,.18-.135.225-.338.225a1.813,1.813,0,0,1-.314-.045,1.138,1.138,0,0,0-.315-.068.864.864,0,0,0-.382.135c-.585.292-2.811,1.214-3.53,1.507,1.281,2.54,3.844,4.114,7.554,4.384C1513.193,920.882,1513.238,920.9,1513.238,920.927Zm-2.743-16.953c0,.113-.112.27-.45.405-.382.18-.4.315-.4,1.124,0,.72.022,1.8.045,2.316v.022c0,.383-.427.652-.832.652a.507.507,0,0,1-.562-.517v-.09a4.5,4.5,0,0,0,.045-.584h-11.152c0,.2.022.359.022.494,0,.4-.427.652-.809.652a.514.514,0,0,1-.585-.517v-.067c.068-.72.068-2.248.068-2.676a9.726,9.726,0,0,0-.18-1.686.917.917,0,0,0-.023-.112c0-.068.023-.068.091-.068.179,0,2.248.135,2.248.652,0,.113-.113.27-.45.405-.36.157-.405.4-.405,1.079,0,.36,0,.855.023,1.3h4.946v-1.574a13.87,13.87,0,0,0-.225-2.518.648.648,0,0,1-.022-.18c0-.045.022-.045.067-.045.2,0,2.474.225,2.474.7,0,.158-.158.315-.428.473-.449.269-.449.247-.517,1.056-.022.225-.022.382-.022,2.091h4.879c.022-.629.022-1.259.022-1.529a11.07,11.07,0,0,0-.18-1.731.957.957,0,0,0-.022-.112c0-.068.022-.068.09-.068C1508.674,903.322,1510.495,903.5,1510.495,903.974Zm-10.028,10.972c0,1.462-.742,2.631-1.663,2.631a.759.759,0,0,1-.765-.765,1.269,1.269,0,0,1,.5-.9,4.124,4.124,0,0,0,1.394-2.631c.022-.135.045-.179.067-.179A3.188,3.188,0,0,1,1500.467,914.946Z" fill="#fff"/>
        <path id="Path_1665" data-name="Path 1665" d="M1535.272,920.7c0,.157-1.574.652-2.046,1.124a.353.353,0,0,1-.292.158,7.768,7.768,0,0,1-4.25-2.856,11.739,11.739,0,0,1-6.812,3.283c-.09,0-.158,0-.158-.045s.225-.158.607-.292a11.525,11.525,0,0,0,5.734-3.868,7.984,7.984,0,0,1-1.079-3.237,18.214,18.214,0,0,1-3.868,4.182l.045.989v.045a.871.871,0,0,1-.787.9c-.292,0-.539-.2-.539-.719v-.382H1516.7c0,.562.023,1.124.023,1.618a.859.859,0,0,1-.832.832c-.292,0-.562-.18-.562-.674v-.068c.112-2.091.135-5.148.135-7.8,0-5.013-.068-5.71-.247-6.767a.777.777,0,0,0-.023-.135c0-.045.023-.067.045-.067a9.112,9.112,0,0,1,1.911.989l.023.022h.472a23.818,23.818,0,0,0-.113-3.327c-.7.045-1.529.09-2.315.157-.248,0-.877-.854-.877-1.057,1.6.18,3.642.315,4.361.315h2.766a.345.345,0,0,0,.247-.135c.023-.045.72-1.124.967-1.124a3.311,3.311,0,0,1,1.709,1.552c0,.112-.09.247-.382.247h-2.923c.045.045.067.067.067.112,0,.09-.112.18-.292.248-.112.044-.18.157-.18.584,0,.517-.022,1.417-.022,2.428h.7a.38.38,0,0,0,.292-.2c.27-.45.472-.63.562-.63.157,0,1.6.675,1.6,1.215,0,.247-.269.4-.427.517-.292.247-.315.179-.337.742-.023.7-.045,1.8-.045,3.057l.09-.045a5.553,5.553,0,0,0,3.215-4.789c-.674.135-1.214.225-1.461.293-.225.045-.338.292-.495.292-.382,0-.967-1.619-.967-1.619,0-.045,0-.045.045-.045a1.262,1.262,0,0,0,.157.023,11.4,11.4,0,0,0,1.462.09h.315c.292-.023.7-.068,1.146-.09a16.961,16.961,0,0,0,.72-3.44,1.9,1.9,0,0,0-.023-.383.4.4,0,0,1-.022-.134c0-.068.022-.068.067-.068.09,0,2.271.585,2.271.989,0,.135-.157.27-.562.338a.515.515,0,0,0-.472.337,17.932,17.932,0,0,1-1.484,2.338c1.529-.112,3.485-.315,4.519-.45a9.636,9.636,0,0,0-1.3-1.259c-.157-.112-.225-.179-.225-.224,0-.023.023-.023.068-.023.719,0,3.777.922,3.777,2.5a.7.7,0,0,1-.629.764,1.08,1.08,0,0,1-.81-.584,9.116,9.116,0,0,0-.584-.81c-.9.293-3.261.742-5.014,1.079,1.079.2,1.236.338,1.236.473a.354.354,0,0,1-.269.292c-.2.067-.27.045-.36.382a5.6,5.6,0,0,1-4.227,4,.68.68,0,0,1-.18.045c0,1.911.067,4.137.112,5.823,1.911-2.046,4.025-5.823,4.115-7.1,0-.113.022-.248.135-.248.2,0,1.731.585,1.731.967,0,.135-.18.27-.517.315-.225.022-.225.045-.382.337-.113.225-.248.45-.4.72h2.518a.345.345,0,0,0,.292-.113c.405-.4.45-.427.518-.427.247,0,1.416.719,1.416,1.214,0,.18-.135.337-.517.45-.27.09-.315.09-.495.405a17.516,17.516,0,0,1-2.068,3.08,8.781,8.781,0,0,0,5.688,2.338C1535.227,920.657,1535.272,920.68,1535.272,920.7Zm-14.592-7.352c-.9,0-1.034-.427-1.034-1.124v-.248c.022-.337.022-2,.022-3.485h-.989c-.112,3.013-.7,4.789-2,6.161v1.574h5.171c0-1.169.023-2.384.023-3.508C1521.782,912.945,1521.534,913.35,1520.68,913.35Zm-3.507-4.857-.158.135c-.292.2-.292.293-.315,1.079-.022.653-.022,2.429-.022,4.542a13.005,13.005,0,0,0,1.057-5.756Zm-.473,8.342v2.541h5.127c0-.788.022-1.642.022-2.541Zm2.968-10.747c0-.248-.045-1.012-.067-1.529h-.54a.16.16,0,0,1,.068.135.272.272,0,0,1-.158.2c-.27.135-.292.09-.292.517v2.518h.989Zm2.159,2.675c0-.112-.045-.27-.18-.27h-1.124c-.023,1.057-.023,2.159-.023,2.856,0,.854,0,.944.2.944.359,0,.449-.337.539-1.394.023-.18.023-.247.045-.247.045,0,.135,1.056.27,1.147a.919.919,0,0,1,.315.472C1521.872,910.832,1521.849,909.573,1521.827,908.763Zm8.633,5.644c0-.068-.067-.135-.179-.135h-2.833l-.2.314a7.135,7.135,0,0,0,1.394,2.878A18.809,18.809,0,0,0,1530.46,914.407Zm3.823-3.688c0,.787-1.529.989-3.261.989-1.528,0-2.09-.359-2.09-1.371v-.112c.022-.472.022-1.215.022-1.619a8.14,8.14,0,0,0-.045-1.079c0-.045-.022-.09-.022-.135s.022-.045.09-.045c.09,0,1.663.157,1.663.472,0,.09-.067.18-.225.247-.337.135-.337.248-.337,1.956,0,.517.068.63,1.169.63a7.28,7.28,0,0,0,1.125-.068c.472-.09.7-.966.989-1.933.022-.113.067-.158.09-.158.135,0,.18,1.619.382,1.687A.612.612,0,0,1,1534.283,910.719Z" fill="#fff"/>
        <path id="Path_1666" data-name="Path 1666" d="M1542.14,913.972c0,2.761-3.1,5.18-4.286,5.18a.906.906,0,0,1-1-.815c0-.368.262-.789.92-1.1,2.156-1.025,3.313-2.1,3.918-3.6.1-.237.184-.394.263-.394C1541.982,913.236,1542.14,913.236,1542.14,913.972Zm12.437-4.1c0,.342-.342.6-.973.6a2.965,2.965,0,0,1-.447-.053,15.268,15.268,0,0,0-2.919-.263,23.409,23.409,0,0,0-3.181.237c-.027.841-.027,1.788-.027,2.735,0,.92,0,1.84.027,2.682.052,1.262.236,2.1.236,2.971,0,1.577-.578,2.6-1.209,2.6-.4,0-.789-.421-.894-1.21a9.612,9.612,0,0,0-2.025-3.734c-.1-.131-.158-.21-.158-.262a.07.07,0,0,1,.079-.079.551.551,0,0,1,.263.1c.526.342,1.525,1.157,2.025,1.42a.616.616,0,0,0,.236.079c.106,0,.184-.106.184-.316.027-.552.053-1.5.053-6.836-.762.1-1.472.236-2.156.368a12.741,12.741,0,0,1-2.235.473c-1.1,0-3.418-.71-3.418-1.709,0-.421.184-.421.236-.421a1.769,1.769,0,0,1,.579.184,7.912,7.912,0,0,0,3.076.605,33.16,33.16,0,0,0,3.944-.394v-1.946c0-1.446-.447-2.261-1.577-2.261-.079,0-.158.026-.263.026h-.027c-.131,0-.368-.1-.368-.289s.211-.684,1.052-.684c.763,0,2.866.736,2.866,1.762,0,.394-.263.894-.342,1.656-.052.421-.078.973-.1,1.578.789-.105,1.5-.21,2.025-.289,1.262-.184,1.262-.684,2.366-.684C1552.894,908.529,1554.577,909.213,1554.577,909.87Zm.946,7.31a1.09,1.09,0,0,1-.973,1.157,1.21,1.21,0,0,1-.92-.658,13.066,13.066,0,0,0-4.154-4.154c-.342-.21-.5-.342-.5-.421,0-.026.026-.052.105-.052C1550.133,913.052,1555.523,915.129,1555.523,917.18Z" fill="#fff"/>
        <path id="Path_1667" data-name="Path 1667" d="M1561.781,915.26c0,.5-.289.868-.684.868a1.27,1.27,0,0,1-.894-.578,15.1,15.1,0,0,0-1.919-1.972c-.132-.106-.21-.211-.21-.29,0-.105.131-.184.368-.184C1559.6,913.131,1561.781,913.867,1561.781,915.26Zm8.361-2.761c0,.526-.631.947-.867,1.42-4.26,7.994-9.887,8.993-10.36,8.993-.132,0-.184-.026-.184-.079,0-.1.21-.263.631-.447,5.285-2.314,8.624-8.966,8.624-9.808,0-.315-.21-.447-.631-.552-.315-.052-.42-.184-.42-.315a.9.9,0,0,1,.972-.658C1568.8,911.053,1570.142,911.869,1570.142,912.5Zm-5.179,1.473c0,.526-.316.894-.71.894-.29,0-.605-.184-.9-.684a12.806,12.806,0,0,0-1.63-2.235.62.62,0,0,1-.157-.289c0-.105.078-.158.236-.158C1562.754,911.5,1564.963,912.578,1564.963,913.972Z" fill="#fff"/>
        <path id="Path_1668" data-name="Path 1668" d="M1581.212,913.446a.905.905,0,0,1-.92.947,1.747,1.747,0,0,1-1.026-.421,12.454,12.454,0,0,0-4.47-2.419v1.893c0,3.26.079,6.574.1,6.968.053,1.735-.394,2.6-.92,2.6-.552,0-1.157-.894-1.157-2.34a6.781,6.781,0,0,1,.132-1.21,13.71,13.71,0,0,0,.315-1.63c.158-1.262.237-4.549.237-7.336,0-5.259-.316-6.258-1.236-6.31-.368-.027-.526-.132-.526-.316a.8.8,0,0,1,.815-.6c.842,0,2.787,1.078,2.787,2.367,0,.552-.262,1.157-.368,2.156-.1.841-.157,2.1-.184,3.5.1,0,.237-.026.368-.026.4,0,.816-.027,1.236-.027C1580.292,911.237,1581.212,912.631,1581.212,913.446Z" fill="#fff"/>
        <path id="Path_1669" data-name="Path 1669" d="M1600.222,907.136c0,.263-.263.5-.762.657-.474.131-.868.71-1.42,1.525-.842,1.262-1.683,2.445-2.551,3.576.947.447,2.34,1.288,2.34,2.366a.828.828,0,0,1-.788.921,1.528,1.528,0,0,1-1.052-.579,11.816,11.816,0,0,0-1.578-1.367c-6.153,7.283-12.726,8.072-12.752,8.072-.106,0-.158-.026-.158-.052,0-.106.289-.29.815-.5a28.844,28.844,0,0,0,10.781-8.414,20.873,20.873,0,0,0-2.525-1.289c-.42-.157-.631-.289-.631-.341s.1-.079.316-.079a14.339,14.339,0,0,1,3.654.683c1.236-1.577,3.1-4.364,3.1-4.864,0-.263-.21-.394-.683-.394a10.21,10.21,0,0,0-2.682.578,2.412,2.412,0,0,1-.658.132,1.567,1.567,0,0,1-.342-.053c-2.945,3.6-5.206,5.969-8.177,7.31a2.366,2.366,0,0,1-.631.21c-.053,0-.079,0-.079-.026q0-.118.473-.474c3.866-2.892,7.626-8.466,7.626-9.255,0-.421-.368-.684-.921-.815-.236-.053-.341-.158-.341-.289a1.027,1.027,0,0,1,1.078-.71c1.078,0,2.34,1,2.34,1.814a1.9,1.9,0,0,1-.5,1.131,16,16,0,0,0,3.629-.737,1.52,1.52,0,0,1,.736-.341C1598.171,905.532,1600.222,906.478,1600.222,907.136Z" fill="#fff"/>
        <path id="Path_1670" data-name="Path 1670" d="M1618.549,907.4c0,.236-.185.5-.579.762a3.122,3.122,0,0,0-1.157,1.236c-3.418,6.074-7.6,10.78-13.7,12.621a2.406,2.406,0,0,1-.683.131c-.106,0-.158-.026-.158-.052,0-.1.263-.29.71-.5,7.283-3.286,12.332-13.042,12.332-13.594,0-.368-.29-.631-.763-.631a32.277,32.277,0,0,0-5.864,1.341,9.092,9.092,0,0,1-2.366.631c-1.078,0-3.445-1.288-3.445-2.1,0-.421.211-.579.447-.579a.588.588,0,0,1,.474.263c.236.368,1.13.526,2.235.526.578,0,1.183-.052,1.788-.1,1.078-.132,4.943-.71,6.073-.868.684-.105.973-.71,1.552-.71C1616.314,905.768,1618.549,906.689,1618.549,907.4Zm1.551-1.92a.8.8,0,0,1-.763.841.989.989,0,0,1-.71-.368,8.275,8.275,0,0,0-2.261-1.84c-.21-.1-.394-.184-.394-.263a2.249,2.249,0,0,1,1.025-.158C1618.233,903.691,1620.1,904.164,1620.1,905.479Zm2.734-1.288a.8.8,0,0,1-.762.841,1,1,0,0,1-.684-.342,9,9,0,0,0-2.314-1.788c-.21-.1-.42-.184-.42-.236,0-.211,1.1-.211,1.157-.211C1621.257,902.455,1622.834,903.06,1622.834,904.191Z" fill="#fff"/>
      </g>
      <g id="Group_828" data-name="Group 828">
        <circle id="Ellipse_633" data-name="Ellipse 633" cx="1.641" cy="1.641" r="1.641" transform="translate(1615.971 919.379)" fill="#fff"/>
        <g id="Group_827" data-name="Group 827">
          <g id="Group_826" data-name="Group 826">
            <path id="Path_1671" data-name="Path 1671" d="M1617.23,922.1h-.3v-2.168h.695a1.359,1.359,0,0,1,.3.032.739.739,0,0,1,.246.1.505.505,0,0,1,.167.185.589.589,0,0,1,.062.281.52.52,0,0,1-.147.385.682.682,0,0,1-.38.187l.606.995h-.367l-.551-.964h-.325Zm0-1.219h.349a1.026,1.026,0,0,0,.2-.018.49.49,0,0,0,.161-.06.3.3,0,0,0,.108-.107.317.317,0,0,0-.1-.433.5.5,0,0,0-.155-.057,1.011,1.011,0,0,0-.187-.017h-.37Z" fill="#fff"/>
          </g>
        </g>
      </g>
    </g>
    <g id="Group_830" data-name="Group 830">
      <path id="Path_1672" data-name="Path 1672" d="M1658.578,831.841a8.105,8.105,0,0,0,0,12.831l-.365.433c-2.689-1.96-3.8-4.089-3.8-6.849s1.107-4.889,3.8-6.85Z" fill="#0069c7"/>
      <path id="Path_1673" data-name="Path 1673" d="M1665.728,833.661a12.214,12.214,0,0,0-.084-1.709,14.005,14.005,0,0,1,1.541.112c.14.015.21.084.21.183a.606.606,0,0,1-.1.294,3.309,3.309,0,0,0-.084,1.12v3.166h2.34c1.359,0,1.835-.028,1.919-.028.154,0,.168.014.168.169,0,.084-.028.574-.028,1.708v3.95c0,1.261.028,1.835.028,1.919,0,.127-.014.141-.168.141h-1.191c-.14,0-.154-.014-.154-.141v-.518h-6.948c-1.372,0-1.849.028-1.933.028-.14,0-.154-.014-.154-.154v-1.092c0-.155.014-.168.154-.168.084,0,.561.027,1.933.027h6.948v-1.61h-6.233c-1.373,0-1.835.028-1.919.028-.155,0-.168-.015-.168-.154V839.9c0-.14.013-.154.168-.154.084,0,.546.028,1.919.028h6.233v-1.583h-6.864c-1.372,0-1.821.028-1.9.028-.14,0-.154-.014-.154-.154v-1.092c0-.155.014-.169.154-.169.084,0,.533.028,1.9.028h2.466Zm-3.068-.868c.154-.084.2-.084.266.028a12.941,12.941,0,0,1,1.555,2.69c.056.139.042.154-.14.265l-.939.491c-.182.1-.224.084-.28-.042a11.407,11.407,0,0,0-1.485-2.717c-.084-.112-.07-.154.1-.238Zm7.242.435a2.911,2.911,0,0,0,.2-.589,8.866,8.866,0,0,1,1.331.631c.126.069.154.112.154.2,0,.055-.028.1-.14.2a.768.768,0,0,0-.238.337,14.035,14.035,0,0,1-1.317,2.143c-.14.182-.2.266-.28.266a.785.785,0,0,1-.337-.168,5.992,5.992,0,0,0-.924-.49A12.438,12.438,0,0,0,1669.9,833.228Z" fill="#0069c7"/>
      <path id="Path_1674" data-name="Path 1674" d="M1676.687,839.545a14.622,14.622,0,0,1-1.33,1.162c-.14.112-.224.183-.294.183s-.14-.113-.224-.323a3.889,3.889,0,0,0-.49-.995,9.674,9.674,0,0,0,3.655-4.145h-1.583c-1.064,0-1.4.027-1.484.027-.14,0-.154-.014-.154-.153v-1.037c0-.14.014-.155.154-.155.084,0,.42.029,1.484.029h.266v-.575a8.661,8.661,0,0,0-.111-1.709c.532.014.952.042,1.456.1.14.015.224.085.224.141a.657.657,0,0,1-.084.294,2.973,2.973,0,0,0-.084,1.121v.63h.589a.47.47,0,0,0,.266-.056.421.421,0,0,1,.154-.057c.084,0,.224.084.518.365.266.266.379.406.379.505a.275.275,0,0,1-.14.223,1.421,1.421,0,0,0-.323.406,14.11,14.11,0,0,1-1.19,2.045,7.973,7.973,0,0,0,2.059,1.64,3.358,3.358,0,0,0-.561.91c-.1.21-.168.308-.266.308-.07,0-.154-.056-.28-.168a10.461,10.461,0,0,1-1.2-1.3v3.937c0,1.036.029,1.583.029,1.652,0,.141-.014.154-.169.154h-1.12c-.154,0-.168-.013-.168-.154,0-.084.027-.616.027-1.652Zm4.679,4.622c-1.33,0-1.793.028-1.877.028-.14,0-.154-.013-.154-.154v-1.106c0-.14.014-.155.154-.155.084,0,.547.029,1.877.029h1.177v-5.24h-.63c-1.247,0-1.682.015-1.766.015-.126,0-.14,0-.14-.141v-1.106c0-.14.014-.14.14-.14.084,0,.519.014,1.766.014h.63v-2.228a12.686,12.686,0,0,0-.112-2.115c.532.015,1.065.042,1.555.1.126.013.224.07.224.139a.564.564,0,0,1-.07.294,4.583,4.583,0,0,0-.112,1.541v2.27h.882c1.247,0,1.681-.014,1.765-.014.14,0,.154,0,.154.14v1.106c0,.141-.014.141-.154.141-.084,0-.518-.015-1.765-.015h-.882v5.24h1.274c1.331,0,1.78-.029,1.864-.029.153,0,.167.015.167.155v1.106c0,.141-.014.154-.167.154-.084,0-.533-.028-1.864-.028Z" fill="#0069c7"/>
      <path id="Path_1675" data-name="Path 1675" d="M1692.088,842.108a25.608,25.608,0,0,0,2.9-.995c-.014.309-.014.645,0,.939.028.476.014.476-.379.631a45.152,45.152,0,0,1-4.412,1.47,1.682,1.682,0,0,0-.448.182.391.391,0,0,1-.224.1c-.084,0-.14-.084-.182-.2a12.982,12.982,0,0,1-.3-1.47c.449-.057.813-.126,1.261-.21l.3-.057v-8.152a17.642,17.642,0,0,0-.1-2.129c.505.013,1.051.042,1.527.1.14.015.224.084.224.155a.657.657,0,0,1-.084.294,5.218,5.218,0,0,0-.084,1.555V836.2h1.093c1.191,0,1.569-.028,1.652-.028.141,0,.155.014.155.14v1.121c0,.139-.014.154-.155.154-.083,0-.461-.028-1.652-.028h-1.093Zm5.281-5.225a15.707,15.707,0,0,0,2.34-1.666,2.873,2.873,0,0,0,.644-.729,8.813,8.813,0,0,1,1.064.952.332.332,0,0,1,.127.252c0,.1-.084.155-.2.183a2.594,2.594,0,0,0-.7.448,18.771,18.771,0,0,1-3.278,2.1v3.614c0,.546.028.687.182.826.154.113.42.155,1.149.155.714,0,1.009-.071,1.246-.294.253-.225.309-.715.323-2.074a4.906,4.906,0,0,0,1.05.42c.351.1.351.1.336.477-.069,1.471-.294,2.058-.728,2.381a4.112,4.112,0,0,1-2.3.463c-1.373,0-1.891-.084-2.283-.351-.3-.21-.463-.435-.463-1.246v-8.307a17.619,17.619,0,0,0-.112-2.311c.532.013,1.065.042,1.513.1.168.029.28.084.28.2a.511.511,0,0,1-.1.28,5.051,5.051,0,0,0-.1,1.639Z" fill="#0069c7"/>
      <path id="Path_1676" data-name="Path 1676" d="M1705.276,842.444c-1.218,0-1.625.029-1.709.029-.14,0-.154-.015-.154-.155v-.9c0-.141.014-.154.154-.154.084,0,.491.028,1.709.028h.533v-.925h-.21c-1.065,0-1.444.014-1.528.014-.139,0-.154,0-.154-.14,0-.1.028-.462.028-1.316v-2.172c0-.84-.028-1.219-.028-1.3,0-.14.015-.153.154-.153.084,0,.463.027,1.528.027h.223v-.9h-.49c-1.177,0-1.583.028-1.652.028-.141,0-.155-.014-.155-.154v-.9c0-.139.014-.154.155-.154.069,0,.475.028,1.652.028h.49a8.64,8.64,0,0,0-.1-1.442,11.834,11.834,0,0,1,1.33.1c.154.029.224.071.224.141a.629.629,0,0,1-.07.252,2.26,2.26,0,0,0-.1.91v.042h.378c1.093,0,1.513-.028,1.6-.028.141,0,.154.015.154.154v.9c0,.14-.013.154-.154.154-.084,0-.5-.028-1.6-.028h-.378v.9h.21c1.065,0,1.443-.027,1.541-.027.14,0,.155.013.155.153,0,.084-.029.463-.029,1.3v1.135a7.068,7.068,0,0,0,1.653-2.059,3.545,3.545,0,0,0,.224-.6,7.309,7.309,0,0,1,1.065.435c.126.069.224.14.224.21s-.042.14-.127.224a1.534,1.534,0,0,0-.279.406,7.951,7.951,0,0,1-1.611,2.115c-.155.141-.239.225-.308.225-.085,0-.141-.1-.28-.295a4.662,4.662,0,0,0-.561-.588v.967c0,.854.029,1.232.029,1.316,0,.14-.015.14-.155.14-.1,0-.476-.014-1.541-.014h-.224v.925h.28c1.205,0,1.64-.028,1.724-.028.139,0,.153.013.153.154v.9c0,.14-.014.155-.153.155-.084,0-.519-.029-1.724-.029h-.28c0,1.3.028,2.017.028,2.087,0,.126-.014.141-.154.141h-1.036c-.14,0-.155-.015-.155-.141,0-.084.015-.784.029-2.087Zm.6-5.113v-.994h-.771v.994Zm0,2.018v-1.065h-.771v1.065Zm1.176-3.012v.994h.8v-.994Zm.8,1.947h-.8v1.065h.8Zm3.572-.238c.153-.07.181-.056.238.084a11.4,11.4,0,0,0,.966,2.045,10.43,10.43,0,0,0,.49-1.065,4.83,4.83,0,0,0,.337-1.218,8.139,8.139,0,0,1,1.19.448c.14.07.2.126.2.2a.383.383,0,0,1-.141.28,2.039,2.039,0,0,0-.307.6,10.578,10.578,0,0,1-.939,1.849,8.045,8.045,0,0,0,3.1,2.059,5.466,5.466,0,0,0-.645.966c-.112.225-.168.322-.252.322a.8.8,0,0,1-.322-.126,2.968,2.968,0,0,0-5.716.1.912.912,0,0,1-.336.126c-.1,0-.154-.084-.28-.309a3.606,3.606,0,0,0-.672-.826,8.794,8.794,0,0,0,3.487-2.256,13.442,13.442,0,0,1-1.358-2.689c-.056-.154-.028-.182.154-.252Zm0-3.166c-1.234,0-1.654.028-1.751.028-.141,0-.154-.013-.154-.139v-1.038c0-.154.013-.168.154-.168.1,0,.517.029,1.751.029H1712v-.267a8.074,8.074,0,0,0-.1-1.484c.519.013.925.042,1.415.1.141.014.21.084.21.141a.654.654,0,0,1-.069.294,2.455,2.455,0,0,0-.07.952v.267h.868c1.247,0,1.667-.029,1.751-.029.14,0,.154.014.154.168v1.038c0,.126-.014.139-.154.139-.084,0-.5-.028-1.751-.028Zm2.745.421c.141-.071.183-.071.252.055a7.822,7.822,0,0,0,1.905,2.339,4.793,4.793,0,0,0-.742.673c-.154.168-.225.252-.294.252s-.141-.07-.3-.224a10.867,10.867,0,0,1-1.751-2.465c-.069-.126-.027-.182.154-.266Z" fill="#0069c7"/>
      <path id="Path_1677" data-name="Path 1677" d="M1718.071,831.406c2.69,1.961,3.8,4.09,3.8,6.85s-1.106,4.889-3.8,6.849l-.364-.433a8.107,8.107,0,0,0,0-12.831Z" fill="#0069c7"/>
    </g>
    <g id="Group_846" data-name="Group 846">
      <g id="Group_831" data-name="Group 831">
        <rect id="Rectangle_134" data-name="Rectangle 134" width="166" height="36.757" transform="translate(1464 895.243)" fill="#0069c7"/>
      </g>
      <g id="Group_845" data-name="Group 845">
        <g id="Group_840" data-name="Group 840">
          <g id="Group_832" data-name="Group 832">
            <path id="Path_1678" data-name="Path 1678" d="M1491.137,923.736c0,.157-.09.292-.472.292h-12.052c-1.213,0-4.541.045-6.5.247h-.023c-.4,0-1.056-.877-1.056-1.169,2.225.292,6.43.36,7.689.36h1.484c0-.7.023-1.439.023-2.181h-.585c-1.214,0-3.35.022-5.306.225h-.023c-.4,0-1.057-.855-1.057-1.124a63.781,63.781,0,0,0,6.5.337h.495V918.34h-3.665v.652c0,.337-.315.674-.9.674a.537.537,0,0,1-.607-.54v-.067c.157-1.731.18-3.148.18-4.227a18.24,18.24,0,0,0-.293-3.552.453.453,0,0,1-.022-.158c0-.022,0-.045.022-.045a9.912,9.912,0,0,1,2.159.99l.022.022h3.125v-2.046h-1.394c-1.214,0-4.451.045-6.407.247h-.023c-.405,0-1.079-.876-1.079-1.169,2.226.293,6.363.36,7.622.36h1.281c0-.674,0-1.394-.067-2.046-1.844.158-3.867.27-5.756.27-.405,0-.809,0-1.214-.023-.225,0-.427-.112-.427-.2,0-.068.112-.135.382-.157a73.224,73.224,0,0,0,10.994-1.687,3.614,3.614,0,0,0,1.26-.607c.09-.067.135-.09.157-.09.045,0,1.349,1.282,1.349,1.777,0,.18-.135.247-.292.247a.858.858,0,0,1-.382-.09,1.759,1.759,0,0,0-.495-.09h-.112c-.877.157-2.114.315-3.53.472a.178.178,0,0,1,.112.157c0,.113-.112.225-.292.315-.36.158-.383.18-.405,1.124v.63h5.553a.5.5,0,0,0,.383-.2c.629-.9.989-1.394,1.236-1.394.45,0,2.114,1.349,2.114,1.866,0,.157-.09.292-.472.292h-8.836v2.046h3.642a.328.328,0,0,0,.292-.135c.495-.562.607-.607.719-.607.158,0,1.8.81,1.8,1.3,0,.248-.292.383-.539.517-.45.225-.45.225-.45,1.372,0,.967.09,2.226.18,3.575v.045a.8.8,0,0,1-.855.719.574.574,0,0,1-.651-.539h-4.137v2.383h3.777a.5.5,0,0,0,.382-.2c.045-.045.877-1.26,1.169-1.26.337,0,2,1.215,2,1.732,0,.157-.09.292-.472.292h-6.857c0,.764.022,1.484.022,2.181h5.846a.5.5,0,0,0,.382-.2c.63-.9.989-1.394,1.236-1.394C1489.518,921.869,1491.137,923.219,1491.137,923.736Zm-10.86-11.085h-3.192l-.135.09c-.4.247-.4.27-.4,2.046h3.732Zm0,2.7h-3.732c0,.765,0,1.6.023,2.429h3.709Zm5.4-2.45a.275.275,0,0,0-.293-.248h-3.844v2.136h4.181C1485.718,914.09,1485.718,913.461,1485.674,912.9Zm-4.137,2.45v2.429h4.137c.022-.9.044-1.709.044-2.429Z" fill="#fff"/>
          </g>
          <g id="Group_833" data-name="Group 833">
            <path id="Path_1679" data-name="Path 1679" d="M1512.114,912.472c0,.135-.112.247-.495.247h-13.557a1.93,1.93,0,0,1-.36.248c-.315.157-.315.112-.315.9,0,2.99-.157,7.734-4.272,10.14a2.54,2.54,0,0,1-.764.337.081.081,0,0,1-.045-.022c0-.068.135-.2.472-.472,2.631-2.091,3.17-5.374,3.17-8.274a18.278,18.278,0,0,0-.382-4.025.4.4,0,0,1-.022-.135c0-.022,0-.045.044-.045a10.208,10.208,0,0,1,2.316.81h10.882a.467.467,0,0,0,.383-.2c.7-1.124.854-1.236,1.056-1.236C1510.653,910.741,1512.114,912.067,1512.114,912.472Zm1.124,10.455c0,.157-2.113.562-2.675,1.147a.365.365,0,0,1-.248.112c-.584,0-6.115-1.686-6.115-9.376v-.225c-.2.045-.27.09-.27.45v.562c0,8.544-8.926,9.039-9.061,9.039-.157,0-.225-.023-.225-.068,0-.067.248-.2.517-.27,5.509-1.371,7.4-4.946,7.4-8.678a8.242,8.242,0,0,0-.224-2c0-.023-.023-.045-.023-.068,0,0,0-.022.247-.022.158,0,2.384.225,2.384.652,0,.112-.135.2-.338.292-.022,0-.044.023-.067.023a9.816,9.816,0,0,0,.854,3.754c2.226-1.709,2.5-2.136,3.193-3.3.022-.045.045-.067.068-.067.067,0,.112.067.134.09,1.3,1.079,1.6,1.641,1.6,1.776,0,.18-.135.225-.338.225a1.813,1.813,0,0,1-.314-.045,1.138,1.138,0,0,0-.315-.068.864.864,0,0,0-.382.135c-.585.292-2.811,1.214-3.53,1.507,1.281,2.54,3.844,4.114,7.554,4.384C1513.193,922.882,1513.238,922.9,1513.238,922.927Zm-2.743-16.953c0,.113-.112.27-.45.405-.382.18-.4.315-.4,1.124,0,.72.022,1.8.045,2.316v.022c0,.383-.427.652-.832.652a.507.507,0,0,1-.562-.517v-.09a4.5,4.5,0,0,0,.045-.584h-11.152c0,.2.022.359.022.494,0,.4-.427.652-.809.652a.514.514,0,0,1-.585-.517v-.067c.068-.72.068-2.248.068-2.676a9.726,9.726,0,0,0-.18-1.686.917.917,0,0,0-.023-.112c0-.068.023-.068.091-.068.179,0,2.248.135,2.248.652,0,.113-.113.27-.45.405-.36.157-.405.4-.405,1.079,0,.36,0,.855.023,1.3h4.946v-1.574a13.87,13.87,0,0,0-.225-2.518.648.648,0,0,1-.022-.18c0-.045.022-.045.067-.045.2,0,2.474.225,2.474.7,0,.158-.158.315-.428.473-.449.269-.449.247-.517,1.056-.022.225-.022.382-.022,2.091h4.879c.022-.629.022-1.259.022-1.529a11.07,11.07,0,0,0-.18-1.731.957.957,0,0,0-.022-.112c0-.068.022-.068.09-.068C1508.674,905.322,1510.495,905.5,1510.495,905.974Zm-10.028,10.972c0,1.462-.742,2.631-1.663,2.631a.759.759,0,0,1-.765-.765,1.269,1.269,0,0,1,.5-.9,4.124,4.124,0,0,0,1.394-2.631c.022-.135.045-.179.067-.179A3.188,3.188,0,0,1,1500.467,916.946Z" fill="#fff"/>
          </g>
          <g id="Group_834" data-name="Group 834">
            <path id="Path_1680" data-name="Path 1680" d="M1535.272,922.7c0,.157-1.574.652-2.046,1.124a.353.353,0,0,1-.292.158,7.768,7.768,0,0,1-4.25-2.856,11.739,11.739,0,0,1-6.812,3.283c-.09,0-.158,0-.158-.045s.225-.158.607-.292a11.525,11.525,0,0,0,5.734-3.868,7.984,7.984,0,0,1-1.079-3.237,18.214,18.214,0,0,1-3.868,4.182l.045.989v.045a.871.871,0,0,1-.787.9c-.292,0-.539-.2-.539-.719v-.382H1516.7c0,.562.023,1.124.023,1.618a.859.859,0,0,1-.832.832c-.292,0-.562-.18-.562-.674v-.068c.112-2.091.135-5.148.135-7.8,0-5.013-.068-5.71-.247-6.767a.777.777,0,0,0-.023-.135c0-.045.023-.067.045-.067a9.112,9.112,0,0,1,1.911.989l.023.022h.472a23.818,23.818,0,0,0-.113-3.327c-.7.045-1.529.09-2.315.157-.248,0-.877-.854-.877-1.057,1.6.18,3.642.315,4.361.315h2.766a.345.345,0,0,0,.247-.135c.023-.045.72-1.124.967-1.124a3.311,3.311,0,0,1,1.709,1.552c0,.112-.09.247-.382.247h-2.923c.045.045.067.067.067.112,0,.09-.112.18-.292.248-.112.044-.18.157-.18.584,0,.517-.022,1.417-.022,2.428h.7a.38.38,0,0,0,.292-.2c.27-.45.472-.63.562-.63.157,0,1.6.675,1.6,1.215,0,.247-.269.4-.427.517-.292.247-.315.179-.337.742-.023.7-.045,1.8-.045,3.057l.09-.045a5.553,5.553,0,0,0,3.215-4.789c-.674.135-1.214.225-1.461.293-.225.045-.338.292-.495.292-.382,0-.967-1.619-.967-1.619,0-.045,0-.045.045-.045a1.262,1.262,0,0,0,.157.023,11.4,11.4,0,0,0,1.462.09h.315c.292-.023.7-.068,1.146-.09a16.961,16.961,0,0,0,.72-3.44,1.9,1.9,0,0,0-.023-.383.4.4,0,0,1-.022-.134c0-.068.022-.068.067-.068.09,0,2.271.585,2.271.989,0,.135-.157.27-.562.338a.515.515,0,0,0-.472.337,17.932,17.932,0,0,1-1.484,2.338c1.529-.112,3.485-.315,4.519-.45a9.636,9.636,0,0,0-1.3-1.259c-.157-.112-.225-.179-.225-.224,0-.023.023-.023.068-.023.719,0,3.777.922,3.777,2.5a.7.7,0,0,1-.629.764,1.08,1.08,0,0,1-.81-.584,9.116,9.116,0,0,0-.584-.81c-.9.293-3.261.742-5.014,1.079,1.079.2,1.236.338,1.236.473a.354.354,0,0,1-.269.292c-.2.067-.27.045-.36.382a5.6,5.6,0,0,1-4.227,4,.68.68,0,0,1-.18.045c0,1.911.067,4.137.112,5.823,1.911-2.046,4.025-5.823,4.115-7.1,0-.113.022-.248.135-.248.2,0,1.731.585,1.731.967,0,.135-.18.27-.517.315-.225.022-.225.045-.382.337-.113.225-.248.45-.4.72h2.518a.345.345,0,0,0,.292-.113c.405-.4.45-.427.518-.427.247,0,1.416.719,1.416,1.214,0,.18-.135.337-.517.45-.27.09-.315.09-.495.405a17.516,17.516,0,0,1-2.068,3.08,8.781,8.781,0,0,0,5.688,2.338C1535.227,922.657,1535.272,922.68,1535.272,922.7Zm-14.592-7.352c-.9,0-1.034-.427-1.034-1.124v-.248c.022-.337.022-2,.022-3.485h-.989c-.112,3.013-.7,4.789-2,6.161v1.574h5.171c0-1.169.023-2.384.023-3.508C1521.782,914.945,1521.534,915.35,1520.68,915.35Zm-3.507-4.857-.158.135c-.292.2-.292.293-.315,1.079-.022.653-.022,2.429-.022,4.542a13.005,13.005,0,0,0,1.057-5.756Zm-.473,8.342v2.541h5.127c0-.788.022-1.642.022-2.541Zm2.968-10.747c0-.248-.045-1.012-.067-1.529h-.54a.16.16,0,0,1,.068.135.272.272,0,0,1-.158.2c-.27.135-.292.09-.292.517v2.518h.989Zm2.159,2.675c0-.112-.045-.27-.18-.27h-1.124c-.023,1.057-.023,2.159-.023,2.856,0,.854,0,.944.2.944.359,0,.449-.337.539-1.394.023-.18.023-.247.045-.247.045,0,.135,1.056.27,1.147a.919.919,0,0,1,.315.472C1521.872,912.832,1521.849,911.573,1521.827,910.763Zm8.633,5.644c0-.068-.067-.135-.179-.135h-2.833l-.2.314a7.135,7.135,0,0,0,1.394,2.878A18.809,18.809,0,0,0,1530.46,916.407Zm3.823-3.688c0,.787-1.529.989-3.261.989-1.528,0-2.09-.359-2.09-1.371v-.112c.022-.472.022-1.215.022-1.619a8.14,8.14,0,0,0-.045-1.079c0-.045-.022-.09-.022-.135s.022-.045.09-.045c.09,0,1.663.157,1.663.472,0,.09-.067.18-.225.247-.337.135-.337.248-.337,1.956,0,.517.068.63,1.169.63a7.28,7.28,0,0,0,1.125-.068c.472-.09.7-.966.989-1.933.022-.113.067-.158.09-.158.135,0,.18,1.619.382,1.687A.612.612,0,0,1,1534.283,912.719Z" fill="#fff"/>
          </g>
          <g id="Group_835" data-name="Group 835">
            <path id="Path_1681" data-name="Path 1681" d="M1542.14,915.972c0,2.761-3.1,5.18-4.286,5.18a.906.906,0,0,1-1-.815c0-.368.262-.789.92-1.1,2.156-1.025,3.313-2.1,3.918-3.6.1-.237.184-.394.263-.394C1541.982,915.236,1542.14,915.236,1542.14,915.972Zm12.437-4.1c0,.342-.342.6-.973.6a2.965,2.965,0,0,1-.447-.053,15.268,15.268,0,0,0-2.919-.263,23.409,23.409,0,0,0-3.181.237c-.027.841-.027,1.788-.027,2.735,0,.92,0,1.84.027,2.682.052,1.262.236,2.1.236,2.971,0,1.577-.578,2.6-1.209,2.6-.4,0-.789-.421-.894-1.21a9.612,9.612,0,0,0-2.025-3.734c-.1-.131-.158-.21-.158-.262a.07.07,0,0,1,.079-.079.551.551,0,0,1,.263.1c.526.342,1.525,1.157,2.025,1.42a.616.616,0,0,0,.236.079c.106,0,.184-.106.184-.316.027-.552.053-1.5.053-6.836-.762.1-1.472.236-2.156.368a12.741,12.741,0,0,1-2.235.473c-1.1,0-3.418-.71-3.418-1.709,0-.421.184-.421.236-.421a1.769,1.769,0,0,1,.579.184,7.912,7.912,0,0,0,3.076.605,33.16,33.16,0,0,0,3.944-.394v-1.946c0-1.446-.447-2.261-1.577-2.261-.079,0-.158.026-.263.026h-.027c-.131,0-.368-.1-.368-.289s.211-.684,1.052-.684c.763,0,2.866.736,2.866,1.762,0,.394-.263.894-.342,1.656-.052.421-.078.973-.1,1.578.789-.105,1.5-.21,2.025-.289,1.262-.184,1.262-.684,2.366-.684C1552.894,910.529,1554.577,911.213,1554.577,911.87Zm.946,7.31a1.09,1.09,0,0,1-.973,1.157,1.21,1.21,0,0,1-.92-.658,13.066,13.066,0,0,0-4.154-4.154c-.342-.21-.5-.342-.5-.421,0-.026.026-.052.105-.052C1550.133,915.052,1555.523,917.129,1555.523,919.18Z" fill="#fff"/>
          </g>
          <g id="Group_836" data-name="Group 836">
            <path id="Path_1682" data-name="Path 1682" d="M1561.781,917.26c0,.5-.289.868-.684.868a1.27,1.27,0,0,1-.894-.578,15.1,15.1,0,0,0-1.919-1.972c-.132-.106-.21-.211-.21-.29,0-.105.131-.184.368-.184C1559.6,915.131,1561.781,915.867,1561.781,917.26Zm8.361-2.761c0,.526-.631.947-.867,1.42-4.26,7.994-9.887,8.993-10.36,8.993-.132,0-.184-.026-.184-.079,0-.1.21-.263.631-.447,5.285-2.314,8.624-8.966,8.624-9.808,0-.315-.21-.447-.631-.552-.315-.052-.42-.184-.42-.315a.9.9,0,0,1,.972-.658C1568.8,913.053,1570.142,913.869,1570.142,914.5Zm-5.179,1.473c0,.526-.316.894-.71.894-.29,0-.605-.184-.9-.684a12.806,12.806,0,0,0-1.63-2.235.62.62,0,0,1-.157-.289c0-.105.078-.158.236-.158C1562.754,913.5,1564.963,914.578,1564.963,915.972Z" fill="#fff"/>
          </g>
          <g id="Group_837" data-name="Group 837">
            <path id="Path_1683" data-name="Path 1683" d="M1581.212,915.446a.905.905,0,0,1-.92.947,1.747,1.747,0,0,1-1.026-.421,12.454,12.454,0,0,0-4.47-2.419v1.893c0,3.26.079,6.574.1,6.968.053,1.735-.394,2.6-.92,2.6-.552,0-1.157-.894-1.157-2.34a6.781,6.781,0,0,1,.132-1.21,13.71,13.71,0,0,0,.315-1.63c.158-1.262.237-4.549.237-7.336,0-5.259-.316-6.258-1.236-6.31-.368-.027-.526-.132-.526-.316a.8.8,0,0,1,.815-.6c.842,0,2.787,1.078,2.787,2.367,0,.552-.262,1.157-.368,2.156-.1.841-.157,2.1-.184,3.5.1,0,.237-.026.368-.026.4,0,.816-.027,1.236-.027C1580.292,913.237,1581.212,914.631,1581.212,915.446Z" fill="#fff"/>
          </g>
          <g id="Group_838" data-name="Group 838">
            <path id="Path_1684" data-name="Path 1684" d="M1600.222,909.136c0,.263-.263.5-.762.657-.474.131-.868.71-1.42,1.525-.842,1.262-1.683,2.445-2.551,3.576.947.447,2.34,1.288,2.34,2.366a.828.828,0,0,1-.788.921,1.528,1.528,0,0,1-1.052-.579,11.816,11.816,0,0,0-1.578-1.367c-6.153,7.283-12.726,8.072-12.752,8.072-.106,0-.158-.026-.158-.052,0-.106.289-.29.815-.5a28.844,28.844,0,0,0,10.781-8.414,20.873,20.873,0,0,0-2.525-1.289c-.42-.157-.631-.289-.631-.341s.1-.079.316-.079a14.339,14.339,0,0,1,3.654.683c1.236-1.577,3.1-4.364,3.1-4.864,0-.263-.21-.394-.683-.394a10.21,10.21,0,0,0-2.682.578,2.412,2.412,0,0,1-.658.132,1.567,1.567,0,0,1-.342-.053c-2.945,3.6-5.206,5.969-8.177,7.31a2.366,2.366,0,0,1-.631.21c-.053,0-.079,0-.079-.026q0-.118.473-.474c3.866-2.892,7.626-8.466,7.626-9.255,0-.421-.368-.684-.921-.815-.236-.053-.341-.158-.341-.289a1.027,1.027,0,0,1,1.078-.71c1.078,0,2.34,1,2.34,1.814a1.9,1.9,0,0,1-.5,1.131,16,16,0,0,0,3.629-.737,1.52,1.52,0,0,1,.736-.341C1598.171,907.532,1600.222,908.478,1600.222,909.136Z" fill="#fff"/>
          </g>
          <g id="Group_839" data-name="Group 839">
            <path id="Path_1685" data-name="Path 1685" d="M1618.549,909.4c0,.236-.185.5-.579.762a3.122,3.122,0,0,0-1.157,1.236c-3.418,6.074-7.6,10.78-13.7,12.621a2.406,2.406,0,0,1-.683.131c-.106,0-.158-.026-.158-.052,0-.1.263-.29.71-.5,7.283-3.286,12.332-13.042,12.332-13.594,0-.368-.29-.631-.763-.631a32.277,32.277,0,0,0-5.864,1.341,9.092,9.092,0,0,1-2.366.631c-1.078,0-3.445-1.288-3.445-2.1,0-.421.211-.579.447-.579a.588.588,0,0,1,.474.263c.236.368,1.13.526,2.235.526.578,0,1.183-.052,1.788-.1,1.078-.132,4.943-.71,6.073-.868.684-.105.973-.71,1.552-.71C1616.314,907.768,1618.549,908.689,1618.549,909.4Zm1.551-1.92a.8.8,0,0,1-.763.841.989.989,0,0,1-.71-.368,8.275,8.275,0,0,0-2.261-1.84c-.21-.1-.394-.184-.394-.263a2.249,2.249,0,0,1,1.025-.158C1618.233,905.691,1620.1,906.164,1620.1,907.479Zm2.734-1.288a.8.8,0,0,1-.762.841,1,1,0,0,1-.684-.342,9,9,0,0,0-2.314-1.788c-.21-.1-.42-.184-.42-.236,0-.211,1.1-.211,1.157-.211C1621.257,904.455,1622.834,905.06,1622.834,906.191Z" fill="#fff"/>
          </g>
        </g>
        <g id="Group_844" data-name="Group 844">
          <g id="Group_841" data-name="Group 841">
            <path id="Path_1686" data-name="Path 1686" d="M1619.385,927.543a4.451,4.451,0,1,1,4.452-4.452A4.457,4.457,0,0,1,1619.385,927.543Zm0-8.319a3.867,3.867,0,1,0,3.867,3.867A3.873,3.873,0,0,0,1619.385,919.224Z" fill="#fff"/>
          </g>
          <g id="Group_843" data-name="Group 843">
            <g id="Group_842" data-name="Group 842">
              <path id="Path_1687" data-name="Path 1687" d="M1618.417,925.839h-.768v-5.495h1.761a3.332,3.332,0,0,1,.753.082,1.831,1.831,0,0,1,.625.26,1.266,1.266,0,0,1,.423.469,1.49,1.49,0,0,1,.156.711,1.323,1.323,0,0,1-.373.977,1.727,1.727,0,0,1-.963.474l1.537,2.522h-.931l-1.4-2.445h-.823Zm0-3.089h.885a2.572,2.572,0,0,0,.5-.046,1.281,1.281,0,0,0,.408-.152.793.793,0,0,0,.275-.271.8.8,0,0,0-.268-1.1,1.17,1.17,0,0,0-.391-.143,2.5,2.5,0,0,0-.474-.043h-.939Z" fill="#fff"/>
            </g>
          </g>
        </g>
      </g>
    </g>
  </g>
</svg>
