<svg xmlns="http://www.w3.org/2000/svg" width="15" height="19.174" viewBox="0 0 15 19.174">
  <g id="Group_74" data-name="Group 74" transform="translate(-840 -5227.531)">
    <path id="Path_66" data-name="Path 66" d="M103.035,49.949H99.723V47.38A3.81,3.81,0,0,0,98.892,45a3.724,3.724,0,0,0-6.615,2.146c-.023.376,0,.762,0,1.138v1.663H88.965a.472.472,0,0,0-.465.465V62.347a.472.472,0,0,0,.465.465h14.071a.465.465,0,0,0,.465-.465V50.413A.472.472,0,0,0,103.035,49.949Zm-9.83-2.471a2.994,2.994,0,0,1,.488-1.714,2.8,2.8,0,0,1,5.1,1.589c0,.376,0,.757,0,1.133v1.463H93.206ZM89.429,61.883v-11h2.843v.98a.467.467,0,0,0,.934,0v-.985h5.588v.98a.465.465,0,0,0,.929,0v-.98h2.848v11Z" transform="translate(751.5 5183.894)" fill="#fff"/>
  </g>
</svg>
