<svg xmlns="http://www.w3.org/2000/svg" xmlns:xlink="http://www.w3.org/1999/xlink" width="186.833" height="25.877" viewBox="0 0 186.833 25.877">
  <defs>
    <clipPath id="clip-path">
      <rect width="186.833" height="25.877" fill="none"/>
    </clipPath>
  </defs>
  <g id="Repeat_Grid_1" data-name="Repeat Grid 1" clip-path="url(#clip-path)">
    <g id="Group_1110" data-name="Group 1110" transform="translate(-4308.627 -247.846)">
      <g id="Group_1106" data-name="Group 1106">
        <path id="Path_2319" data-name="Path 2319" d="M4333.249,271.475c0,.193-.11.358-.578.358h-14.763c-1.487,0-5.563.055-7.96.3h-.027c-.5,0-1.294-1.075-1.294-1.433,2.727.358,7.877.44,9.419.44h1.817c0-.853.029-1.762.029-2.671h-.717c-1.487,0-4.1.028-6.5.276h-.028c-.5,0-1.293-1.047-1.293-1.378a77.7,77.7,0,0,0,7.959.413h.606v-2.919h-4.489v.8c0,.413-.386.826-1.1.826a.658.658,0,0,1-.744-.661v-.083c.193-2.12.221-3.856.221-5.178a22.347,22.347,0,0,0-.359-4.351.55.55,0,0,1-.027-.193c0-.028,0-.055.027-.055a12.144,12.144,0,0,1,2.645,1.211l.027.028h3.828V254.7h-1.708c-1.487,0-5.453.055-7.848.3h-.029c-.495,0-1.321-1.075-1.321-1.432,2.727.357,7.794.44,9.336.44h1.57a25,25,0,0,0-.083-2.506c-2.258.193-4.736.331-7.05.331-.5,0-.992,0-1.488-.028-.275,0-.522-.137-.522-.248,0-.083.137-.165.468-.193a89.623,89.623,0,0,0,13.467-2.065,4.432,4.432,0,0,0,1.543-.744c.111-.083.165-.11.193-.11.055,0,1.652,1.569,1.652,2.176,0,.22-.165.3-.357.3a1.048,1.048,0,0,1-.469-.111,2.147,2.147,0,0,0-.606-.109h-.137c-1.075.192-2.589.385-4.325.578a.218.218,0,0,1,.138.192c0,.138-.138.276-.358.386-.441.192-.468.221-.5,1.377v.771h6.8a.612.612,0,0,0,.468-.248c.772-1.1,1.212-1.708,1.515-1.708.551,0,2.59,1.654,2.59,2.287,0,.193-.111.358-.579.358h-10.825v2.506h4.462a.407.407,0,0,0,.359-.165c.6-.689.743-.743.88-.743.194,0,2.205.991,2.205,1.6,0,.3-.359.468-.662.633-.55.275-.55.275-.55,1.681,0,1.183.11,2.726.219,4.379v.054a.981.981,0,0,1-1.046.882.7.7,0,0,1-.8-.661h-5.069v2.919h4.628a.613.613,0,0,0,.468-.247c.055-.056,1.074-1.543,1.433-1.543.413,0,2.451,1.487,2.451,2.121,0,.192-.111.358-.579.358h-8.4c0,.936.029,1.818.029,2.671h7.16a.614.614,0,0,0,.469-.248c.771-1.1,1.211-1.707,1.514-1.707C4331.267,269.189,4333.249,270.842,4333.249,271.475Zm-13.3-13.578h-3.911l-.165.11c-.5.3-.5.331-.5,2.506h4.572Zm0,3.3h-4.572c0,.936,0,1.955.028,2.975h4.544Zm6.611-3a.336.336,0,0,0-.359-.3h-4.71v2.616h5.123C4326.611,259.66,4326.611,258.888,4326.557,258.2Zm-5.069,3v2.975h5.069c.027-1.1.054-2.094.054-2.975Z" fill="#0069c7"/>
        <path id="Path_2320" data-name="Path 2320" d="M4358.943,257.678c0,.165-.137.3-.606.3h-16.608a2.338,2.338,0,0,1-.441.3c-.385.192-.385.138-.385,1.1,0,3.663-.193,9.474-5.233,12.42a3.088,3.088,0,0,1-.937.414.093.093,0,0,1-.054-.028c0-.082.165-.248.578-.578,3.222-2.561,3.884-6.583,3.884-10.136a22.284,22.284,0,0,0-.469-4.929.5.5,0,0,1-.027-.165c0-.029,0-.056.054-.056a12.558,12.558,0,0,1,2.837.992h13.331a.57.57,0,0,0,.468-.248c.853-1.377,1.047-1.515,1.295-1.515C4357.152,255.557,4358.943,257.181,4358.943,257.678Zm1.377,12.807c0,.193-2.589.689-3.277,1.4a.442.442,0,0,1-.3.138c-.716,0-7.491-2.065-7.491-11.485v-.276c-.248.056-.33.111-.33.551v.689c0,10.466-10.935,11.072-11.1,11.072-.193,0-.275-.027-.275-.083,0-.082.3-.247.633-.33,6.748-1.68,9.061-6.06,9.061-10.631a10.008,10.008,0,0,0-.275-2.451c0-.028-.027-.056-.027-.083,0,0,0-.028.3-.028.194,0,2.92.276,2.92.8,0,.138-.165.247-.413.358-.027,0-.056.027-.083.027a12.025,12.025,0,0,0,1.047,4.6c2.727-2.093,3.057-2.617,3.911-4.049.027-.055.055-.082.082-.082.083,0,.138.082.166.11,1.6,1.321,1.955,2.011,1.955,2.176,0,.22-.165.275-.413.275a2.13,2.13,0,0,1-.386-.055,1.369,1.369,0,0,0-.385-.082,1.045,1.045,0,0,0-.468.165c-.716.358-3.443,1.487-4.324,1.845,1.57,3.113,4.71,5.04,9.254,5.371C4360.265,270.43,4360.32,270.457,4360.32,270.485Zm-3.36-20.767c0,.137-.138.331-.551.5-.468.22-.5.385-.5,1.377,0,.881.028,2.2.056,2.837v.027c0,.469-.524.8-1.02.8a.621.621,0,0,1-.688-.633v-.11a5.554,5.554,0,0,0,.055-.716h-13.661c0,.247.028.44.028.6,0,.5-.524.8-.992.8a.631.631,0,0,1-.716-.634v-.082c.083-.882.083-2.755.083-3.278a11.885,11.885,0,0,0-.221-2.066,1.227,1.227,0,0,0-.027-.137c0-.082.027-.082.11-.082.221,0,2.754.165,2.754.8,0,.137-.138.331-.551.5-.44.193-.5.5-.5,1.322,0,.44,0,1.047.027,1.6h6.059v-1.929a16.934,16.934,0,0,0-.276-3.084.8.8,0,0,1-.027-.221c0-.054.027-.054.083-.054.248,0,3.029.275,3.029.853,0,.192-.192.386-.523.578-.551.331-.551.3-.633,1.3-.028.275-.028.468-.028,2.562h5.977c.028-.772.028-1.543.028-1.873a13.639,13.639,0,0,0-.221-2.122,1.227,1.227,0,0,0-.027-.137c0-.082.027-.082.11-.082C4354.729,248.92,4356.96,249.139,4356.96,249.718Zm-12.284,13.441c0,1.79-.908,3.222-2.038,3.222a.929.929,0,0,1-.937-.937,1.554,1.554,0,0,1,.607-1.1,5.062,5.062,0,0,0,1.708-3.222c.027-.166.054-.221.082-.221A3.923,3.923,0,0,1,4344.676,263.159Z" fill="#0069c7"/>
        <path id="Path_2321" data-name="Path 2321" d="M4387.309,270.21c0,.192-1.928.8-2.506,1.377a.437.437,0,0,1-.359.192,9.516,9.516,0,0,1-5.205-3.5,14.384,14.384,0,0,1-8.345,4.022c-.111,0-.193,0-.193-.055s.276-.193.743-.359a14.113,14.113,0,0,0,7.024-4.737,9.783,9.783,0,0,1-1.322-3.966,22.277,22.277,0,0,1-4.738,5.123l.056,1.212v.055a1.068,1.068,0,0,1-.964,1.1c-.358,0-.661-.248-.661-.881v-.469h-6.28c0,.688.028,1.377.028,1.983a1.053,1.053,0,0,1-1.02,1.019c-.358,0-.688-.22-.688-.826v-.082c.138-2.562.165-6.308.165-9.558,0-6.142-.082-7-.3-8.29a.958.958,0,0,0-.027-.165c0-.056.027-.083.055-.083a11.146,11.146,0,0,1,2.34,1.212l.029.027h.578a29.351,29.351,0,0,0-.138-4.076c-.853.056-1.873.11-2.837.193-.3,0-1.074-1.046-1.074-1.294,1.955.22,4.462.385,5.343.385h3.387a.424.424,0,0,0,.3-.165c.028-.055.881-1.378,1.184-1.378a4.056,4.056,0,0,1,2.094,1.9c0,.138-.111.3-.469.3h-3.58c.054.055.083.082.083.138,0,.11-.138.22-.359.3-.137.055-.22.192-.22.716,0,.633-.028,1.735-.028,2.974h.854a.464.464,0,0,0,.358-.248c.33-.551.578-.77.689-.77.193,0,1.955.826,1.955,1.487,0,.3-.33.5-.523.633-.358.3-.385.221-.413.909-.028.854-.055,2.2-.055,3.746l.11-.056a6.8,6.8,0,0,0,3.938-5.866c-.826.165-1.487.276-1.79.359-.275.054-.413.357-.606.357-.468,0-1.184-1.982-1.184-1.982,0-.056,0-.056.055-.056a1.557,1.557,0,0,0,.192.027,13.808,13.808,0,0,0,1.791.111h.386c.358-.028.854-.082,1.4-.111a20.734,20.734,0,0,0,.881-4.214,2.379,2.379,0,0,0-.027-.467.5.5,0,0,1-.027-.165c0-.083.027-.083.083-.083.109,0,2.781.715,2.781,1.212,0,.165-.193.33-.689.413a.629.629,0,0,0-.578.413,21.878,21.878,0,0,1-1.818,2.864c1.873-.138,4.269-.386,5.536-.551a11.818,11.818,0,0,0-1.6-1.542c-.192-.138-.275-.221-.275-.275,0-.028.028-.028.083-.028.881,0,4.627,1.129,4.627,3.057a.852.852,0,0,1-.772.937,1.325,1.325,0,0,1-.991-.716,11.06,11.06,0,0,0-.716-.992c-1.1.358-3.994.909-6.141,1.322,1.321.248,1.514.413,1.514.578a.43.43,0,0,1-.331.358c-.248.083-.33.055-.44.469a6.854,6.854,0,0,1-5.178,4.9.834.834,0,0,1-.22.055c0,2.341.083,5.068.137,7.134,2.341-2.507,4.931-7.134,5.04-8.7,0-.138.029-.3.166-.3.247,0,2.12.717,2.12,1.185,0,.165-.219.33-.632.385-.276.028-.276.055-.469.414-.138.275-.3.55-.5.88h3.085a.424.424,0,0,0,.358-.137c.5-.5.551-.523.634-.523.3,0,1.734.881,1.734,1.488,0,.219-.165.413-.633.55-.331.11-.385.11-.606.495a21.416,21.416,0,0,1-2.534,3.774,10.76,10.76,0,0,0,6.969,2.864C4387.254,270.154,4387.309,270.181,4387.309,270.21Zm-17.875-9.007c-1.1,0-1.267-.523-1.267-1.377v-.3c.027-.413.027-2.451.027-4.269h-1.212c-.137,3.691-.853,5.867-2.451,7.547v1.927h6.335c0-1.431.028-2.919.028-4.3C4370.783,260.707,4370.48,261.2,4369.434,261.2Zm-4.3-5.949-.194.166c-.357.247-.357.357-.385,1.321-.028.8-.028,2.975-.028,5.564.882-1.763,1.24-3.856,1.3-7.051Zm-.579,10.218v3.113h6.28c0-.965.027-2.011.027-3.113Zm3.635-13.165c0-.3-.054-1.24-.082-1.873h-.661a.2.2,0,0,1,.082.165.331.331,0,0,1-.192.248c-.331.166-.359.111-.359.633v3.085h1.212Zm2.645,3.278c0-.138-.056-.331-.221-.331h-1.377c-.027,1.3-.027,2.644-.027,3.5,0,1.047,0,1.157.247,1.157.441,0,.552-.413.661-1.708.028-.221.028-.3.056-.3.054,0,.165,1.294.33,1.4a1.137,1.137,0,0,1,.386.578C4370.894,258.118,4370.866,256.576,4370.839,255.585Zm10.576,6.913c0-.083-.083-.166-.221-.166h-3.47l-.247.386a8.729,8.729,0,0,0,1.707,3.525A23.064,23.064,0,0,0,4381.415,262.5Zm4.682-4.518c0,.965-1.873,1.212-3.993,1.212-1.874,0-2.562-.44-2.562-1.679v-.138c.027-.578.027-1.487.027-1.984a10.212,10.212,0,0,0-.054-1.321c0-.056-.029-.11-.029-.166s.029-.055.111-.055c.11,0,2.038.193,2.038.579,0,.11-.082.22-.276.3-.413.166-.413.3-.413,2.4,0,.634.083.771,1.433.771a8.82,8.82,0,0,0,1.377-.083c.578-.11.853-1.184,1.212-2.368.027-.138.082-.193.11-.193.165,0,.22,1.983.468,2.066A.749.749,0,0,1,4386.1,257.98Z" fill="#0069c7"/>
        <path id="Path_2322" data-name="Path 2322" d="M4396.3,261.965c0,3.381-3.8,6.345-5.251,6.345a1.111,1.111,0,0,1-1.224-1c0-.45.323-.965,1.127-1.352,2.642-1.256,4.059-2.577,4.8-4.413.129-.29.226-.484.322-.484C4396.1,261.062,4396.3,261.062,4396.3,261.965Zm15.235-5.026c0,.419-.418.741-1.191.741a3.611,3.611,0,0,1-.548-.064,18.65,18.65,0,0,0-3.575-.322,28.589,28.589,0,0,0-3.9.29c-.032,1.031-.032,2.19-.032,3.349,0,1.128,0,2.255.032,3.287.065,1.545.29,2.577.29,3.639,0,1.933-.709,3.19-1.482,3.19-.483,0-.966-.516-1.095-1.483a11.788,11.788,0,0,0-2.48-4.574c-.129-.16-.194-.257-.194-.321a.086.086,0,0,1,.1-.1.668.668,0,0,1,.322.129c.645.418,1.868,1.417,2.481,1.739a.735.735,0,0,0,.29.1c.129,0,.225-.129.225-.387.032-.677.064-1.836.064-8.375-.934.129-1.8.29-2.641.451a15.538,15.538,0,0,1-2.738.579c-1.353,0-4.188-.869-4.188-2.092,0-.516.226-.516.291-.516a2.158,2.158,0,0,1,.708.226,9.726,9.726,0,0,0,3.769.74,40.617,40.617,0,0,0,4.831-.483V254.3c0-1.772-.547-2.771-1.933-2.771-.1,0-.192.032-.321.032h-.032c-.161,0-.451-.129-.451-.354s.258-.837,1.288-.837c.934,0,3.511.9,3.511,2.158,0,.483-.322,1.1-.418,2.029-.065.515-.1,1.192-.129,1.933.966-.129,1.836-.258,2.48-.354,1.546-.226,1.546-.838,2.9-.838C4409.472,255.3,4411.533,256.135,4411.533,256.939Zm1.16,8.955a1.334,1.334,0,0,1-1.192,1.417,1.48,1.48,0,0,1-1.127-.8,16,16,0,0,0-5.09-5.09c-.418-.258-.611-.419-.611-.516,0-.032.032-.063.129-.063C4406.09,260.838,4412.693,263.382,4412.693,265.894Z" fill="#0069c7"/>
        <path id="Path_2323" data-name="Path 2323" d="M4420.355,263.543c0,.612-.353,1.063-.836,1.063a1.552,1.552,0,0,1-1.1-.709,18.582,18.582,0,0,0-2.351-2.416c-.161-.129-.258-.258-.258-.354,0-.129.162-.226.451-.226C4417.683,260.933,4420.355,261.836,4420.355,263.543Zm10.244-3.382c0,.644-.773,1.159-1.063,1.739-5.218,9.792-12.111,11.017-12.691,11.017-.161,0-.226-.032-.226-.1,0-.129.258-.322.774-.548,6.474-2.835,10.565-10.984,10.565-12.014,0-.387-.258-.548-.773-.677-.387-.065-.516-.226-.516-.387a1.1,1.1,0,0,1,1.192-.8C4428.956,258.389,4430.6,259.388,4430.6,260.161Zm-6.345,1.8c0,.644-.387,1.094-.87,1.094-.355,0-.741-.224-1.095-.837a15.692,15.692,0,0,0-2-2.738.77.77,0,0,1-.192-.354c0-.129.1-.194.289-.194C4421.548,258.936,4424.254,260.258,4424.254,261.965Z" fill="#0069c7"/>
        <path id="Path_2324" data-name="Path 2324" d="M4444.157,261.32a1.109,1.109,0,0,1-1.128,1.16,2.139,2.139,0,0,1-1.256-.515A15.246,15.246,0,0,0,4436.3,259v2.319c0,3.994.1,8.053.128,8.536.064,2.126-.483,3.19-1.127,3.19-.677,0-1.417-1.1-1.417-2.867a8.256,8.256,0,0,1,.161-1.482,16.919,16.919,0,0,0,.386-2c.193-1.547.29-5.573.29-8.987,0-6.443-.386-7.666-1.514-7.731-.451-.032-.644-.161-.644-.386a.975.975,0,0,1,1-.742c1.03,0,3.414,1.322,3.414,2.9,0,.676-.323,1.417-.452,2.641-.127,1.031-.192,2.576-.224,4.285.128,0,.289-.033.45-.033.483,0,1-.032,1.515-.032C4443.029,258.615,4444.157,260.322,4444.157,261.32Z" fill="#0069c7"/>
        <path id="Path_2325" data-name="Path 2325" d="M4467.442,253.59c0,.322-.322.612-.934.805-.58.161-1.063.869-1.739,1.868-1.032,1.546-2.062,3-3.125,4.381,1.16.547,2.867,1.578,2.867,2.9a1.015,1.015,0,0,1-.966,1.128,1.876,1.876,0,0,1-1.289-.709,14.494,14.494,0,0,0-1.933-1.675c-7.537,8.922-15.59,9.889-15.622,9.889-.129,0-.193-.033-.193-.065,0-.129.354-.354,1-.612a35.325,35.325,0,0,0,13.207-10.308,25.672,25.672,0,0,0-3.093-1.578c-.515-.193-.772-.354-.772-.419s.129-.1.386-.1a17.605,17.605,0,0,1,4.477.838c1.515-1.932,3.8-5.346,3.8-5.959,0-.322-.258-.483-.838-.483a12.507,12.507,0,0,0-3.285.709,2.943,2.943,0,0,1-.806.161,1.9,1.9,0,0,1-.419-.064c-3.607,4.413-6.378,7.311-10.018,8.954a2.887,2.887,0,0,1-.773.258c-.064,0-.1,0-.1-.033,0-.1.194-.29.58-.58,4.736-3.543,9.342-10.371,9.342-11.338,0-.515-.451-.838-1.128-1-.29-.063-.419-.192-.419-.353a1.261,1.261,0,0,1,1.322-.87c1.32,0,2.866,1.223,2.866,2.222a2.325,2.325,0,0,1-.611,1.385c.064,0,3.736-.418,4.444-.9a1.863,1.863,0,0,1,.9-.419C4464.93,251.625,4467.442,252.784,4467.442,253.59Z" fill="#0069c7"/>
        <path id="Path_2326" data-name="Path 2326" d="M4489.889,253.912c0,.29-.225.612-.708.934a3.812,3.812,0,0,0-1.418,1.514c-4.188,7.441-9.309,13.206-16.782,15.461a2.931,2.931,0,0,1-.837.161c-.129,0-.194-.032-.194-.064,0-.129.322-.355.87-.613,8.922-4.026,15.107-15.976,15.107-16.653,0-.45-.355-.772-.934-.772a39.53,39.53,0,0,0-7.183,1.642,11.157,11.157,0,0,1-2.9.774c-1.321,0-4.22-1.579-4.22-2.577,0-.516.258-.709.547-.709a.717.717,0,0,1,.58.322c.29.451,1.385.644,2.739.644.708,0,1.449-.064,2.19-.129,1.32-.161,6.056-.87,7.441-1.063.837-.129,1.192-.869,1.9-.869C4487.151,251.915,4489.889,253.042,4489.889,253.912Zm1.9-2.352a.98.98,0,0,1-.934,1.032,1.212,1.212,0,0,1-.87-.452,10.144,10.144,0,0,0-2.769-2.254c-.258-.129-.484-.226-.484-.323a2.785,2.785,0,0,1,1.256-.193C4489.5,249.37,4491.789,249.95,4491.789,251.56Zm3.351-1.578a.981.981,0,0,1-.935,1.031,1.22,1.22,0,0,1-.837-.419,11.033,11.033,0,0,0-2.835-2.19c-.258-.129-.515-.225-.515-.29,0-.258,1.353-.258,1.418-.258C4493.207,247.856,4495.14,248.6,4495.14,249.982Z" fill="#0069c7"/>
      </g>
      <g id="Group_1109" data-name="Group 1109">
        <circle id="Ellipse_643" data-name="Ellipse 643" cx="4.355" cy="4.355" r="4.355" transform="translate(4486.44 264.703)" fill="none" stroke="#0069c7" stroke-miterlimit="10" stroke-width="0.62"/>
        <g id="Group_1108" data-name="Group 1108">
          <g id="Group_1107" data-name="Group 1107">
            <path id="Path_2327" data-name="Path 2327" d="M4489.782,271.935h-.8v-5.753h1.844a3.523,3.523,0,0,1,.788.085,1.93,1.93,0,0,1,.654.272,1.337,1.337,0,0,1,.443.492,1.557,1.557,0,0,1,.163.744,1.382,1.382,0,0,1-.39,1.023,1.82,1.82,0,0,1-1.008.5l1.609,2.641h-.975l-1.463-2.56h-.861Zm0-3.235h.926a2.664,2.664,0,0,0,.529-.048,1.326,1.326,0,0,0,.426-.159.837.837,0,0,0,.008-1.434,1.236,1.236,0,0,0-.41-.15,2.648,2.648,0,0,0-.5-.045h-.983Z" fill="#0069c7"/>
          </g>
        </g>
      </g>
    </g>
  </g>
</svg>
