<svg id="logo" xmlns="http://www.w3.org/2000/svg" width="290.121" height="70.384" viewBox="0 0 290.121 70.384">
  <g id="Group_103" data-name="Group 103" transform="translate(0 31.067)">
    <path id="Path_105" data-name="Path 105" d="M138.285,433.535c0,.3-.172.558-.9.558H114.35c-2.32,0-8.68.086-12.419.473h-.042c-.774,0-2.02-1.676-2.02-2.234,4.254.559,12.29.688,14.7.688H117.4c0-1.332.043-2.75.043-4.168h-1.117c-2.321,0-6.4.042-10.141.429h-.043c-.773,0-2.019-1.633-2.019-2.149a121.387,121.387,0,0,0,12.418.645h.945v-4.555h-7v1.246c0,.645-.6,1.289-1.719,1.289a1.027,1.027,0,0,1-1.16-1.032V424.6c.3-3.309.344-6.015.344-8.078a35.04,35.04,0,0,0-.558-6.789.836.836,0,0,1-.043-.3c0-.043,0-.086.043-.086a18.942,18.942,0,0,1,4.125,1.891l.043.043h5.973v-3.911h-2.665c-2.32,0-8.508.086-12.246.473h-.043c-.774,0-2.063-1.676-2.063-2.234,4.254.558,12.161.687,14.567.687h2.45a39.07,39.07,0,0,0-.129-3.91c-3.524.3-7.391.516-11,.516-.773,0-1.547,0-2.32-.043-.429,0-.817-.214-.817-.387,0-.129.215-.258.731-.3a139.9,139.9,0,0,0,21.013-3.223,6.917,6.917,0,0,0,2.407-1.16c.172-.129.258-.172.3-.172.086,0,2.578,2.449,2.578,3.4,0,.343-.258.472-.558.472a1.636,1.636,0,0,1-.731-.172,3.353,3.353,0,0,0-.945-.172h-.215c-1.676.3-4.04.6-6.746.9a.34.34,0,0,1,.215.3c0,.215-.215.43-.558.6-.687.3-.731.344-.774,2.148v1.2h10.614a.958.958,0,0,0,.731-.386c1.2-1.719,1.891-2.664,2.363-2.664.859,0,4.039,2.578,4.039,3.567,0,.3-.172.558-.9.558H119.936v3.911H126.9a.63.63,0,0,0,.558-.258c.945-1.074,1.16-1.16,1.375-1.16.3,0,3.438,1.547,3.438,2.492,0,.473-.559.731-1.032.988-.86.43-.86.43-.86,2.621,0,1.848.172,4.254.344,6.832v.086a1.531,1.531,0,0,1-1.633,1.375,1.1,1.1,0,0,1-1.246-1.031h-7.907v4.555h7.219a.957.957,0,0,0,.731-.387c.086-.086,1.676-2.406,2.235-2.406.644,0,3.824,2.32,3.824,3.308,0,.3-.172.559-.9.559H119.936c0,1.461.043,2.836.043,4.168h11.173a.957.957,0,0,0,.731-.387c1.2-1.719,1.891-2.664,2.363-2.664C135.191,429.968,138.285,432.547,138.285,433.535ZM117.53,412.35h-6.1l-.258.172c-.773.473-.773.516-.773,3.911h7.133Zm0,5.157H110.4c0,1.461,0,3.05.043,4.641h7.091Zm10.313-4.684a.524.524,0,0,0-.559-.473h-7.348v4.083h7.993C127.929,415.1,127.929,413.9,127.843,412.823Zm-7.907,4.684v4.641h7.907c.043-1.719.086-3.266.086-4.641Z" transform="translate(-99.869 -396.667)" fill="#ffffff"/>
    <path id="Path_106" data-name="Path 106" d="M227.929,410.857c0,.258-.215.472-.945.472H201.072a3.643,3.643,0,0,1-.687.473c-.6.3-.6.215-.6,1.719,0,5.715-.3,14.782-8.165,19.38a4.858,4.858,0,0,1-1.461.644.152.152,0,0,1-.086-.042c0-.129.258-.387.9-.9,5.028-4,6.06-10.27,6.06-15.814a34.86,34.86,0,0,0-.731-7.692.758.758,0,0,1-.043-.258c0-.043,0-.086.086-.086a19.581,19.581,0,0,1,4.426,1.547h20.8a.891.891,0,0,0,.73-.387c1.332-2.149,1.633-2.363,2.019-2.363C225.136,407.548,227.929,410.084,227.929,410.857Zm2.149,19.982c0,.3-4.039,1.074-5.114,2.192a.689.689,0,0,1-.473.214c-1.117,0-11.688-3.223-11.688-17.919v-.43c-.387.086-.516.172-.516.859v1.074c0,16.329-17.059,17.275-17.318,17.275-.3,0-.429-.043-.429-.129,0-.129.473-.387.988-.516,10.528-2.621,14.138-9.454,14.138-16.587a15.7,15.7,0,0,0-.43-3.824c0-.043-.043-.086-.043-.129,0,0,0-.043.473-.043.3,0,4.555.43,4.555,1.247,0,.214-.258.386-.644.558-.043,0-.086.043-.129.043a18.756,18.756,0,0,0,1.633,7.176c4.254-3.266,4.77-4.083,6.1-6.317.043-.087.086-.129.129-.129.129,0,.215.129.257.172,2.493,2.063,3.051,3.137,3.051,3.395,0,.344-.258.429-.644.429a3.389,3.389,0,0,1-.6-.086,2.154,2.154,0,0,0-.6-.129,1.647,1.647,0,0,0-.73.258c-1.118.558-5.372,2.32-6.747,2.879,2.449,4.856,7.348,7.864,14.438,8.38C229.991,430.753,230.077,430.8,230.077,430.839Zm-5.243-32.4c0,.215-.215.516-.859.773-.731.344-.773.6-.773,2.148,0,1.375.043,3.438.086,4.426v.043c0,.731-.816,1.247-1.59,1.247a.969.969,0,0,1-1.074-.988v-.172a8.4,8.4,0,0,0,.087-1.117H199.4c0,.387.043.688.043.945,0,.773-.817,1.246-1.547,1.246a.983.983,0,0,1-1.117-.988v-.129c.129-1.375.129-4.3.129-5.114a18.653,18.653,0,0,0-.343-3.223,1.847,1.847,0,0,0-.043-.215c0-.129.043-.129.172-.129.344,0,4.3.258,4.3,1.247,0,.215-.215.516-.859.773-.688.3-.774.774-.774,2.063,0,.687,0,1.633.043,2.492h9.454v-3.008a26.654,26.654,0,0,0-.43-4.812,1.216,1.216,0,0,1-.043-.344c0-.086.043-.086.129-.086.386,0,4.727.43,4.727,1.332,0,.3-.3.6-.817.9-.859.515-.859.472-.988,2.019-.043.429-.043.731-.043,4h9.325c.042-1.2.042-2.407.042-2.922a21.169,21.169,0,0,0-.343-3.309,1.865,1.865,0,0,0-.043-.215c0-.129.043-.129.172-.129C221.354,397.192,224.835,397.535,224.835,398.438Zm-19.165,20.97c0,2.793-1.418,5.028-3.18,5.028a1.449,1.449,0,0,1-1.461-1.461,2.422,2.422,0,0,1,.945-1.719,7.88,7.88,0,0,0,2.665-5.028c.043-.258.086-.344.129-.344A6.107,6.107,0,0,1,205.67,419.408Z" transform="translate(-149.421 -395.516)" fill="#ffffff"/>
    <path id="Path_107" data-name="Path 107" d="M323.522,431.037c0,.3-3.008,1.246-3.91,2.149a.675.675,0,0,1-.558.3,14.845,14.845,0,0,1-8.121-5.457,22.436,22.436,0,0,1-13.02,6.273c-.172,0-.3,0-.3-.086s.43-.3,1.16-.558a22.03,22.03,0,0,0,10.958-7.392,15.285,15.285,0,0,1-2.063-6.188,34.784,34.784,0,0,1-7.391,7.992l.086,1.891v.086a1.666,1.666,0,0,1-1.5,1.719c-.559,0-1.032-.387-1.032-1.375v-.731h-9.8c0,1.074.043,2.148.043,3.094a1.642,1.642,0,0,1-1.59,1.59c-.559,0-1.074-.344-1.074-1.289v-.129c.215-4,.258-9.841.258-14.911,0-9.582-.129-10.915-.473-12.934a1.521,1.521,0,0,0-.043-.258c0-.086.043-.129.086-.129a17.459,17.459,0,0,1,3.653,1.891l.043.043h.9a45.843,45.843,0,0,0-.215-6.36c-1.332.086-2.923.172-4.426.3-.472,0-1.676-1.633-1.676-2.02,3.051.344,6.961.6,8.336.6h5.285a.659.659,0,0,0,.473-.258c.043-.086,1.375-2.148,1.848-2.148.816,0,3.265,2.277,3.265,2.965,0,.214-.172.472-.73.472h-5.587c.086.086.129.129.129.215,0,.172-.215.344-.558.473-.215.086-.344.3-.344,1.117,0,.989-.043,2.708-.043,4.641h1.332a.723.723,0,0,0,.558-.387c.516-.859.9-1.2,1.074-1.2.3,0,3.051,1.289,3.051,2.32,0,.473-.516.773-.816.988-.559.473-.6.343-.645,1.418-.043,1.332-.086,3.438-.086,5.845l.171-.086c5.544-2.32,6.145-8.294,6.145-9.153-1.289.258-2.32.43-2.793.558-.43.086-.645.558-.946.558-.731,0-1.847-3.094-1.847-3.094,0-.086,0-.086.086-.086a2.412,2.412,0,0,0,.3.043,21.613,21.613,0,0,0,2.793.171h.6c.559-.042,1.332-.129,2.192-.171a32.42,32.42,0,0,0,1.375-6.575,3.716,3.716,0,0,0-.043-.731.761.761,0,0,1-.043-.258c0-.129.043-.129.129-.129.172,0,4.34,1.118,4.34,1.891,0,.258-.3.516-1.074.645a.987.987,0,0,0-.9.644,34.215,34.215,0,0,1-2.836,4.469c2.922-.215,6.661-.6,8.637-.859a18.338,18.338,0,0,0-2.492-2.407c-.3-.215-.429-.344-.429-.429,0-.043.043-.043.129-.043,1.375,0,7.219,1.762,7.219,4.77a1.329,1.329,0,0,1-1.2,1.461,2.065,2.065,0,0,1-1.548-1.117,17.317,17.317,0,0,0-1.117-1.548c-1.719.559-6.231,1.418-9.582,2.063,2.063.387,2.363.645,2.363.9a.676.676,0,0,1-.516.558c-.387.129-.516.086-.688.731a10.694,10.694,0,0,1-8.079,7.649,1.314,1.314,0,0,1-.343.086c0,3.653.129,7.907.215,11.13,3.653-3.91,7.692-11.13,7.864-13.579,0-.215.043-.473.258-.473.387,0,3.308,1.117,3.308,1.848,0,.258-.343.516-.988.6-.43.043-.43.086-.731.644-.215.43-.473.86-.774,1.375h4.813a.66.66,0,0,0,.558-.214c.774-.773.859-.817.988-.817.473,0,2.707,1.375,2.707,2.32,0,.344-.258.645-.988.86-.516.172-.6.172-.946.773a33.4,33.4,0,0,1-3.953,5.887,16.783,16.783,0,0,0,10.872,4.469C323.436,430.951,323.522,430.994,323.522,431.037Zm-27.888-14.052c-1.719,0-1.977-.817-1.977-2.149v-.473c.043-.644.043-3.824.043-6.66h-1.891c-.215,5.758-1.332,9.153-3.824,11.774v3.008h9.883c0-2.234.043-4.555.043-6.7C297.739,416.212,297.267,416.986,295.634,416.986Zm-6.7-9.282-.3.257c-.558.387-.558.559-.6,2.063-.042,1.247-.042,4.641-.042,8.681,1.375-2.75,1.934-6.016,2.019-11Zm-.9,15.942V428.5h9.8c0-1.5.043-3.137.043-4.856Zm5.672-20.54c0-.473-.086-1.934-.129-2.922H292.54a.307.307,0,0,1,.129.258.518.518,0,0,1-.3.387c-.516.258-.558.172-.558.989v4.813H293.7Zm4.125,5.114c0-.215-.086-.516-.344-.516h-2.149c-.042,2.019-.042,4.125-.042,5.457,0,1.633,0,1.8.386,1.8.688,0,.859-.644,1.032-2.664.043-.344.043-.473.086-.473.086,0,.258,2.02.516,2.192a1.762,1.762,0,0,1,.6.9C297.911,412.173,297.868,409.766,297.825,408.219Zm16.5,10.786c0-.129-.129-.258-.344-.258h-5.414l-.387.6a13.637,13.637,0,0,0,2.664,5.5A35.929,35.929,0,0,0,314.326,419.005Zm7.305-7.047c0,1.5-2.922,1.891-6.231,1.891-2.922,0-4-.688-4-2.622v-.215c.043-.9.043-2.321.043-3.094a15.619,15.619,0,0,0-.086-2.063c0-.086-.043-.171-.043-.258s.043-.086.172-.086c.172,0,3.18.3,3.18.9,0,.172-.129.344-.43.473-.644.258-.644.473-.644,3.738,0,.989.129,1.2,2.235,1.2a13.871,13.871,0,0,0,2.148-.129c.9-.172,1.332-1.847,1.891-3.7.043-.215.129-.3.172-.3.258,0,.344,3.094.731,3.223A1.171,1.171,0,0,1,321.632,411.958Z" transform="translate(-200.754 -396.144)" fill="#ffffff"/>
    <path id="Path_108" data-name="Path 108" d="M389.1,422.347c0,5.276-5.93,9.9-8.192,9.9A1.733,1.733,0,0,1,379,430.689c0-.7.5-1.508,1.759-2.11,4.121-1.96,6.332-4.02,7.488-6.885.2-.452.352-.754.5-.754C388.8,420.94,389.1,420.94,389.1,422.347Zm23.77-7.84c0,.653-.653,1.156-1.859,1.156a5.622,5.622,0,0,1-.854-.1,29.147,29.147,0,0,0-5.578-.5,44.775,44.775,0,0,0-6.081.452c-.05,1.608-.05,3.417-.05,5.227,0,1.758,0,3.518.05,5.126.1,2.412.452,4.02.452,5.679,0,3.015-1.106,4.975-2.312,4.975-.754,0-1.507-.8-1.708-2.311-.3-1.91-1.91-4.674-3.87-7.136-.2-.251-.3-.4-.3-.5a.133.133,0,0,1,.151-.151,1.062,1.062,0,0,1,.5.2c1,.654,2.915,2.211,3.869,2.714a1.154,1.154,0,0,0,.452.151c.2,0,.352-.2.352-.6.05-1.055.1-2.864.1-13.066-1.457.2-2.814.452-4.121.7-2.211.452-2.965.9-4.271.9-2.111,0-6.533-1.357-6.533-3.266,0-.8.352-.8.452-.8a3.374,3.374,0,0,1,1.106.352,15.132,15.132,0,0,0,5.879,1.156c.9,0,1.256,0,7.538-.754v-3.719c0-2.763-.854-4.321-3.015-4.321-.151,0-.3.05-.5.05h-.051c-.251,0-.7-.2-.7-.553s.4-1.306,2.01-1.306c1.458,0,5.478,1.407,5.478,3.367,0,.753-.5,1.708-.653,3.165-.1.8-.151,1.859-.2,3.015,1.508-.2,2.865-.4,3.87-.552,2.412-.352,2.412-1.307,4.523-1.307C409.655,411.945,412.871,413.252,412.871,414.508Zm1.809,13.97a2.083,2.083,0,0,1-1.859,2.211,2.31,2.31,0,0,1-1.759-1.256,24.957,24.957,0,0,0-7.941-7.94c-.653-.4-.955-.653-.955-.8,0-.05.05-.1.2-.1C404.378,420.588,414.68,424.559,414.68,428.478Z" transform="translate(-253.207 -400.317)" fill="#ffffff"/>
    <path id="Path_109" data-name="Path 109" d="M476.075,440.063c0,.955-.553,1.658-1.307,1.658a2.423,2.423,0,0,1-1.708-1.105,28.975,28.975,0,0,0-3.668-3.769c-.251-.2-.4-.4-.4-.553,0-.2.251-.352.7-.352C471.9,435.992,476.075,437.4,476.075,440.063Zm15.981-5.277c0,1.005-1.206,1.809-1.659,2.714-8.141,15.277-18.9,17.186-19.8,17.186-.252,0-.352-.05-.352-.151,0-.2.4-.5,1.206-.854,10.1-4.422,16.483-17.136,16.483-18.745,0-.6-.4-.854-1.206-1.055-.6-.1-.8-.352-.8-.6a1.721,1.721,0,0,1,1.859-1.256C489.492,432.022,492.056,433.58,492.056,434.786Zm-9.9,2.814c0,1.005-.6,1.708-1.357,1.708-.552,0-1.156-.352-1.709-1.306a24.561,24.561,0,0,0-3.115-4.272,1.194,1.194,0,0,1-.3-.552q0-.3.452-.3C477.934,432.876,482.156,434.937,482.156,437.6Z" transform="translate(-302.641 -415.57)" fill="#ffffff"/>
    <path id="Path_110" data-name="Path 110" d="M545.066,418.463a1.729,1.729,0,0,1-1.758,1.809,3.332,3.332,0,0,1-1.96-.8,23.81,23.81,0,0,0-8.543-4.623v3.618c0,6.231.151,12.563.2,13.317.1,3.317-.754,4.975-1.758,4.975-1.055,0-2.211-1.708-2.211-4.473a12.994,12.994,0,0,1,.251-2.311,26.357,26.357,0,0,0,.6-3.116c.3-2.412.452-8.694.452-14.02,0-10.051-.6-11.961-2.362-12.061-.7-.05-1.005-.251-1.005-.6a1.521,1.521,0,0,1,1.558-1.156c1.608,0,5.326,2.06,5.326,4.523,0,1.055-.5,2.211-.7,4.12-.2,1.608-.3,4.021-.352,6.684.2,0,.452-.05.7-.05.754,0,1.558-.05,2.362-.05C543.307,414.242,545.066,416.905,545.066,418.463Z" transform="translate(-334.495 -397.438)" fill="#ffffff"/>
    <path id="Path_111" data-name="Path 111" d="M604.124,407.321c0,.5-.5.954-1.457,1.256-.9.251-1.658,1.357-2.714,2.915-1.608,2.412-3.216,4.674-4.874,6.835,1.809.854,4.472,2.462,4.472,4.523a1.582,1.582,0,0,1-1.507,1.759,2.925,2.925,0,0,1-2.01-1.106,22.6,22.6,0,0,0-3.015-2.613c-11.76,13.92-24.323,15.428-24.373,15.428-.2,0-.3-.05-.3-.1,0-.2.553-.553,1.558-.955,7.789-3.216,14.925-9.2,20.6-16.081a39.733,39.733,0,0,0-4.825-2.462c-.8-.3-1.206-.553-1.206-.653s.2-.151.6-.151a27.414,27.414,0,0,1,6.985,1.306c2.362-3.015,5.93-8.342,5.93-9.3,0-.5-.4-.754-1.307-.754a19.542,19.542,0,0,0-5.126,1.105,4.594,4.594,0,0,1-1.256.252,2.934,2.934,0,0,1-.653-.1c-5.628,6.885-9.95,11.408-15.629,13.97a4.509,4.509,0,0,1-1.206.4c-.1,0-.151,0-.151-.051q0-.226.9-.9c7.388-5.528,14.574-16.181,14.574-17.689,0-.8-.7-1.307-1.759-1.558-.452-.1-.653-.3-.653-.553a1.964,1.964,0,0,1,2.06-1.357c2.06,0,4.472,1.909,4.472,3.467a3.626,3.626,0,0,1-.955,2.161c.1,0,5.829-.653,6.935-1.407a2.915,2.915,0,0,1,1.407-.654C600.2,404.255,604.124,406.065,604.124,407.321Z" transform="translate(-357.221 -398.357)" fill="#ffffff"/>
    <path id="Path_112" data-name="Path 112" d="M687.544,405.006c0,.452-.352.955-1.106,1.457a5.965,5.965,0,0,0-2.211,2.362c-6.533,11.609-14.523,20.6-26.182,24.122a4.585,4.585,0,0,1-1.307.251c-.2,0-.3-.05-.3-.1,0-.2.5-.553,1.357-.954,13.92-6.281,23.569-24.926,23.569-25.981,0-.7-.553-1.206-1.458-1.206-2.412,0-9.146,1.909-11.207,2.563-2.111.653-3.267,1.206-4.523,1.206-2.06,0-6.583-2.462-6.583-4.02,0-.8.4-1.106.854-1.106a1.122,1.122,0,0,1,.9.5c.453.7,2.161,1.005,4.272,1.005,1.105,0,2.261-.1,3.417-.2,2.06-.251,9.448-1.357,11.609-1.658,1.306-.2,1.859-1.357,2.965-1.357C683.272,401.89,687.544,403.649,687.544,405.006Zm2.965-3.668a1.529,1.529,0,0,1-1.457,1.608,1.89,1.89,0,0,1-1.357-.7,15.869,15.869,0,0,0-4.322-3.518c-.4-.2-.754-.352-.754-.5a4.328,4.328,0,0,1,1.96-.3C686.94,397.92,690.509,398.825,690.509,401.337Zm5.226-2.462a1.529,1.529,0,0,1-1.458,1.608,1.906,1.906,0,0,1-1.306-.653,17.216,17.216,0,0,0-4.423-3.417c-.4-.2-.8-.352-.8-.452,0-.4,2.111-.4,2.211-.4C692.72,395.558,695.735,396.714,695.735,398.875Z" transform="translate(-405.614 -395.539)" fill="#ffffff"/>
  </g>
  <g id="Group_104" data-name="Group 104" transform="translate(85.767)">
    <path id="Path_113" data-name="Path 113" d="M299.314,336.406c0,.2-.305.381-.763.484a.974.974,0,0,0-.814.483c-3.79,5.723-7.5,6.843-7.529,6.843s-.026,0-.026-.026c0-.077.153-.254.534-.611,1.526-1.4,4.5-6.409,4.654-8.75.026-.28-.025-.381.128-.381C296.185,334.448,299.314,335.719,299.314,336.406Zm5.7-7.427c0,.2-.255.406-.611.635-.483.331-.534.661-.534,6.639,0,3.74.076,8.089.2,9.691v.28c0,2.874-2.925,3.281-3.536,3.281a.908.908,0,0,1-.865-.534c-.585-1.094-3.51-2.264-3.51-2.443,0,0,0-.024.051-.024a.658.658,0,0,1,.2.024,20.7,20.7,0,0,0,2.976.306c1.577,0,1.857-.483,1.882-1.2.051-.89.076-3.51.076-6.385,0-7.961-.076-9.284-.407-11.014a.919.919,0,0,0-.025-.152c0-.127.051-.152.152-.152S305.011,328.343,305.011,328.979Zm8.826,11.853a1.647,1.647,0,0,1-1.5,1.781c-.636,0-1.323-.458-1.806-1.552a18.919,18.919,0,0,0-3.765-5.774c-.279-.254-.432-.432-.432-.509,0-.025.026-.025.076-.025C307.377,334.752,313.838,337.7,313.838,340.832Z" transform="translate(-290.182 -327.325)" fill="#ffffff"/>
    <path id="Path_114" data-name="Path 114" d="M369.013,347.845c0,.178-.1.331-.534.331H355.43c-1.425,0-5.113.026-7.249.254h-.025c-.458,0-1.247-.966-1.247-1.272,2.493.305,7.147.381,8.623.381h1.145v-3.357c-1.3.025-2.874.077-4.426.229h-.025c-.458,0-1.247-.966-1.247-1.272,1.857.229,4.07.356,5.7.381,0-1.093.025-2.213.025-2.976h-3.663c-2.239,2.8-5.138,4.859-5.571,4.859-.026,0-.051-.026-.051-.077,0-.076.1-.255.356-.559a22.814,22.814,0,0,0,4.248-7.937c.026-.152,0-.229.1-.229.458,0,3.282,1.3,3.282,1.933,0,.255-.306.408-.891.408h-.076c-.229,0-.229,0-.916.966H356.7V339.5a17.011,17.011,0,0,0-.254-2.977,1.291,1.291,0,0,1-.051-.228q0-.076.153-.076c.457,0,3.713.483,3.713,1.169,0,.2-.2.432-.763.636-.178.076-.254.2-.28.534,0,.1-.026.611-.026,1.348h3.078a.482.482,0,0,0,.407-.229c.89-1.246,1.475-1.781,1.7-1.781a.317.317,0,0,1,.152.026c.891.331,2.518,1.653,2.518,2.315,0,.152-.1.3-.534.3h-7.326v2.976h1.679a.518.518,0,0,0,.407-.229c.051-.076,1.2-1.78,1.654-1.78a.329.329,0,0,1,.152.025c.636.228,2.442,1.577,2.442,2.289,0,.178-.1.331-.534.331H359.22v3.383h5.037a.518.518,0,0,0,.407-.229c.407-.686,1.323-1.856,1.73-1.856a.189.189,0,0,1,.127.026A4.812,4.812,0,0,1,369.013,347.845Zm-2.671-19.332c0,.179-.127.382-.509.611-.56.381-.56.406-.56,1.475,0,1.348.1,3.713.2,5.163v.051c0,.789-.992,1.12-1.526,1.12-.61,0-1.17-.28-1.17-.941v-.407h-9.819c-.025.662-.84,1.043-1.577,1.043-.611,0-1.2-.28-1.2-.941v-.128c.1-1.221.178-3.891.178-5.6v-.687a12.6,12.6,0,0,0-.229-2.493,1.144,1.144,0,0,0-.025-.127.068.068,0,0,1,.076-.077,10.58,10.58,0,0,1,3.154,1.374l.076.05H362.3a.394.394,0,0,0,.331-.178c.686-.89.839-1.043,1.068-1.043C364.13,326.783,366.342,327.928,366.342,328.513Zm-3.535.56c0-.305-.2-.407-.458-.407h-9.106l-.1.076c-.178.1-.178.23-.178.407-.025.432-.025,1.272-.025,2.213h9.869Zm-9.869,2.95c0,1.069.025,2.163.025,2.9h9.819c0-.891.026-1.909.026-2.9Z" transform="translate(-321.344 -326.58)" fill="#ffffff"/>
    <path id="Path_115" data-name="Path 115" d="M400.758,351.261c-.056,0-.084-.028-.084-.056,0-.083.392-.28,1.035-.588a31.894,31.894,0,0,0,10.773-8.9,34.86,34.86,0,0,0-4.813-2.686c-.448-.2-.867-.392-.867-.5,0-.056.056-.056.224-.056a21.608,21.608,0,0,1,6.6,1.763c.812-1.148,3.134-4.59,3.134-5.736,0-.448-.252-.7-.727-.812-.42-.112-.644-.28-.644-.475,0-.308.615-.728,1.4-.728,1.483,0,3.3,1.483,3.3,2.35,0,.644-.867.98-1.455,1.96a43.914,43.914,0,0,1-2.91,4.365c3.3,1.623,3.722,3.05,3.722,3.777a1.258,1.258,0,0,1-1.2,1.371,2.218,2.218,0,0,1-1.623-1.035,12.486,12.486,0,0,0-2.378-2.294C407.809,350.366,400.981,351.261,400.758,351.261Z" transform="translate(-350.88 -329.824)" fill="#ffffff"/>
    <path id="Path_116" data-name="Path 116" d="M454.042,351.159a7.161,7.161,0,0,1-1.287.28c-.084,0-.112-.028-.112-.056a3.692,3.692,0,0,1,1.147-.644c7.471-3.329,12.815-14.046,12.815-15.865,0-.476-.224-.728-.756-.84-.448-.084-.643-.252-.643-.42,0-.224.531-.755,1.511-.755,1.455,0,3.442,1.232,3.442,2.155,0,.7-.923,1.287-1.315,2.1C465.961,343.072,461.485,349.172,454.042,351.159Zm2.742-11.556a12.431,12.431,0,0,0-2.826-4.588q-.336-.337-.336-.42c0-.056.056-.085.14-.085,1.259,0,5.988,1.987,5.988,4.618a1.664,1.664,0,0,1-1.511,1.762C457.708,340.889,457.12,340.5,456.784,339.6Z" transform="translate(-379.428 -330.029)" fill="#ffffff"/>
    <path id="Path_117" data-name="Path 117" d="M497.289,351.058a12.084,12.084,0,0,0-1.847-2.21c-.252-.2-.392-.336-.392-.42s.168-.112.559-.112c1.9.055,3.75.867,3.75,2.295a1.075,1.075,0,0,1-1.007,1.147A1.333,1.333,0,0,1,497.289,351.058Zm-1.175,7.751c-.112,0-.168-.028-.168-.056,0-.112.2-.28.616-.475,5.177-2.49,8.982-9.374,8.982-10.633,0-.28-.14-.392-.42-.475-.42-.113-.616-.252-.616-.42a1.045,1.045,0,0,1,1.147-.728c1.2,0,2.574.952,2.574,1.707,0,.56-.672.979-.951,1.566C502.717,358.053,496.226,358.809,496.114,358.809Zm4.477-9.261a9.189,9.189,0,0,0-1.511-2.407c-.2-.2-.307-.336-.307-.42,0-.056.112-.083.307-.083,1.315,0,3.694,1.007,3.694,2.574a1.184,1.184,0,0,1-1.091,1.231A1.247,1.247,0,0,1,500.591,349.547Z" transform="translate(-402.725 -337.26)" fill="#ffffff"/>
    <path id="Path_118" data-name="Path 118" d="M535.551,336.43v1.623c0,3.386.112,6.94.2,7.863,0,.168.028.335.028.5,0,1.063-.364,2.6-1.315,2.6s-1.6-1.65-1.6-3.022a4.936,4.936,0,0,1,.084-.923c.168-.979.336-1.287.448-2.322.168-1.707.224-4.757.224-7.22,0-5.6-.336-6.6-1.063-6.715-.588-.085-.812-.2-.812-.365a1.191,1.191,0,0,1,1.232-.81c1.175,0,3.3,1.287,3.3,2.63,0,.616-.392,1.2-.5,2.21-.112.923-.2,2.155-.224,3.553.084,0,.168-.027.252-.027a13.7,13.7,0,0,1,1.707-.085c4.981,0,5.232,2.238,5.232,2.658a1.362,1.362,0,0,1-1.371,1.4,2.164,2.164,0,0,1-1.4-.644,16.42,16.42,0,0,0-4.225-2.854Zm5.792-3.106a9.108,9.108,0,0,0-2.322-1.875c-.28-.168-.476-.28-.476-.364,0-.2.839-.224,1.2-.224,1.343,0,3.3.532,3.3,1.9a.96.96,0,0,1-.9.98A1.02,1.02,0,0,1,541.343,333.325Zm2.966-1.371a8.775,8.775,0,0,0-2.406-1.79c-.28-.14-.5-.251-.5-.336,0-.28,1.287-.28,1.371-.28,3.134,0,3.218,1.791,3.218,1.847a.915.915,0,0,1-.9.951A1.058,1.058,0,0,1,544.309,331.953Z" transform="translate(-422.883 -327.165)" fill="#ffffff"/>
  </g>
  <g id="Group_107" data-name="Group 107" transform="translate(277.003 63.431)">
    <circle id="Ellipse_7" data-name="Ellipse 7" cx="3.136" cy="3.136" r="3.136" transform="translate(0 0)" fill="none" stroke="#ffffff" stroke-miterlimit="10" stroke-width="0.992"/>
    <g id="Group_106" data-name="Group 106" transform="translate(1.827 1.065)">
      <g id="Group_105" data-name="Group 105">
        <path id="Path_119" data-name="Path 119" d="M719.163,473.838h-.579V469.7h1.329a2.539,2.539,0,0,1,.567.061,1.4,1.4,0,0,1,.471.2.96.96,0,0,1,.319.354,1.119,1.119,0,0,1,.117.535,1,1,0,0,1-.281.737,1.3,1.3,0,0,1-.726.357l1.159,1.9h-.7l-1.054-1.844h-.621Zm0-2.329h.667a1.939,1.939,0,0,0,.38-.035.968.968,0,0,0,.307-.115.635.635,0,0,0,.208-.831.59.59,0,0,0-.2-.2.892.892,0,0,0-.3-.108,1.935,1.935,0,0,0-.357-.032h-.708Z" transform="translate(-718.584 -469.695)" fill="#ffffff"/>
      </g>
    </g>
  </g>
</svg>
