<svg xmlns="http://www.w3.org/2000/svg" width="28.135" height="63.99" viewBox="0 0 28.135 63.99">
  <g id="Group_97" data-name="Group 97" transform="translate(-409.104 -366.35)">
    <path id="Path_92" data-name="Path 92" d="M419.21,378.207c-1.01.646-5.5-2.784-6.363-3.8a14.5,14.5,0,0,1-3.37-8.06c2.083.781,4.45,3.041,5.9,4.776.743.889,4.183,5.995,3.832,7.081Z" transform="translate(0.922 0)" fill="#0069c7" fill-rule="evenodd"/>
    <path id="Path_93" data-name="Path 93" d="M416.279,372.6l.271,2.1c.42,3.225-.267,4.047-.5,6.293-1.114-.555-3.221-4.648-3.475-6.6l-.337-2.579c-.257-2,.656-3.735.805-5.189,1,.552,3.009,4.266,3.232,5.977Z" transform="translate(7.643 0.685)" fill="#0069c7" fill-rule="evenodd"/>
    <path id="Path_94" data-name="Path 94" d="M422.127,378.627c-.351-2.312-3.388-5-4.856-6.133a14.086,14.086,0,0,0-7.147-2.968c.5,2.336,3.3,4.936,4.856,6.133a15.263,15.263,0,0,0,3.3,1.927,30.254,30.254,0,0,0,3.843,1.041Z" transform="translate(2.521 7.848)" fill="#0069c7" fill-rule="evenodd"/>
    <path id="Path_95" data-name="Path 95" d="M417.925,373.563c-.288-2.225-1.118-3.346-1.454-4.894-1.2,1.048-3.3,7.046-2.537,9.511l1.448,5.064c1.711-.7,2.9-6.96,2.544-9.681Z" transform="translate(11.53 5.73)" fill="#0069c7" fill-rule="evenodd"/>
    <path id="Path_96" data-name="Path 96" d="M420.435,371.393A14.94,14.94,0,0,1,419.192,379c-.649,1.312-3.072,4.738-4.308,5.248a16.858,16.858,0,0,1,1.059-8.039c.559-1.4,3-4.936,4.408-5.46l.083.646Z" transform="translate(13.998 10.865)" fill="#0069c7" fill-rule="evenodd"/>
    <path id="Path_97" data-name="Path 97" d="M419.642,381.677l.187,1.451a2.431,2.431,0,0,1-.056.826c-2.937-.389-6.716-6.258-7.272-10.538l-.062-.483a2.35,2.35,0,0,1,.059-.826,12.99,12.99,0,0,1,7.144,9.57Z" transform="translate(8.195 14.226)" fill="#0069c7" fill-rule="evenodd"/>
    <path id="Path_98" data-name="Path 98" d="M414.709,386.369c1.545-.333,4.453-3.853,5.168-5.165a14.766,14.766,0,0,0,1.385-3.579c.281-1.2.149-3.176.469-4.138-1.975.739-4.12,3.586-5.1,5.221a12.614,12.614,0,0,0-1.409,3.558c-.246.989-.371,3.659-.517,4.1Z" transform="translate(13.85 17.639)" fill="#0069c7" fill-rule="evenodd"/>
    <path id="Path_99" data-name="Path 99" d="M414.241,386.426c.229-2.3,2.287-4.769,3.551-6.407,1.35-1.746,4.3-3.03,6.751-3.947.083,1.861-2.492,5.155-3.554,6.408-1.038,1.222-4.637,3.624-6.748,3.947Z" transform="translate(12.694 24.024)" fill="#0069c7" fill-rule="evenodd"/>
    <path id="Path_100" data-name="Path 100" d="M416.794,379.243a14.2,14.2,0,0,0-1.309-3.766l-.323.042c-.135,1.021-1.486,3.239-1.871,4.946a22.157,22.157,0,0,0,.045,6.276,25.421,25.421,0,0,0,1.246,3.284l.323-.042c.188-1.416,1.42-2.482,1.746-4.752a16.59,16.59,0,0,0,.142-5.988Z" transform="translate(9.839 22.554)" fill="#0069c7" fill-rule="evenodd"/>
    <path id="Path_101" data-name="Path 101" d="M412.528,388.973c.389-3.877,6.373-9.351,11.17-9.972-.215,2.114-2.586,4.87-3.974,6.227a13.3,13.3,0,0,1-3.1,2.26c-.753.364-3.707,1.232-4.1,1.486Z" transform="translate(8.461 31.262)" fill="#0069c7" fill-rule="evenodd"/>
    <path id="Path_102" data-name="Path 102" d="M410.961,393.6c1.718-.642,4.11-4.447,4.919-6.081a15.4,15.4,0,0,0,1.527-8.692c-3.575,2.527-7.2,8.952-6.446,14.773Z" transform="translate(4.339 30.822)" fill="#0069c7" fill-rule="evenodd"/>
    <path id="Path_103" data-name="Path 103" d="M427.058,381.843c-.514,1.031-3.058,2.624-4.332,3.148a20.337,20.337,0,0,1-6.2,1.76l-.16.021c-1.985.257-3.308-.392-4.943-.18.132-1.01,3-2.565,4.089-3.093a17.957,17.957,0,0,1,6.116-1.673l5.429.017Z" transform="translate(5.733 38.242)" fill="#0069c7" fill-rule="evenodd"/>
    <path id="Path_104" data-name="Path 104" d="M418.188,387.622l1.454-.187a13.208,13.208,0,0,0,5.776-2.225c-1.02-1.073-6.085-1.833-8.4-1.534-1.558.2-2.832.423-4.335.725-1.333.267-2.624,1.243-3.582,1.447.559,1.361,6.814,2.069,9.084,1.774Z" transform="translate(0 42.651)" fill="#0069c7" fill-rule="evenodd"/>
  </g>
</svg>
